# vtk DataFile Version 3.0
embmesh fibers
ASCII
DATASET POLYDATA
POINTS 64 float
0 1.25e-07 1.25e-07
2e-06 1.25e-07 1.25e-07
0 3.75e-07 1.25e-07
2e-06 3.75e-07 1.25e-07
0 6.25e-07 1.25e-07
2e-06 6.25e-07 1.25e-07
0 8.75e-07 1.25e-07
2e-06 8.75e-07 1.25e-07
0 1.125e-06 1.25e-07
2e-06 1.125e-06 1.25e-07
0 1.375e-06 1.25e-07
2e-06 1.375e-06 1.25e-07
0 1.625e-06 1.25e-07
2e-06 1.625e-06 1.25e-07
0 1.875e-06 1.25e-07
2e-06 1.875e-06 1.25e-07
1.25e-07 0 3.75e-07
1.25e-07 2e-06 3.75e-07
3.75e-07 0 3.75e-07
3.75e-07 2e-06 3.75e-07
6.25e-07 0 3.75e-07
6.25e-07 2e-06 3.75e-07
8.75e-07 0 3.75e-07
8.75e-07 2e-06 3.75e-07
1.125e-06 0 3.75e-07
1.125e-06 2e-06 3.75e-07
1.375e-06 0 3.75e-07
1.375e-06 2e-06 3.75e-07
1.625e-06 0 3.75e-07
1.625e-06 2e-06 3.75e-07
1.875e-06 0 3.75e-07
1.875e-06 2e-06 3.75e-07
0 1.25e-07 6.25e-07
2e-06 1.25e-07 6.25e-07
0 3.75e-07 6.25e-07
2e-06 3.75e-07 6.25e-07
0 6.25e-07 6.25e-07
2e-06 6.25e-07 6.25e-07
0 8.75e-07 6.25e-07
2e-06 8.75e-07 6.25e-07
0 1.125e-06 6.25e-07
2e-06 1.125e-06 6.25e-07
0 1.375e-06 6.25e-07
2e-06 1.375e-06 6.25e-07
0 1.625e-06 6.25e-07
2e-06 1.625e-06 6.25e-07
0 1.875e-06 6.25e-07
2e-06 1.875e-06 6.25e-07
1.25e-07 0 8.75e-07
1.25e-07 2e-06 8.75e-07
3.75e-07 0 8.75e-07
3.75e-07 2e-06 8.75e-07
6.25e-07 0 8.75e-07
6.25e-07 2e-06 8.75e-07
8.75e-07 0 8.75e-07
8.75e-07 2e-06 8.75e-07
1.125e-06 0 8.75e-07
1.125e-06 2e-06 8.75e-07
1.375e-06 0 8.75e-07
1.375e-06 2e-06 8.75e-07
1.625e-06 0 8.75e-07
1.625e-06 2e-06 8.75e-07
1.875e-06 0 8.75e-07
1.875e-06 2e-06 8.75e-07
LINES 32 96
2 0 1
2 2 3
2 4 5
2 6 7
2 8 9
2 10 11
2 12 13
2 14 15
2 16 17
2 18 19
2 20 21
2 22 23
2 24 25
2 26 27
2 28 29
2 30 31
2 32 33
2 34 35
2 36 37
2 38 39
2 40 41
2 42 43
2 44 45
2 46 47
2 48 49
2 50 51
2 52 53
2 54 55
2 56 57
2 58 59
2 60 61
2 62 63
