# vtk DataFile Version 3.0
embmesh host/fiber visualization
ASCII
DATASET POLYDATA
POINTS 20 float
0 0 0
1 0 0
1 1 0
0 1 0
0 0 1
1 0 1
1 1 1
0 1 1
0 0.175 0.175
1 0.175 0.175
0 0.525 0.175
1 0.525 0.175
0 0.875 0.175
1 0.875 0.175
0.175 0 0.525
0.175 1 0.525
0.525 0 0.525
0.525 1 0.525
0.875 0 0.525
0.875 1 0.525
LINES 18 54
2 0 1
2 1 2
2 2 3
2 3 0
2 4 5
2 5 6
2 6 7
2 7 4
2 0 4
2 1 5
2 2 6
2 3 7
2 8 9
2 10 11
2 12 13
2 14 15
2 16 17
2 18 19
CELL_DATA 18
SCALARS host_volume_fraction float 1
LOOKUP_TABLE default
0.577267650097
0.577267650097
0.577267650097
0.577267650097
0.577267650097
0.577267650097
0.577267650097
0.577267650097
0.577267650097
0.577267650097
0.577267650097
0.577267650097
-1
-1
-1
-1
-1
-1
