# vtk DataFile Version 3.0
embmesh host/fiber visualization
ASCII
DATASET POLYDATA
POINTS 264 float
0 0 0
0.25 0 0
0.25 1 0
0 1 0
0 0 1
0.25 0 1
0.25 1 1
0 1 1
0.25 0 0
0.5 0 0
0.5 1 0
0.25 1 0
0.25 0 1
0.5 0 1
0.5 1 1
0.25 1 1
0 1 0
0.25 1 0
0.25 2 0
0 2 0
0 1 1
0.25 1 1
0.25 2 1
0 2 1
0.25 1 0
0.5 1 0
0.5 2 0
0.25 2 0
0.25 1 1
0.5 1 1
0.5 2 1
0.25 2 1
0 0 1
0.25 0 1
0.25 1 1
0 1 1
0 0 2
0.25 0 2
0.25 1 2
0 1 2
0.25 0 1
0.5 0 1
0.5 1 1
0.25 1 1
0.25 0 2
0.5 0 2
0.5 1 2
0.25 1 2
0 1 1
0.25 1 1
0.25 2 1
0 2 1
0 1 2
0.25 1 2
0.25 2 2
0 2 2
0.25 1 1
0.5 1 1
0.5 2 1
0.25 2 1
0.25 1 2
0.5 1 2
0.5 2 2
0.25 2 2
0.05 0 0.05
0.05 2 0.05
0.05 0 0.15
0.05 2 0.15
0.05 0 0.25
0.05 2 0.25
0.05 0 0.35
0.05 2 0.35
0.05 0 0.45
0.05 2 0.45
0.05 0 0.55
0.05 2 0.55
0.05 0 0.65
0.05 2 0.65
0.05 0 0.75
0.05 2 0.75
0.05 0 0.85
0.05 2 0.85
0.05 0 0.95
0.05 2 0.95
0.05 0 1.05
0.05 2 1.05
0.05 0 1.15
0.05 2 1.15
0.05 0 1.25
0.05 2 1.25
0.05 0 1.35
0.05 2 1.35
0.05 0 1.45
0.05 2 1.45
0.05 0 1.55
0.05 2 1.55
0.05 0 1.65
0.05 2 1.65
0.05 0 1.75
0.05 2 1.75
0.05 0 1.85
0.05 2 1.85
0.05 0 1.95
0.05 2 1.95
0.15 0.05 0
0.15 0.05 2
0.15 0.15 0
0.15 0.15 2
0.15 0.25 0
0.15 0.25 2
0.15 0.35 0
0.15 0.35 2
0.15 0.45 0
0.15 0.45 2
0.15 0.55 0
0.15 0.55 2
0.15 0.65 0
0.15 0.65 2
0.15 0.75 0
0.15 0.75 2
0.15 0.85 0
0.15 0.85 2
0.15 0.95 0
0.15 0.95 2
0.15 1.05 0
0.15 1.05 2
0.15 1.15 0
0.15 1.15 2
0.15 1.25 0
0.15 1.25 2
0.15 1.35 0
0.15 1.35 2
0.15 1.45 0
0.15 1.45 2
0.15 1.55 0
0.15 1.55 2
0.15 1.65 0
0.15 1.65 2
0.15 1.75 0
0.15 1.75 2
0.15 1.85 0
0.15 1.85 2
0.15 1.95 0
0.15 1.95 2
0.25 0 0.05
0.25 2 0.05
0.25 0 0.15
0.25 2 0.15
0.25 0 0.25
0.25 2 0.25
0.25 0 0.35
0.25 2 0.35
0.25 0 0.45
0.25 2 0.45
0.25 0 0.55
0.25 2 0.55
0.25 0 0.65
0.25 2 0.65
0.25 0 0.75
0.25 2 0.75
0.25 0 0.85
0.25 2 0.85
0.25 0 0.95
0.25 2 0.95
0.25 0 1.05
0.25 2 1.05
0.25 0 1.15
0.25 2 1.15
0.25 0 1.25
0.25 2 1.25
0.25 0 1.35
0.25 2 1.35
0.25 0 1.45
0.25 2 1.45
0.25 0 1.55
0.25 2 1.55
0.25 0 1.65
0.25 2 1.65
0.25 0 1.75
0.25 2 1.75
0.25 0 1.85
0.25 2 1.85
0.25 0 1.95
0.25 2 1.95
0.35 0.05 0
0.35 0.05 2
0.35 0.15 0
0.35 0.15 2
0.35 0.25 0
0.35 0.25 2
0.35 0.35 0
0.35 0.35 2
0.35 0.45 0
0.35 0.45 2
0.35 0.55 0
0.35 0.55 2
0.35 0.65 0
0.35 0.65 2
0.35 0.75 0
0.35 0.75 2
0.35 0.85 0
0.35 0.85 2
0.35 0.95 0
0.35 0.95 2
0.35 1.05 0
0.35 1.05 2
0.35 1.15 0
0.35 1.15 2
0.35 1.25 0
0.35 1.25 2
0.35 1.35 0
0.35 1.35 2
0.35 1.45 0
0.35 1.45 2
0.35 1.55 0
0.35 1.55 2
0.35 1.65 0
0.35 1.65 2
0.35 1.75 0
0.35 1.75 2
0.35 1.85 0
0.35 1.85 2
0.35 1.95 0
0.35 1.95 2
0.45 0 0.05
0.45 2 0.05
0.45 0 0.15
0.45 2 0.15
0.45 0 0.25
0.45 2 0.25
0.45 0 0.35
0.45 2 0.35
0.45 0 0.45
0.45 2 0.45
0.45 0 0.55
0.45 2 0.55
0.45 0 0.65
0.45 2 0.65
0.45 0 0.75
0.45 2 0.75
0.45 0 0.85
0.45 2 0.85
0.45 0 0.95
0.45 2 0.95
0.45 0 1.05
0.45 2 1.05
0.45 0 1.15
0.45 2 1.15
0.45 0 1.25
0.45 2 1.25
0.45 0 1.35
0.45 2 1.35
0.45 0 1.45
0.45 2 1.45
0.45 0 1.55
0.45 2 1.55
0.45 0 1.65
0.45 2 1.65
0.45 0 1.75
0.45 2 1.75
0.45 0 1.85
0.45 2 1.85
0.45 0 1.95
0.45 2 1.95
LINES 196 588
2 0 1
2 1 2
2 2 3
2 3 0
2 4 5
2 5 6
2 6 7
2 7 4
2 0 4
2 1 5
2 2 6
2 3 7
2 8 9
2 9 10
2 10 11
2 11 8
2 12 13
2 13 14
2 14 15
2 15 12
2 8 12
2 9 13
2 10 14
2 11 15
2 16 17
2 17 18
2 18 19
2 19 16
2 20 21
2 21 22
2 22 23
2 23 20
2 16 20
2 17 21
2 18 22
2 19 23
2 24 25
2 25 26
2 26 27
2 27 24
2 28 29
2 29 30
2 30 31
2 31 28
2 24 28
2 25 29
2 26 30
2 27 31
2 32 33
2 33 34
2 34 35
2 35 32
2 36 37
2 37 38
2 38 39
2 39 36
2 32 36
2 33 37
2 34 38
2 35 39
2 40 41
2 41 42
2 42 43
2 43 40
2 44 45
2 45 46
2 46 47
2 47 44
2 40 44
2 41 45
2 42 46
2 43 47
2 48 49
2 49 50
2 50 51
2 51 48
2 52 53
2 53 54
2 54 55
2 55 52
2 48 52
2 49 53
2 50 54
2 51 55
2 56 57
2 57 58
2 58 59
2 59 56
2 60 61
2 61 62
2 62 63
2 63 60
2 56 60
2 57 61
2 58 62
2 59 63
2 64 65
2 66 67
2 68 69
2 70 71
2 72 73
2 74 75
2 76 77
2 78 79
2 80 81
2 82 83
2 84 85
2 86 87
2 88 89
2 90 91
2 92 93
2 94 95
2 96 97
2 98 99
2 100 101
2 102 103
2 104 105
2 106 107
2 108 109
2 110 111
2 112 113
2 114 115
2 116 117
2 118 119
2 120 121
2 122 123
2 124 125
2 126 127
2 128 129
2 130 131
2 132 133
2 134 135
2 136 137
2 138 139
2 140 141
2 142 143
2 144 145
2 146 147
2 148 149
2 150 151
2 152 153
2 154 155
2 156 157
2 158 159
2 160 161
2 162 163
2 164 165
2 166 167
2 168 169
2 170 171
2 172 173
2 174 175
2 176 177
2 178 179
2 180 181
2 182 183
2 184 185
2 186 187
2 188 189
2 190 191
2 192 193
2 194 195
2 196 197
2 198 199
2 200 201
2 202 203
2 204 205
2 206 207
2 208 209
2 210 211
2 212 213
2 214 215
2 216 217
2 218 219
2 220 221
2 222 223
2 224 225
2 226 227
2 228 229
2 230 231
2 232 233
2 234 235
2 236 237
2 238 239
2 240 241
2 242 243
2 244 245
2 246 247
2 248 249
2 250 251
2 252 253
2 254 255
2 256 257
2 258 259
2 260 261
2 262 263
CELL_DATA 196
SCALARS host_volume_fraction float 1
LOOKUP_TABLE default
0.942477796516
0.942477796516
0.942477796516
0.942477796516
0.942477796516
0.942477796516
0.942477796516
0.942477796516
0.942477796516
0.942477796516
0.942477796516
0.942477796516
0.942477796516
0.942477796516
0.942477796516
0.942477796516
0.942477796516
0.942477796516
0.942477796516
0.942477796516
0.942477796516
0.942477796516
0.942477796516
0.942477796516
0.942477796516
0.942477796516
0.942477796516
0.942477796516
0.942477796516
0.942477796516
0.942477796516
0.942477796516
0.942477796516
0.942477796516
0.942477796516
0.942477796516
0.942477796516
0.942477796516
0.942477796516
0.942477796516
0.942477796516
0.942477796516
0.942477796516
0.942477796516
0.942477796516
0.942477796516
0.942477796516
0.942477796516
0.942477796516
0.942477796516
0.942477796516
0.942477796516
0.942477796516
0.942477796516
0.942477796516
0.942477796516
0.942477796516
0.942477796516
0.942477796516
0.942477796516
0.942477796516
0.942477796516
0.942477796516
0.942477796516
0.942477796516
0.942477796516
0.942477796516
0.942477796516
0.942477796516
0.942477796516
0.942477796516
0.942477796516
0.942477796516
0.942477796516
0.942477796516
0.942477796516
0.942477796516
0.942477796516
0.942477796516
0.942477796516
0.942477796516
0.942477796516
0.942477796516
0.942477796516
0.942477796516
0.942477796516
0.942477796516
0.942477796516
0.942477796516
0.942477796516
0.942477796516
0.942477796516
0.942477796516
0.942477796516
0.942477796516
0.942477796516
-1
-1
-1
-1
-1
-1
-1
-1
-1
-1
-1
-1
-1
-1
-1
-1
-1
-1
-1
-1
-1
-1
-1
-1
-1
-1
-1
-1
-1
-1
-1
-1
-1
-1
-1
-1
-1
-1
-1
-1
-1
-1
-1
-1
-1
-1
-1
-1
-1
-1
-1
-1
-1
-1
-1
-1
-1
-1
-1
-1
-1
-1
-1
-1
-1
-1
-1
-1
-1
-1
-1
-1
-1
-1
-1
-1
-1
-1
-1
-1
-1
-1
-1
-1
-1
-1
-1
-1
-1
-1
-1
-1
-1
-1
-1
-1
-1
-1
-1
-1
