# vtk DataFile Version 3.0
embmesh host/fiber visualization
ASCII
DATASET POLYDATA
POINTS 692 float
0 0 0
0.5 0 0
0.5 0.5 0
0 0.5 0
0 0 0.5
0.5 0 0.5
0.5 0.5 0.5
0 0.5 0.5
0.5 0 0
1 0 0
1 0.5 0
0.5 0.5 0
0.5 0 0.5
1 0 0.5
1 0.5 0.5
0.5 0.5 0.5
1 0 0
1.5 0 0
1.5 0.5 0
1 0.5 0
1 0 0.5
1.5 0 0.5
1.5 0.5 0.5
1 0.5 0.5
1.5 0 0
2 0 0
2 0.5 0
1.5 0.5 0
1.5 0 0.5
2 0 0.5
2 0.5 0.5
1.5 0.5 0.5
0 0.5 0
0.5 0.5 0
0.5 1 0
0 1 0
0 0.5 0.5
0.5 0.5 0.5
0.5 1 0.5
0 1 0.5
0.5 0.5 0
1 0.5 0
1 1 0
0.5 1 0
0.5 0.5 0.5
1 0.5 0.5
1 1 0.5
0.5 1 0.5
1 0.5 0
1.5 0.5 0
1.5 1 0
1 1 0
1 0.5 0.5
1.5 0.5 0.5
1.5 1 0.5
1 1 0.5
1.5 0.5 0
2 0.5 0
2 1 0
1.5 1 0
1.5 0.5 0.5
2 0.5 0.5
2 1 0.5
1.5 1 0.5
0 1 0
0.5 1 0
0.5 1.5 0
0 1.5 0
0 1 0.5
0.5 1 0.5
0.5 1.5 0.5
0 1.5 0.5
0.5 1 0
1 1 0
1 1.5 0
0.5 1.5 0
0.5 1 0.5
1 1 0.5
1 1.5 0.5
0.5 1.5 0.5
1 1 0
1.5 1 0
1.5 1.5 0
1 1.5 0
1 1 0.5
1.5 1 0.5
1.5 1.5 0.5
1 1.5 0.5
1.5 1 0
2 1 0
2 1.5 0
1.5 1.5 0
1.5 1 0.5
2 1 0.5
2 1.5 0.5
1.5 1.5 0.5
0 1.5 0
0.5 1.5 0
0.5 2 0
0 2 0
0 1.5 0.5
0.5 1.5 0.5
0.5 2 0.5
0 2 0.5
0.5 1.5 0
1 1.5 0
1 2 0
0.5 2 0
0.5 1.5 0.5
1 1.5 0.5
1 2 0.5
0.5 2 0.5
1 1.5 0
1.5 1.5 0
1.5 2 0
1 2 0
1 1.5 0.5
1.5 1.5 0.5
1.5 2 0.5
1 2 0.5
1.5 1.5 0
2 1.5 0
2 2 0
1.5 2 0
1.5 1.5 0.5
2 1.5 0.5
2 2 0.5
1.5 2 0.5
0 0 0.5
0.5 0 0.5
0.5 0.5 0.5
0 0.5 0.5
0 0 1
0.5 0 1
0.5 0.5 1
0 0.5 1
0.5 0 0.5
1 0 0.5
1 0.5 0.5
0.5 0.5 0.5
0.5 0 1
1 0 1
1 0.5 1
0.5 0.5 1
1 0 0.5
1.5 0 0.5
1.5 0.5 0.5
1 0.5 0.5
1 0 1
1.5 0 1
1.5 0.5 1
1 0.5 1
1.5 0 0.5
2 0 0.5
2 0.5 0.5
1.5 0.5 0.5
1.5 0 1
2 0 1
2 0.5 1
1.5 0.5 1
0 0.5 0.5
0.5 0.5 0.5
0.5 1 0.5
0 1 0.5
0 0.5 1
0.5 0.5 1
0.5 1 1
0 1 1
0.5 0.5 0.5
1 0.5 0.5
1 1 0.5
0.5 1 0.5
0.5 0.5 1
1 0.5 1
1 1 1
0.5 1 1
1 0.5 0.5
1.5 0.5 0.5
1.5 1 0.5
1 1 0.5
1 0.5 1
1.5 0.5 1
1.5 1 1
1 1 1
1.5 0.5 0.5
2 0.5 0.5
2 1 0.5
1.5 1 0.5
1.5 0.5 1
2 0.5 1
2 1 1
1.5 1 1
0 1 0.5
0.5 1 0.5
0.5 1.5 0.5
0 1.5 0.5
0 1 1
0.5 1 1
0.5 1.5 1
0 1.5 1
0.5 1 0.5
1 1 0.5
1 1.5 0.5
0.5 1.5 0.5
0.5 1 1
1 1 1
1 1.5 1
0.5 1.5 1
1 1 0.5
1.5 1 0.5
1.5 1.5 0.5
1 1.5 0.5
1 1 1
1.5 1 1
1.5 1.5 1
1 1.5 1
1.5 1 0.5
2 1 0.5
2 1.5 0.5
1.5 1.5 0.5
1.5 1 1
2 1 1
2 1.5 1
1.5 1.5 1
0 1.5 0.5
0.5 1.5 0.5
0.5 2 0.5
0 2 0.5
0 1.5 1
0.5 1.5 1
0.5 2 1
0 2 1
0.5 1.5 0.5
1 1.5 0.5
1 2 0.5
0.5 2 0.5
0.5 1.5 1
1 1.5 1
1 2 1
0.5 2 1
1 1.5 0.5
1.5 1.5 0.5
1.5 2 0.5
1 2 0.5
1 1.5 1
1.5 1.5 1
1.5 2 1
1 2 1
1.5 1.5 0.5
2 1.5 0.5
2 2 0.5
1.5 2 0.5
1.5 1.5 1
2 1.5 1
2 2 1
1.5 2 1
0 0 1
0.5 0 1
0.5 0.5 1
0 0.5 1
0 0 1.5
0.5 0 1.5
0.5 0.5 1.5
0 0.5 1.5
0.5 0 1
1 0 1
1 0.5 1
0.5 0.5 1
0.5 0 1.5
1 0 1.5
1 0.5 1.5
0.5 0.5 1.5
1 0 1
1.5 0 1
1.5 0.5 1
1 0.5 1
1 0 1.5
1.5 0 1.5
1.5 0.5 1.5
1 0.5 1.5
1.5 0 1
2 0 1
2 0.5 1
1.5 0.5 1
1.5 0 1.5
2 0 1.5
2 0.5 1.5
1.5 0.5 1.5
0 0.5 1
0.5 0.5 1
0.5 1 1
0 1 1
0 0.5 1.5
0.5 0.5 1.5
0.5 1 1.5
0 1 1.5
0.5 0.5 1
1 0.5 1
1 1 1
0.5 1 1
0.5 0.5 1.5
1 0.5 1.5
1 1 1.5
0.5 1 1.5
1 0.5 1
1.5 0.5 1
1.5 1 1
1 1 1
1 0.5 1.5
1.5 0.5 1.5
1.5 1 1.5
1 1 1.5
1.5 0.5 1
2 0.5 1
2 1 1
1.5 1 1
1.5 0.5 1.5
2 0.5 1.5
2 1 1.5
1.5 1 1.5
0 1 1
0.5 1 1
0.5 1.5 1
0 1.5 1
0 1 1.5
0.5 1 1.5
0.5 1.5 1.5
0 1.5 1.5
0.5 1 1
1 1 1
1 1.5 1
0.5 1.5 1
0.5 1 1.5
1 1 1.5
1 1.5 1.5
0.5 1.5 1.5
1 1 1
1.5 1 1
1.5 1.5 1
1 1.5 1
1 1 1.5
1.5 1 1.5
1.5 1.5 1.5
1 1.5 1.5
1.5 1 1
2 1 1
2 1.5 1
1.5 1.5 1
1.5 1 1.5
2 1 1.5
2 1.5 1.5
1.5 1.5 1.5
0 1.5 1
0.5 1.5 1
0.5 2 1
0 2 1
0 1.5 1.5
0.5 1.5 1.5
0.5 2 1.5
0 2 1.5
0.5 1.5 1
1 1.5 1
1 2 1
0.5 2 1
0.5 1.5 1.5
1 1.5 1.5
1 2 1.5
0.5 2 1.5
1 1.5 1
1.5 1.5 1
1.5 2 1
1 2 1
1 1.5 1.5
1.5 1.5 1.5
1.5 2 1.5
1 2 1.5
1.5 1.5 1
2 1.5 1
2 2 1
1.5 2 1
1.5 1.5 1.5
2 1.5 1.5
2 2 1.5
1.5 2 1.5
0 0 1.5
0.5 0 1.5
0.5 0.5 1.5
0 0.5 1.5
0 0 2
0.5 0 2
0.5 0.5 2
0 0.5 2
0.5 0 1.5
1 0 1.5
1 0.5 1.5
0.5 0.5 1.5
0.5 0 2
1 0 2
1 0.5 2
0.5 0.5 2
1 0 1.5
1.5 0 1.5
1.5 0.5 1.5
1 0.5 1.5
1 0 2
1.5 0 2
1.5 0.5 2
1 0.5 2
1.5 0 1.5
2 0 1.5
2 0.5 1.5
1.5 0.5 1.5
1.5 0 2
2 0 2
2 0.5 2
1.5 0.5 2
0 0.5 1.5
0.5 0.5 1.5
0.5 1 1.5
0 1 1.5
0 0.5 2
0.5 0.5 2
0.5 1 2
0 1 2
0.5 0.5 1.5
1 0.5 1.5
1 1 1.5
0.5 1 1.5
0.5 0.5 2
1 0.5 2
1 1 2
0.5 1 2
1 0.5 1.5
1.5 0.5 1.5
1.5 1 1.5
1 1 1.5
1 0.5 2
1.5 0.5 2
1.5 1 2
1 1 2
1.5 0.5 1.5
2 0.5 1.5
2 1 1.5
1.5 1 1.5
1.5 0.5 2
2 0.5 2
2 1 2
1.5 1 2
0 1 1.5
0.5 1 1.5
0.5 1.5 1.5
0 1.5 1.5
0 1 2
0.5 1 2
0.5 1.5 2
0 1.5 2
0.5 1 1.5
1 1 1.5
1 1.5 1.5
0.5 1.5 1.5
0.5 1 2
1 1 2
1 1.5 2
0.5 1.5 2
1 1 1.5
1.5 1 1.5
1.5 1.5 1.5
1 1.5 1.5
1 1 2
1.5 1 2
1.5 1.5 2
1 1.5 2
1.5 1 1.5
2 1 1.5
2 1.5 1.5
1.5 1.5 1.5
1.5 1 2
2 1 2
2 1.5 2
1.5 1.5 2
0 1.5 1.5
0.5 1.5 1.5
0.5 2 1.5
0 2 1.5
0 1.5 2
0.5 1.5 2
0.5 2 2
0 2 2
0.5 1.5 1.5
1 1.5 1.5
1 2 1.5
0.5 2 1.5
0.5 1.5 2
1 1.5 2
1 2 2
0.5 2 2
1 1.5 1.5
1.5 1.5 1.5
1.5 2 1.5
1 2 1.5
1 1.5 2
1.5 1.5 2
1.5 2 2
1 2 2
1.5 1.5 1.5
2 1.5 1.5
2 2 1.5
1.5 2 1.5
1.5 1.5 2
2 1.5 2
2 2 2
1.5 2 2
0 0.1 1.9
2 0.1 1.9
0 0.1 1.7
2 0.1 1.7
0 0.1 1.5
2 0.1 1.5
0 0.1 1.3
2 0.1 1.3
0 0.1 1.1
2 0.1 1.1
0 0.1 0.9
2 0.1 0.9
0 0.1 0.7
2 0.1 0.7
0 0.1 0.5
2 0.1 0.5
0 0.1 0.3
2 0.1 0.3
0 0.1 0.1
2 0.1 0.1
0.1 0.3 2
0.1 0.3 0
0.3 0.3 2
0.3 0.3 0
0.5 0.3 2
0.5 0.3 0
0.7 0.3 2
0.7 0.3 0
0.9 0.3 2
0.9 0.3 0
1.1 0.3 2
1.1 0.3 0
1.3 0.3 2
1.3 0.3 0
1.5 0.3 2
1.5 0.3 0
1.7 0.3 2
1.7 0.3 0
1.9 0.3 2
1.9 0.3 0
0 0.5 1.9
2 0.5 1.9
0 0.5 1.7
2 0.5 1.7
0 0.5 1.5
2 0.5 1.5
0 0.5 1.3
2 0.5 1.3
0 0.5 1.1
2 0.5 1.1
0 0.5 0.9
2 0.5 0.9
0 0.5 0.7
2 0.5 0.7
0 0.5 0.5
2 0.5 0.5
0 0.5 0.3
2 0.5 0.3
0 0.5 0.1
2 0.5 0.1
0.1 0.7 2
0.1 0.7 0
0.3 0.7 2
0.3 0.7 0
0.5 0.7 2
0.5 0.7 0
0.7 0.7 2
0.7 0.7 0
0.9 0.7 2
0.9 0.7 0
1.1 0.7 2
1.1 0.7 0
1.3 0.7 2
1.3 0.7 0
1.5 0.7 2
1.5 0.7 0
1.7 0.7 2
1.7 0.7 0
1.9 0.7 2
1.9 0.7 0
0 0.9 1.9
2 0.9 1.9
0 0.9 1.7
2 0.9 1.7
0 0.9 1.5
2 0.9 1.5
0 0.9 1.3
2 0.9 1.3
0 0.9 1.1
2 0.9 1.1
0 0.9 0.9
2 0.9 0.9
0 0.9 0.7
2 0.9 0.7
0 0.9 0.5
2 0.9 0.5
0 0.9 0.3
2 0.9 0.3
0 0.9 0.1
2 0.9 0.1
0.1 1.1 2
0.1 1.1 0
0.3 1.1 2
0.3 1.1 0
0.5 1.1 2
0.5 1.1 0
0.7 1.1 2
0.7 1.1 0
0.9 1.1 2
0.9 1.1 0
1.1 1.1 2
1.1 1.1 0
1.3 1.1 2
1.3 1.1 0
1.5 1.1 2
1.5 1.1 0
1.7 1.1 2
1.7 1.1 0
1.9 1.1 2
1.9 1.1 0
0 1.3 1.9
2 1.3 1.9
0 1.3 1.7
2 1.3 1.7
0 1.3 1.5
2 1.3 1.5
0 1.3 1.3
2 1.3 1.3
0 1.3 1.1
2 1.3 1.1
0 1.3 0.9
2 1.3 0.9
0 1.3 0.7
2 1.3 0.7
0 1.3 0.5
2 1.3 0.5
0 1.3 0.3
2 1.3 0.3
0 1.3 0.1
2 1.3 0.1
0.1 1.5 2
0.1 1.5 0
0.3 1.5 2
0.3 1.5 0
0.5 1.5 2
0.5 1.5 0
0.7 1.5 2
0.7 1.5 0
0.9 1.5 2
0.9 1.5 0
1.1 1.5 2
1.1 1.5 0
1.3 1.5 2
1.3 1.5 0
1.5 1.5 2
1.5 1.5 0
1.7 1.5 2
1.7 1.5 0
1.9 1.5 2
1.9 1.5 0
0 1.7 1.9
2 1.7 1.9
0 1.7 1.7
2 1.7 1.7
0 1.7 1.5
2 1.7 1.5
0 1.7 1.3
2 1.7 1.3
0 1.7 1.1
2 1.7 1.1
0 1.7 0.9
2 1.7 0.9
0 1.7 0.7
2 1.7 0.7
0 1.7 0.5
2 1.7 0.5
0 1.7 0.3
2 1.7 0.3
0 1.7 0.1
2 1.7 0.1
LINES 858 2574
2 0 1
2 1 2
2 2 3
2 3 0
2 4 5
2 5 6
2 6 7
2 7 4
2 0 4
2 1 5
2 2 6
2 3 7
2 8 9
2 9 10
2 10 11
2 11 8
2 12 13
2 13 14
2 14 15
2 15 12
2 8 12
2 9 13
2 10 14
2 11 15
2 16 17
2 17 18
2 18 19
2 19 16
2 20 21
2 21 22
2 22 23
2 23 20
2 16 20
2 17 21
2 18 22
2 19 23
2 24 25
2 25 26
2 26 27
2 27 24
2 28 29
2 29 30
2 30 31
2 31 28
2 24 28
2 25 29
2 26 30
2 27 31
2 32 33
2 33 34
2 34 35
2 35 32
2 36 37
2 37 38
2 38 39
2 39 36
2 32 36
2 33 37
2 34 38
2 35 39
2 40 41
2 41 42
2 42 43
2 43 40
2 44 45
2 45 46
2 46 47
2 47 44
2 40 44
2 41 45
2 42 46
2 43 47
2 48 49
2 49 50
2 50 51
2 51 48
2 52 53
2 53 54
2 54 55
2 55 52
2 48 52
2 49 53
2 50 54
2 51 55
2 56 57
2 57 58
2 58 59
2 59 56
2 60 61
2 61 62
2 62 63
2 63 60
2 56 60
2 57 61
2 58 62
2 59 63
2 64 65
2 65 66
2 66 67
2 67 64
2 68 69
2 69 70
2 70 71
2 71 68
2 64 68
2 65 69
2 66 70
2 67 71
2 72 73
2 73 74
2 74 75
2 75 72
2 76 77
2 77 78
2 78 79
2 79 76
2 72 76
2 73 77
2 74 78
2 75 79
2 80 81
2 81 82
2 82 83
2 83 80
2 84 85
2 85 86
2 86 87
2 87 84
2 80 84
2 81 85
2 82 86
2 83 87
2 88 89
2 89 90
2 90 91
2 91 88
2 92 93
2 93 94
2 94 95
2 95 92
2 88 92
2 89 93
2 90 94
2 91 95
2 96 97
2 97 98
2 98 99
2 99 96
2 100 101
2 101 102
2 102 103
2 103 100
2 96 100
2 97 101
2 98 102
2 99 103
2 104 105
2 105 106
2 106 107
2 107 104
2 108 109
2 109 110
2 110 111
2 111 108
2 104 108
2 105 109
2 106 110
2 107 111
2 112 113
2 113 114
2 114 115
2 115 112
2 116 117
2 117 118
2 118 119
2 119 116
2 112 116
2 113 117
2 114 118
2 115 119
2 120 121
2 121 122
2 122 123
2 123 120
2 124 125
2 125 126
2 126 127
2 127 124
2 120 124
2 121 125
2 122 126
2 123 127
2 128 129
2 129 130
2 130 131
2 131 128
2 132 133
2 133 134
2 134 135
2 135 132
2 128 132
2 129 133
2 130 134
2 131 135
2 136 137
2 137 138
2 138 139
2 139 136
2 140 141
2 141 142
2 142 143
2 143 140
2 136 140
2 137 141
2 138 142
2 139 143
2 144 145
2 145 146
2 146 147
2 147 144
2 148 149
2 149 150
2 150 151
2 151 148
2 144 148
2 145 149
2 146 150
2 147 151
2 152 153
2 153 154
2 154 155
2 155 152
2 156 157
2 157 158
2 158 159
2 159 156
2 152 156
2 153 157
2 154 158
2 155 159
2 160 161
2 161 162
2 162 163
2 163 160
2 164 165
2 165 166
2 166 167
2 167 164
2 160 164
2 161 165
2 162 166
2 163 167
2 168 169
2 169 170
2 170 171
2 171 168
2 172 173
2 173 174
2 174 175
2 175 172
2 168 172
2 169 173
2 170 174
2 171 175
2 176 177
2 177 178
2 178 179
2 179 176
2 180 181
2 181 182
2 182 183
2 183 180
2 176 180
2 177 181
2 178 182
2 179 183
2 184 185
2 185 186
2 186 187
2 187 184
2 188 189
2 189 190
2 190 191
2 191 188
2 184 188
2 185 189
2 186 190
2 187 191
2 192 193
2 193 194
2 194 195
2 195 192
2 196 197
2 197 198
2 198 199
2 199 196
2 192 196
2 193 197
2 194 198
2 195 199
2 200 201
2 201 202
2 202 203
2 203 200
2 204 205
2 205 206
2 206 207
2 207 204
2 200 204
2 201 205
2 202 206
2 203 207
2 208 209
2 209 210
2 210 211
2 211 208
2 212 213
2 213 214
2 214 215
2 215 212
2 208 212
2 209 213
2 210 214
2 211 215
2 216 217
2 217 218
2 218 219
2 219 216
2 220 221
2 221 222
2 222 223
2 223 220
2 216 220
2 217 221
2 218 222
2 219 223
2 224 225
2 225 226
2 226 227
2 227 224
2 228 229
2 229 230
2 230 231
2 231 228
2 224 228
2 225 229
2 226 230
2 227 231
2 232 233
2 233 234
2 234 235
2 235 232
2 236 237
2 237 238
2 238 239
2 239 236
2 232 236
2 233 237
2 234 238
2 235 239
2 240 241
2 241 242
2 242 243
2 243 240
2 244 245
2 245 246
2 246 247
2 247 244
2 240 244
2 241 245
2 242 246
2 243 247
2 248 249
2 249 250
2 250 251
2 251 248
2 252 253
2 253 254
2 254 255
2 255 252
2 248 252
2 249 253
2 250 254
2 251 255
2 256 257
2 257 258
2 258 259
2 259 256
2 260 261
2 261 262
2 262 263
2 263 260
2 256 260
2 257 261
2 258 262
2 259 263
2 264 265
2 265 266
2 266 267
2 267 264
2 268 269
2 269 270
2 270 271
2 271 268
2 264 268
2 265 269
2 266 270
2 267 271
2 272 273
2 273 274
2 274 275
2 275 272
2 276 277
2 277 278
2 278 279
2 279 276
2 272 276
2 273 277
2 274 278
2 275 279
2 280 281
2 281 282
2 282 283
2 283 280
2 284 285
2 285 286
2 286 287
2 287 284
2 280 284
2 281 285
2 282 286
2 283 287
2 288 289
2 289 290
2 290 291
2 291 288
2 292 293
2 293 294
2 294 295
2 295 292
2 288 292
2 289 293
2 290 294
2 291 295
2 296 297
2 297 298
2 298 299
2 299 296
2 300 301
2 301 302
2 302 303
2 303 300
2 296 300
2 297 301
2 298 302
2 299 303
2 304 305
2 305 306
2 306 307
2 307 304
2 308 309
2 309 310
2 310 311
2 311 308
2 304 308
2 305 309
2 306 310
2 307 311
2 312 313
2 313 314
2 314 315
2 315 312
2 316 317
2 317 318
2 318 319
2 319 316
2 312 316
2 313 317
2 314 318
2 315 319
2 320 321
2 321 322
2 322 323
2 323 320
2 324 325
2 325 326
2 326 327
2 327 324
2 320 324
2 321 325
2 322 326
2 323 327
2 328 329
2 329 330
2 330 331
2 331 328
2 332 333
2 333 334
2 334 335
2 335 332
2 328 332
2 329 333
2 330 334
2 331 335
2 336 337
2 337 338
2 338 339
2 339 336
2 340 341
2 341 342
2 342 343
2 343 340
2 336 340
2 337 341
2 338 342
2 339 343
2 344 345
2 345 346
2 346 347
2 347 344
2 348 349
2 349 350
2 350 351
2 351 348
2 344 348
2 345 349
2 346 350
2 347 351
2 352 353
2 353 354
2 354 355
2 355 352
2 356 357
2 357 358
2 358 359
2 359 356
2 352 356
2 353 357
2 354 358
2 355 359
2 360 361
2 361 362
2 362 363
2 363 360
2 364 365
2 365 366
2 366 367
2 367 364
2 360 364
2 361 365
2 362 366
2 363 367
2 368 369
2 369 370
2 370 371
2 371 368
2 372 373
2 373 374
2 374 375
2 375 372
2 368 372
2 369 373
2 370 374
2 371 375
2 376 377
2 377 378
2 378 379
2 379 376
2 380 381
2 381 382
2 382 383
2 383 380
2 376 380
2 377 381
2 378 382
2 379 383
2 384 385
2 385 386
2 386 387
2 387 384
2 388 389
2 389 390
2 390 391
2 391 388
2 384 388
2 385 389
2 386 390
2 387 391
2 392 393
2 393 394
2 394 395
2 395 392
2 396 397
2 397 398
2 398 399
2 399 396
2 392 396
2 393 397
2 394 398
2 395 399
2 400 401
2 401 402
2 402 403
2 403 400
2 404 405
2 405 406
2 406 407
2 407 404
2 400 404
2 401 405
2 402 406
2 403 407
2 408 409
2 409 410
2 410 411
2 411 408
2 412 413
2 413 414
2 414 415
2 415 412
2 408 412
2 409 413
2 410 414
2 411 415
2 416 417
2 417 418
2 418 419
2 419 416
2 420 421
2 421 422
2 422 423
2 423 420
2 416 420
2 417 421
2 418 422
2 419 423
2 424 425
2 425 426
2 426 427
2 427 424
2 428 429
2 429 430
2 430 431
2 431 428
2 424 428
2 425 429
2 426 430
2 427 431
2 432 433
2 433 434
2 434 435
2 435 432
2 436 437
2 437 438
2 438 439
2 439 436
2 432 436
2 433 437
2 434 438
2 435 439
2 440 441
2 441 442
2 442 443
2 443 440
2 444 445
2 445 446
2 446 447
2 447 444
2 440 444
2 441 445
2 442 446
2 443 447
2 448 449
2 449 450
2 450 451
2 451 448
2 452 453
2 453 454
2 454 455
2 455 452
2 448 452
2 449 453
2 450 454
2 451 455
2 456 457
2 457 458
2 458 459
2 459 456
2 460 461
2 461 462
2 462 463
2 463 460
2 456 460
2 457 461
2 458 462
2 459 463
2 464 465
2 465 466
2 466 467
2 467 464
2 468 469
2 469 470
2 470 471
2 471 468
2 464 468
2 465 469
2 466 470
2 467 471
2 472 473
2 473 474
2 474 475
2 475 472
2 476 477
2 477 478
2 478 479
2 479 476
2 472 476
2 473 477
2 474 478
2 475 479
2 480 481
2 481 482
2 482 483
2 483 480
2 484 485
2 485 486
2 486 487
2 487 484
2 480 484
2 481 485
2 482 486
2 483 487
2 488 489
2 489 490
2 490 491
2 491 488
2 492 493
2 493 494
2 494 495
2 495 492
2 488 492
2 489 493
2 490 494
2 491 495
2 496 497
2 497 498
2 498 499
2 499 496
2 500 501
2 501 502
2 502 503
2 503 500
2 496 500
2 497 501
2 498 502
2 499 503
2 504 505
2 505 506
2 506 507
2 507 504
2 508 509
2 509 510
2 510 511
2 511 508
2 504 508
2 505 509
2 506 510
2 507 511
2 512 513
2 514 515
2 516 517
2 518 519
2 520 521
2 522 523
2 524 525
2 526 527
2 528 529
2 530 531
2 532 533
2 534 535
2 536 537
2 538 539
2 540 541
2 542 543
2 544 545
2 546 547
2 548 549
2 550 551
2 552 553
2 554 555
2 556 557
2 558 559
2 560 561
2 562 563
2 564 565
2 566 567
2 568 569
2 570 571
2 572 573
2 574 575
2 576 577
2 578 579
2 580 581
2 582 583
2 584 585
2 586 587
2 588 589
2 590 591
2 592 593
2 594 595
2 596 597
2 598 599
2 600 601
2 602 603
2 604 605
2 606 607
2 608 609
2 610 611
2 612 613
2 614 615
2 616 617
2 618 619
2 620 621
2 622 623
2 624 625
2 626 627
2 628 629
2 630 631
2 632 633
2 634 635
2 636 637
2 638 639
2 640 641
2 642 643
2 644 645
2 646 647
2 648 649
2 650 651
2 652 653
2 654 655
2 656 657
2 658 659
2 660 661
2 662 663
2 664 665
2 666 667
2 668 669
2 670 671
2 672 673
2 674 675
2 676 677
2 678 679
2 680 681
2 682 683
2 684 685
2 686 687
2 688 689
2 690 691
CELL_DATA 858
SCALARS host_volume_fraction float 1
LOOKUP_TABLE default
0.753982237239
0.753982237239
0.753982237239
0.753982237239
0.753982237239
0.753982237239
0.753982237239
0.753982237239
0.753982237239
0.753982237239
0.753982237239
0.753982237239
0.879645943696
0.879645943696
0.879645943696
0.879645943696
0.879645943696
0.879645943696
0.879645943696
0.879645943696
0.879645943696
0.879645943696
0.879645943696
0.879645943696
0.75398223749
0.75398223749
0.75398223749
0.75398223749
0.75398223749
0.75398223749
0.75398223749
0.75398223749
0.75398223749
0.75398223749
0.75398223749
0.75398223749
0.879645943445
0.879645943445
0.879645943445
0.879645943445
0.879645943445
0.879645943445
0.879645943445
0.879645943445
0.879645943445
0.879645943445
0.879645943445
0.879645943445
0.753982237239
0.753982237239
0.753982237239
0.753982237239
0.753982237239
0.753982237239
0.753982237239
0.753982237239
0.753982237239
0.753982237239
0.753982237239
0.753982237239
0.879645943696
0.879645943696
0.879645943696
0.879645943696
0.879645943696
0.879645943696
0.879645943696
0.879645943696
0.879645943696
0.879645943696
0.879645943696
0.879645943696
0.75398223749
0.75398223749
0.75398223749
0.75398223749
0.75398223749
0.75398223749
0.75398223749
0.75398223749
0.75398223749
0.75398223749
0.75398223749
0.75398223749
0.879645943445
0.879645943445
0.879645943445
0.879645943445
0.879645943445
0.879645943445
0.879645943445
0.879645943445
0.879645943445
0.879645943445
0.879645943445
0.879645943445
0.502654824826
0.502654824826
0.502654824826
0.502654824826
0.502654824826
0.502654824826
0.502654824826
0.502654824826
0.502654824826
0.502654824826
0.502654824826
0.502654824826
0.628318531158
0.628318531158
0.628318531158
0.628318531158
0.628318531158
0.628318531158
0.628318531158
0.628318531158
0.628318531158
0.628318531158
0.628318531158
0.628318531158
0.502654824951
0.502654824951
0.502654824951
0.502654824951
0.502654824951
0.502654824951
0.502654824951
0.502654824951
0.502654824951
0.502654824951
0.502654824951
0.502654824951
0.628318531032
0.628318531032
0.628318531032
0.628318531032
0.628318531032
0.628318531032
0.628318531032
0.628318531032
0.628318531032
0.628318531032
0.628318531032
0.628318531032
0.502654824826
0.502654824826
0.502654824826
0.502654824826
0.502654824826
0.502654824826
0.502654824826
0.502654824826
0.502654824826
0.502654824826
0.502654824826
0.502654824826
0.628318531158
0.628318531158
0.628318531158
0.628318531158
0.628318531158
0.628318531158
0.628318531158
0.628318531158
0.628318531158
0.628318531158
0.628318531158
0.628318531158
0.502654824951
0.502654824951
0.502654824951
0.502654824951
0.502654824951
0.502654824951
0.502654824951
0.502654824951
0.502654824951
0.502654824951
0.502654824951
0.502654824951
0.628318531032
0.628318531032
0.628318531032
0.628318531032
0.628318531032
0.628318531032
0.628318531032
0.628318531032
0.628318531032
0.628318531032
0.628318531032
0.628318531032
1.00530964978
1.00530964978
1.00530964978
1.00530964978
1.00530964978
1.00530964978
1.00530964978
1.00530964978
1.00530964978
1.00530964978
1.00530964978
1.00530964978
1.13097335642
1.13097335642
1.13097335642
1.13097335642
1.13097335642
1.13097335642
1.13097335642
1.13097335642
1.13097335642
1.13097335642
1.13097335642
1.13097335642
1.00530965015
1.00530965015
1.00530965015
1.00530965015
1.00530965015
1.00530965015
1.00530965015
1.00530965015
1.00530965015
1.00530965015
1.00530965015
1.00530965015
1.13097335605
1.13097335605
1.13097335605
1.13097335605
1.13097335605
1.13097335605
1.13097335605
1.13097335605
1.13097335605
1.13097335605
1.13097335605
1.13097335605
1.00530964978
1.00530964978
1.00530964978
1.00530964978
1.00530964978
1.00530964978
1.00530964978
1.00530964978
1.00530964978
1.00530964978
1.00530964978
1.00530964978
1.13097335642
1.13097335642
1.13097335642
1.13097335642
1.13097335642
1.13097335642
1.13097335642
1.13097335642
1.13097335642
1.13097335642
1.13097335642
1.13097335642
1.00530965015
1.00530965015
1.00530965015
1.00530965015
1.00530965015
1.00530965015
1.00530965015
1.00530965015
1.00530965015
1.00530965015
1.00530965015
1.00530965015
1.13097335605
1.13097335605
1.13097335605
1.13097335605
1.13097335605
1.13097335605
1.13097335605
1.13097335605
1.13097335605
1.13097335605
1.13097335605
1.13097335605
0.628318531158
0.628318531158
0.628318531158
0.628318531158
0.628318531158
0.628318531158
0.628318531158
0.628318531158
0.628318531158
0.628318531158
0.628318531158
0.628318531158
0.753982237616
0.753982237616
0.753982237616
0.753982237616
0.753982237616
0.753982237616
0.753982237616
0.753982237616
0.753982237616
0.753982237616
0.753982237616
0.753982237616
0.628318531346
0.628318531346
0.628318531346
0.628318531346
0.628318531346
0.628318531346
0.628318531346
0.628318531346
0.628318531346
0.628318531346
0.628318531346
0.628318531346
0.753982237427
0.753982237427
0.753982237427
0.753982237427
0.753982237427
0.753982237427
0.753982237427
0.753982237427
0.753982237427
0.753982237427
0.753982237427
0.753982237427
0.628318531158
0.628318531158
0.628318531158
0.628318531158
0.628318531158
0.628318531158
0.628318531158
0.628318531158
0.628318531158
0.628318531158
0.628318531158
0.628318531158
0.753982237616
0.753982237616
0.753982237616
0.753982237616
0.753982237616
0.753982237616
0.753982237616
0.753982237616
0.753982237616
0.753982237616
0.753982237616
0.753982237616
0.628318531346
0.628318531346
0.628318531346
0.628318531346
0.628318531346
0.628318531346
0.628318531346
0.628318531346
0.628318531346
0.628318531346
0.628318531346
0.628318531346
0.753982237427
0.753982237427
0.753982237427
0.753982237427
0.753982237427
0.753982237427
0.753982237427
0.753982237427
0.753982237427
0.753982237427
0.753982237427
0.753982237427
1.00530964978
1.00530964978
1.00530964978
1.00530964978
1.00530964978
1.00530964978
1.00530964978
1.00530964978
1.00530964978
1.00530964978
1.00530964978
1.00530964978
1.13097335642
1.13097335642
1.13097335642
1.13097335642
1.13097335642
1.13097335642
1.13097335642
1.13097335642
1.13097335642
1.13097335642
1.13097335642
1.13097335642
1.00530965015
1.00530965015
1.00530965015
1.00530965015
1.00530965015
1.00530965015
1.00530965015
1.00530965015
1.00530965015
1.00530965015
1.00530965015
1.00530965015
1.13097335605
1.13097335605
1.13097335605
1.13097335605
1.13097335605
1.13097335605
1.13097335605
1.13097335605
1.13097335605
1.13097335605
1.13097335605
1.13097335605
1.00530964978
1.00530964978
1.00530964978
1.00530964978
1.00530964978
1.00530964978
1.00530964978
1.00530964978
1.00530964978
1.00530964978
1.00530964978
1.00530964978
1.13097335642
1.13097335642
1.13097335642
1.13097335642
1.13097335642
1.13097335642
1.13097335642
1.13097335642
1.13097335642
1.13097335642
1.13097335642
1.13097335642
1.00530965015
1.00530965015
1.00530965015
1.00530965015
1.00530965015
1.00530965015
1.00530965015
1.00530965015
1.00530965015
1.00530965015
1.00530965015
1.00530965015
1.13097335605
1.13097335605
1.13097335605
1.13097335605
1.13097335605
1.13097335605
1.13097335605
1.13097335605
1.13097335605
1.13097335605
1.13097335605
1.13097335605
0.628318531158
0.628318531158
0.628318531158
0.628318531158
0.628318531158
0.628318531158
0.628318531158
0.628318531158
0.628318531158
0.628318531158
0.628318531158
0.628318531158
0.753982237616
0.753982237616
0.753982237616
0.753982237616
0.753982237616
0.753982237616
0.753982237616
0.753982237616
0.753982237616
0.753982237616
0.753982237616
0.753982237616
0.628318531346
0.628318531346
0.628318531346
0.628318531346
0.628318531346
0.628318531346
0.628318531346
0.628318531346
0.628318531346
0.628318531346
0.628318531346
0.628318531346
0.753982237427
0.753982237427
0.753982237427
0.753982237427
0.753982237427
0.753982237427
0.753982237427
0.753982237427
0.753982237427
0.753982237427
0.753982237427
0.753982237427
0.628318531158
0.628318531158
0.628318531158
0.628318531158
0.628318531158
0.628318531158
0.628318531158
0.628318531158
0.628318531158
0.628318531158
0.628318531158
0.628318531158
0.753982237616
0.753982237616
0.753982237616
0.753982237616
0.753982237616
0.753982237616
0.753982237616
0.753982237616
0.753982237616
0.753982237616
0.753982237616
0.753982237616
0.628318531346
0.628318531346
0.628318531346
0.628318531346
0.628318531346
0.628318531346
0.628318531346
0.628318531346
0.628318531346
0.628318531346
0.628318531346
0.628318531346
0.753982237427
0.753982237427
0.753982237427
0.753982237427
0.753982237427
0.753982237427
0.753982237427
0.753982237427
0.753982237427
0.753982237427
0.753982237427
0.753982237427
1.00530964965
1.00530964965
1.00530964965
1.00530964965
1.00530964965
1.00530964965
1.00530964965
1.00530964965
1.00530964965
1.00530964965
1.00530964965
1.00530964965
1.13097335623
1.13097335623
1.13097335623
1.13097335623
1.13097335623
1.13097335623
1.13097335623
1.13097335623
1.13097335623
1.13097335623
1.13097335623
1.13097335623
1.00530965003
1.00530965003
1.00530965003
1.00530965003
1.00530965003
1.00530965003
1.00530965003
1.00530965003
1.00530965003
1.00530965003
1.00530965003
1.00530965003
1.13097335586
1.13097335586
1.13097335586
1.13097335586
1.13097335586
1.13097335586
1.13097335586
1.13097335586
1.13097335586
1.13097335586
1.13097335586
1.13097335586
1.00530964965
1.00530964965
1.00530964965
1.00530964965
1.00530964965
1.00530964965
1.00530964965
1.00530964965
1.00530964965
1.00530964965
1.00530964965
1.00530964965
1.13097335623
1.13097335623
1.13097335623
1.13097335623
1.13097335623
1.13097335623
1.13097335623
1.13097335623
1.13097335623
1.13097335623
1.13097335623
1.13097335623
1.00530965003
1.00530965003
1.00530965003
1.00530965003
1.00530965003
1.00530965003
1.00530965003
1.00530965003
1.00530965003
1.00530965003
1.00530965003
1.00530965003
1.13097335586
1.13097335586
1.13097335586
1.13097335586
1.13097335586
1.13097335586
1.13097335586
1.13097335586
1.13097335586
1.13097335586
1.13097335586
1.13097335586
0.628318531032
0.628318531032
0.628318531032
0.628318531032
0.628318531032
0.628318531032
0.628318531032
0.628318531032
0.628318531032
0.628318531032
0.628318531032
0.628318531032
0.753982237427
0.753982237427
0.753982237427
0.753982237427
0.753982237427
0.753982237427
0.753982237427
0.753982237427
0.753982237427
0.753982237427
0.753982237427
0.753982237427
0.628318531221
0.628318531221
0.628318531221
0.628318531221
0.628318531221
0.628318531221
0.628318531221
0.628318531221
0.628318531221
0.628318531221
0.628318531221
0.628318531221
0.753982237239
0.753982237239
0.753982237239
0.753982237239
0.753982237239
0.753982237239
0.753982237239
0.753982237239
0.753982237239
0.753982237239
0.753982237239
0.753982237239
0.628318531032
0.628318531032
0.628318531032
0.628318531032
0.628318531032
0.628318531032
0.628318531032
0.628318531032
0.628318531032
0.628318531032
0.628318531032
0.628318531032
0.753982237427
0.753982237427
0.753982237427
0.753982237427
0.753982237427
0.753982237427
0.753982237427
0.753982237427
0.753982237427
0.753982237427
0.753982237427
0.753982237427
0.628318531221
0.628318531221
0.628318531221
0.628318531221
0.628318531221
0.628318531221
0.628318531221
0.628318531221
0.628318531221
0.628318531221
0.628318531221
0.628318531221
0.753982237239
0.753982237239
0.753982237239
0.753982237239
0.753982237239
0.753982237239
0.753982237239
0.753982237239
0.753982237239
0.753982237239
0.753982237239
0.753982237239
-1
-1
-1
-1
-1
-1
-1
-1
-1
-1
-1
-1
-1
-1
-1
-1
-1
-1
-1
-1
-1
-1
-1
-1
-1
-1
-1
-1
-1
-1
-1
-1
-1
-1
-1
-1
-1
-1
-1
-1
-1
-1
-1
-1
-1
-1
-1
-1
-1
-1
-1
-1
-1
-1
-1
-1
-1
-1
-1
-1
-1
-1
-1
-1
-1
-1
-1
-1
-1
-1
-1
-1
-1
-1
-1
-1
-1
-1
-1
-1
-1
-1
-1
-1
-1
-1
-1
-1
-1
-1
