# vtk DataFile Version 3.0
embmesh fibers
ASCII
DATASET POLYDATA
POINTS 100 float
0 0.15 0.15
3 0.15 0.15
0 0.45 0.15
3 0.45 0.15
0 0.75 0.15
3 0.75 0.15
0 1.05 0.15
3 1.05 0.15
0 1.35 0.15
3 1.35 0.15
0 1.65 0.15
3 1.65 0.15
0 1.95 0.15
3 1.95 0.15
0 2.25 0.15
3 2.25 0.15
0 2.55 0.15
3 2.55 0.15
0 2.85 0.15
3 2.85 0.15
0.15 -2.22045e-16 0.45
0.15 3 0.45
0.45 -2.22045e-16 0.45
0.45 3 0.45
0.75 -2.22045e-16 0.45
0.75 3 0.45
1.05 -2.22045e-16 0.45
1.05 3 0.45
1.35 -2.22045e-16 0.45
1.35 3 0.45
1.65 -2.22045e-16 0.45
1.65 3 0.45
1.95 -2.22045e-16 0.45
1.95 3 0.45
2.25 -2.22045e-16 0.45
2.25 3 0.45
2.55 -2.22045e-16 0.45
2.55 3 0.45
2.85 -2.22045e-16 0.45
2.85 3 0.45
0 0.15 0.75
3 0.15 0.75
0 0.45 0.75
3 0.45 0.75
0 0.75 0.75
3 0.75 0.75
0 1.05 0.75
3 1.05 0.75
0 1.35 0.75
3 1.35 0.75
0 1.65 0.75
3 1.65 0.75
0 1.95 0.75
3 1.95 0.75
0 2.25 0.75
3 2.25 0.75
0 2.55 0.75
3 2.55 0.75
0 2.85 0.75
3 2.85 0.75
0.15 -2.22045e-16 1.05
0.15 3 1.05
0.45 -2.22045e-16 1.05
0.45 3 1.05
0.75 -2.22045e-16 1.05
0.75 3 1.05
1.05 -2.22045e-16 1.05
1.05 3 1.05
1.35 -2.22045e-16 1.05
1.35 3 1.05
1.65 -2.22045e-16 1.05
1.65 3 1.05
1.95 -2.22045e-16 1.05
1.95 3 1.05
2.25 -2.22045e-16 1.05
2.25 3 1.05
2.55 -2.22045e-16 1.05
2.55 3 1.05
2.85 -2.22045e-16 1.05
2.85 3 1.05
0 0.15 1.35
3 0.15 1.35
0 0.45 1.35
3 0.45 1.35
0 0.75 1.35
3 0.75 1.35
0 1.05 1.35
3 1.05 1.35
0 1.35 1.35
3 1.35 1.35
0 1.65 1.35
3 1.65 1.35
0 1.95 1.35
3 1.95 1.35
0 2.25 1.35
3 2.25 1.35
0 2.55 1.35
3 2.55 1.35
0 2.85 1.35
3 2.85 1.35
LINES 50 150
2 0 1
2 2 3
2 4 5
2 6 7
2 8 9
2 10 11
2 12 13
2 14 15
2 16 17
2 18 19
2 20 21
2 22 23
2 24 25
2 26 27
2 28 29
2 30 31
2 32 33
2 34 35
2 36 37
2 38 39
2 40 41
2 42 43
2 44 45
2 46 47
2 48 49
2 50 51
2 52 53
2 54 55
2 56 57
2 58 59
2 60 61
2 62 63
2 64 65
2 66 67
2 68 69
2 70 71
2 72 73
2 74 75
2 76 77
2 78 79
2 80 81
2 82 83
2 84 85
2 86 87
2 88 89
2 90 91
2 92 93
2 94 95
2 96 97
2 98 99
