# vtk DataFile Version 3.0
embmesh host/fiber visualization
ASCII
DATASET POLYDATA
POINTS 96 float
0 0 0
0.5 0 0
0.5 0.5 0
0 0.5 0
0 0 0.5
0.5 0 0.5
0.5 0.5 0.5
0 0.5 0.5
0.5 0 0
1 0 0
1 0.5 0
0.5 0.5 0
0.5 0 0.5
1 0 0.5
1 0.5 0.5
0.5 0.5 0.5
0 0.5 0
0.5 0.5 0
0.5 1 0
0 1 0
0 0.5 0.5
0.5 0.5 0.5
0.5 1 0.5
0 1 0.5
0.5 0.5 0
1 0.5 0
1 1 0
0.5 1 0
0.5 0.5 0.5
1 0.5 0.5
1 1 0.5
0.5 1 0.5
0 0 0.5
0.5 0 0.5
0.5 0.5 0.5
0 0.5 0.5
0 0 1
0.5 0 1
0.5 0.5 1
0 0.5 1
0.5 0 0.5
1 0 0.5
1 0.5 0.5
0.5 0.5 0.5
0.5 0 1
1 0 1
1 0.5 1
0.5 0.5 1
0 0.5 0.5
0.5 0.5 0.5
0.5 1 0.5
0 1 0.5
0 0.5 1
0.5 0.5 1
0.5 1 1
0 1 1
0.5 0.5 0.5
1 0.5 0.5
1 1 0.5
0.5 1 0.5
0.5 0.5 1
1 0.5 1
1 1 1
0.5 1 1
0 0.125 0.125
1 0.125 0.125
0 0.375 0.125
1 0.375 0.125
0 0.625 0.125
1 0.625 0.125
0 0.875 0.125
1 0.875 0.125
0.125 0 0.375
0.125 1 0.375
0.375 0 0.375
0.375 1 0.375
0.625 0 0.375
0.625 1 0.375
0.875 0 0.375
0.875 1 0.375
0 0.125 0.625
1 0.125 0.625
0 0.375 0.625
1 0.375 0.625
0 0.625 0.625
1 0.625 0.625
0 0.875 0.625
1 0.875 0.625
0.125 0 0.875
0.125 1 0.875
0.375 0 0.875
0.375 1 0.875
0.625 0 0.875
0.625 1 0.875
0.875 0 0.875
0.875 1 0.875
LINES 112 336
2 0 1
2 1 2
2 2 3
2 3 0
2 4 5
2 5 6
2 6 7
2 7 4
2 0 4
2 1 5
2 2 6
2 3 7
2 8 9
2 9 10
2 10 11
2 11 8
2 12 13
2 13 14
2 14 15
2 15 12
2 8 12
2 9 13
2 10 14
2 11 15
2 16 17
2 17 18
2 18 19
2 19 16
2 20 21
2 21 22
2 22 23
2 23 20
2 16 20
2 17 21
2 18 22
2 19 23
2 24 25
2 25 26
2 26 27
2 27 24
2 28 29
2 29 30
2 30 31
2 31 28
2 24 28
2 25 29
2 26 30
2 27 31
2 32 33
2 33 34
2 34 35
2 35 32
2 36 37
2 37 38
2 38 39
2 39 36
2 32 36
2 33 37
2 34 38
2 35 39
2 40 41
2 41 42
2 42 43
2 43 40
2 44 45
2 45 46
2 46 47
2 47 44
2 40 44
2 41 45
2 42 46
2 43 47
2 48 49
2 49 50
2 50 51
2 51 48
2 52 53
2 53 54
2 54 55
2 55 52
2 48 52
2 49 53
2 50 54
2 51 55
2 56 57
2 57 58
2 58 59
2 59 56
2 60 61
2 61 62
2 62 63
2 63 60
2 56 60
2 57 61
2 58 62
2 59 63
2 64 65
2 66 67
2 68 69
2 70 71
2 72 73
2 74 75
2 76 77
2 78 79
2 80 81
2 82 83
2 84 85
2 86 87
2 88 89
2 90 91
2 92 93
2 94 95
CELL_DATA 112
SCALARS host_volume_fraction float 1
LOOKUP_TABLE default
0.785398163397
0.785398163397
0.785398163397
0.785398163397
0.785398163397
0.785398163397
0.785398163397
0.785398163397
0.785398163397
0.785398163397
0.785398163397
0.785398163397
0.785398163397
0.785398163397
0.785398163397
0.785398163397
0.785398163397
0.785398163397
0.785398163397
0.785398163397
0.785398163397
0.785398163397
0.785398163397
0.785398163397
0.785398163397
0.785398163397
0.785398163397
0.785398163397
0.785398163397
0.785398163397
0.785398163397
0.785398163397
0.785398163397
0.785398163397
0.785398163397
0.785398163397
0.785398163397
0.785398163397
0.785398163397
0.785398163397
0.785398163397
0.785398163397
0.785398163397
0.785398163397
0.785398163397
0.785398163397
0.785398163397
0.785398163397
0.785398163397
0.785398163397
0.785398163397
0.785398163397
0.785398163397
0.785398163397
0.785398163397
0.785398163397
0.785398163397
0.785398163397
0.785398163397
0.785398163397
0.785398163397
0.785398163397
0.785398163397
0.785398163397
0.785398163397
0.785398163397
0.785398163397
0.785398163397
0.785398163397
0.785398163397
0.785398163397
0.785398163397
0.785398163397
0.785398163397
0.785398163397
0.785398163397
0.785398163397
0.785398163397
0.785398163397
0.785398163397
0.785398163397
0.785398163397
0.785398163397
0.785398163397
0.785398163397
0.785398163397
0.785398163397
0.785398163397
0.785398163397
0.785398163397
0.785398163397
0.785398163397
0.785398163397
0.785398163397
0.785398163397
0.785398163397
-1
-1
-1
-1
-1
-1
-1
-1
-1
-1
-1
-1
-1
-1
-1
-1
