# vtk DataFile Version 3.0
embmesh host/fiber visualization
ASCII
DATASET POLYDATA
POINTS 552 float
0 0 0
1 0 0
1 1 0
0 1 0
0 0 1
1 0 1
1 1 1
0 1 1
1 0 0
2 0 0
2 1 0
1 1 0
1 0 1
2 0 1
2 1 1
1 1 1
2 0 0
3 0 0
3 1 0
2 1 0
2 0 1
3 0 1
3 1 1
2 1 1
0 1 0
1 1 0
1 2 0
0 2 0
0 1 1
1 1 1
1 2 1
0 2 1
1 1 0
2 1 0
2 2 0
1 2 0
1 1 1
2 1 1
2 2 1
1 2 1
2 1 0
3 1 0
3 2 0
2 2 0
2 1 1
3 1 1
3 2 1
2 2 1
0 2 0
1 2 0
1 3 0
0 3 0
0 2 1
1 2 1
1 3 1
0 3 1
1 2 0
2 2 0
2 3 0
1 3 0
1 2 1
2 2 1
2 3 1
1 3 1
2 2 0
3 2 0
3 3 0
2 3 0
2 2 1
3 2 1
3 3 1
2 3 1
0 0 1
1 0 1
1 1 1
0 1 1
0 0 2
1 0 2
1 1 2
0 1 2
1 0 1
2 0 1
2 1 1
1 1 1
1 0 2
2 0 2
2 1 2
1 1 2
2 0 1
3 0 1
3 1 1
2 1 1
2 0 2
3 0 2
3 1 2
2 1 2
0 1 1
1 1 1
1 2 1
0 2 1
0 1 2
1 1 2
1 2 2
0 2 2
1 1 1
2 1 1
2 2 1
1 2 1
1 1 2
2 1 2
2 2 2
1 2 2
2 1 1
3 1 1
3 2 1
2 2 1
2 1 2
3 1 2
3 2 2
2 2 2
0 2 1
1 2 1
1 3 1
0 3 1
0 2 2
1 2 2
1 3 2
0 3 2
1 2 1
2 2 1
2 3 1
1 3 1
1 2 2
2 2 2
2 3 2
1 3 2
2 2 1
3 2 1
3 3 1
2 3 1
2 2 2
3 2 2
3 3 2
2 3 2
0 0 2
1 0 2
1 1 2
0 1 2
0 0 3
1 0 3
1 1 3
0 1 3
1 0 2
2 0 2
2 1 2
1 1 2
1 0 3
2 0 3
2 1 3
1 1 3
2 0 2
3 0 2
3 1 2
2 1 2
2 0 3
3 0 3
3 1 3
2 1 3
0 1 2
1 1 2
1 2 2
0 2 2
0 1 3
1 1 3
1 2 3
0 2 3
1 1 2
2 1 2
2 2 2
1 2 2
1 1 3
2 1 3
2 2 3
1 2 3
2 1 2
3 1 2
3 2 2
2 2 2
2 1 3
3 1 3
3 2 3
2 2 3
0 2 2
1 2 2
1 3 2
0 3 2
0 2 3
1 2 3
1 3 3
0 3 3
1 2 2
2 2 2
2 3 2
1 3 2
1 2 3
2 2 3
2 3 3
1 3 3
2 2 2
3 2 2
3 3 2
2 3 2
2 2 3
3 2 3
3 3 3
2 3 3
0 4.28786796564 1.5
3 4.28786796564 1.5
0 4.07573593129 1.71213203436
3 4.07573593129 1.71213203436
0 3.86360389693 1.92426406871
3 3.86360389693 1.92426406871
0 3.65147186258 2.13639610307
3 3.65147186258 2.13639610307
0 3.43933982822 2.34852813742
3 3.43933982822 2.34852813742
0 3.22720779386 2.56066017178
3 3.22720779386 2.56066017178
0 3.01507575951 2.77279220614
3 3.01507575951 2.77279220614
0 2.80294372515 2.98492424049
3 2.80294372515 2.98492424049
0 2.5908116908 3.19705627485
3 2.5908116908 3.19705627485
0 2.37867965644 3.4091883092
3 2.37867965644 3.4091883092
0 2.16654762208 3.62132034356
3 2.16654762208 3.62132034356
0 1.95441558773 3.83345237792
3 1.95441558773 3.83345237792
0 1.74228355337 4.04558441227
3 1.74228355337 4.04558441227
0 1.53015151902 4.25771644663
3 1.53015151902 4.25771644663
0.15 4.18180194847 1.18180194847
0.15 1.18180194847 4.18180194847
0.45 4.18180194847 1.18180194847
0.45 1.18180194847 4.18180194847
0.75 4.18180194847 1.18180194847
0.75 1.18180194847 4.18180194847
1.05 4.18180194847 1.18180194847
1.05 1.18180194847 4.18180194847
1.35 4.18180194847 1.18180194847
1.35 1.18180194847 4.18180194847
1.65 4.18180194847 1.18180194847
1.65 1.18180194847 4.18180194847
1.95 4.18180194847 1.18180194847
1.95 1.18180194847 4.18180194847
2.25 4.18180194847 1.18180194847
2.25 1.18180194847 4.18180194847
2.55 4.18180194847 1.18180194847
2.55 1.18180194847 4.18180194847
2.85 4.18180194847 1.18180194847
2.85 1.18180194847 4.18180194847
0 3.86360389693 1.07573593129
3 3.86360389693 1.07573593129
0 3.65147186258 1.28786796564
3 3.65147186258 1.28786796564
0 3.43933982822 1.5
3 3.43933982822 1.5
0 3.22720779386 1.71213203436
3 3.22720779386 1.71213203436
0 3.01507575951 1.92426406871
3 3.01507575951 1.92426406871
0 2.80294372515 2.13639610307
3 2.80294372515 2.13639610307
0 2.5908116908 2.34852813742
3 2.5908116908 2.34852813742
0 2.37867965644 2.56066017178
3 2.37867965644 2.56066017178
0 2.16654762208 2.77279220614
3 2.16654762208 2.77279220614
0 1.95441558773 2.98492424049
3 1.95441558773 2.98492424049
0 1.74228355337 3.19705627485
3 1.74228355337 3.19705627485
0 1.53015151902 3.4091883092
3 1.53015151902 3.4091883092
0 1.31801948466 3.62132034356
3 1.31801948466 3.62132034356
0 1.1058874503 3.83345237792
3 1.1058874503 3.83345237792
0.15 3.75753787975 0.757537879754
0.15 0.757537879754 3.75753787975
0.45 3.75753787975 0.757537879754
0.45 0.757537879754 3.75753787975
0.75 3.75753787975 0.757537879754
0.75 0.757537879754 3.75753787975
1.05 3.75753787975 0.757537879754
1.05 0.757537879754 3.75753787975
1.35 3.75753787975 0.757537879754
1.35 0.757537879754 3.75753787975
1.65 3.75753787975 0.757537879754
1.65 0.757537879754 3.75753787975
1.95 3.75753787975 0.757537879754
1.95 0.757537879754 3.75753787975
2.25 3.75753787975 0.757537879754
2.25 0.757537879754 3.75753787975
2.55 3.75753787975 0.757537879754
2.55 0.757537879754 3.75753787975
2.85 3.75753787975 0.757537879754
2.85 0.757537879754 3.75753787975
0 3.43933982822 0.651471862576
3 3.43933982822 0.651471862576
0 3.22720779386 0.863603896932
3 3.22720779386 0.863603896932
0 3.01507575951 1.07573593129
3 3.01507575951 1.07573593129
0 2.80294372515 1.28786796564
3 2.80294372515 1.28786796564
0 2.5908116908 1.5
3 2.5908116908 1.5
0 2.37867965644 1.71213203436
3 2.37867965644 1.71213203436
0 2.16654762208 1.92426406871
3 2.16654762208 1.92426406871
0 1.95441558773 2.13639610307
3 1.95441558773 2.13639610307
0 1.74228355337 2.34852813742
3 1.74228355337 2.34852813742
0 1.53015151902 2.56066017178
3 1.53015151902 2.56066017178
0 1.31801948466 2.77279220614
3 1.31801948466 2.77279220614
0 1.1058874503 2.98492424049
3 1.1058874503 2.98492424049
0 0.893755415949 3.19705627485
3 0.893755415949 3.19705627485
0 0.681623381593 3.4091883092
3 0.681623381593 3.4091883092
0.15 3.33327381104 0.333273811042
0.15 0.333273811042 3.33327381104
0.45 3.33327381104 0.333273811042
0.45 0.333273811042 3.33327381104
0.75 3.33327381104 0.333273811042
0.75 0.333273811042 3.33327381104
1.05 3.33327381104 0.333273811042
1.05 0.333273811042 3.33327381104
1.35 3.33327381104 0.333273811042
1.35 0.333273811042 3.33327381104
1.65 3.33327381104 0.333273811042
1.65 0.333273811042 3.33327381104
1.95 3.33327381104 0.333273811042
1.95 0.333273811042 3.33327381104
2.25 3.33327381104 0.333273811042
2.25 0.333273811042 3.33327381104
2.55 3.33327381104 0.333273811042
2.55 0.333273811042 3.33327381104
2.85 3.33327381104 0.333273811042
2.85 0.333273811042 3.33327381104
0 3.01507575951 0.227207793864
3 3.01507575951 0.227207793864
0 2.80294372515 0.43933982822
3 2.80294372515 0.43933982822
0 2.5908116908 0.651471862576
3 2.5908116908 0.651471862576
0 2.37867965644 0.863603896932
3 2.37867965644 0.863603896932
0 2.16654762208 1.07573593129
3 2.16654762208 1.07573593129
0 1.95441558773 1.28786796564
3 1.95441558773 1.28786796564
0 1.74228355337 1.5
3 1.74228355337 1.5
0 1.53015151902 1.71213203436
3 1.53015151902 1.71213203436
0 1.31801948466 1.92426406871
3 1.31801948466 1.92426406871
0 1.1058874503 2.13639610307
3 1.1058874503 2.13639610307
0 0.893755415949 2.34852813742
3 0.893755415949 2.34852813742
0 0.681623381593 2.56066017178
3 0.681623381593 2.56066017178
0 0.469491347237 2.77279220614
3 0.469491347237 2.77279220614
0 0.257359312881 2.98492424049
3 0.257359312881 2.98492424049
0.15 2.90900974233 -0.0909902576697
0.15 -0.0909902576697 2.90900974233
0.45 2.90900974233 -0.0909902576697
0.45 -0.0909902576697 2.90900974233
0.75 2.90900974233 -0.0909902576697
0.75 -0.0909902576697 2.90900974233
1.05 2.90900974233 -0.0909902576697
1.05 -0.0909902576697 2.90900974233
1.35 2.90900974233 -0.0909902576697
1.35 -0.0909902576697 2.90900974233
1.65 2.90900974233 -0.0909902576697
1.65 -0.0909902576697 2.90900974233
1.95 2.90900974233 -0.0909902576697
1.95 -0.0909902576697 2.90900974233
2.25 2.90900974233 -0.0909902576697
2.25 -0.0909902576697 2.90900974233
2.55 2.90900974233 -0.0909902576697
2.55 -0.0909902576697 2.90900974233
2.85 2.90900974233 -0.0909902576697
2.85 -0.0909902576697 2.90900974233
0 2.5908116908 -0.197056274848
3 2.5908116908 -0.197056274848
0 2.37867965644 0.0150757595083
3 2.37867965644 0.0150757595083
0 2.16654762208 0.227207793864
3 2.16654762208 0.227207793864
0 1.95441558773 0.43933982822
3 1.95441558773 0.43933982822
0 1.74228355337 0.651471862576
3 1.74228355337 0.651471862576
0 1.53015151902 0.863603896932
3 1.53015151902 0.863603896932
0 1.31801948466 1.07573593129
3 1.31801948466 1.07573593129
0 1.1058874503 1.28786796564
3 1.1058874503 1.28786796564
0 0.893755415949 1.5
3 0.893755415949 1.5
0 0.681623381593 1.71213203436
3 0.681623381593 1.71213203436
0 0.469491347237 1.92426406871
3 0.469491347237 1.92426406871
0 0.257359312881 2.13639610307
3 0.257359312881 2.13639610307
0 0.0452272785248 2.34852813742
3 0.0452272785248 2.34852813742
0 -0.166904755831 2.56066017178
3 -0.166904755831 2.56066017178
0.15 2.48474567362 -0.515254326382
0.15 -0.515254326382 2.48474567362
0.45 2.48474567362 -0.515254326382
0.45 -0.515254326382 2.48474567362
0.75 2.48474567362 -0.515254326382
0.75 -0.515254326382 2.48474567362
1.05 2.48474567362 -0.515254326382
1.05 -0.515254326382 2.48474567362
1.35 2.48474567362 -0.515254326382
1.35 -0.515254326382 2.48474567362
1.65 2.48474567362 -0.515254326382
1.65 -0.515254326382 2.48474567362
1.95 2.48474567362 -0.515254326382
1.95 -0.515254326382 2.48474567362
2.25 2.48474567362 -0.515254326382
2.25 -0.515254326382 2.48474567362
2.55 2.48474567362 -0.515254326382
2.55 -0.515254326382 2.48474567362
2.85 2.48474567362 -0.515254326382
2.85 -0.515254326382 2.48474567362
0 2.16654762208 -0.62132034356
3 2.16654762208 -0.62132034356
0 1.95441558773 -0.409188309204
3 1.95441558773 -0.409188309204
0 1.74228355337 -0.197056274848
3 1.74228355337 -0.197056274848
0 1.53015151902 0.0150757595083
3 1.53015151902 0.0150757595083
0 1.31801948466 0.227207793864
3 1.31801948466 0.227207793864
0 1.1058874503 0.43933982822
3 1.1058874503 0.43933982822
0 0.893755415949 0.651471862576
3 0.893755415949 0.651471862576
0 0.681623381593 0.863603896932
3 0.681623381593 0.863603896932
0 0.469491347237 1.07573593129
3 0.469491347237 1.07573593129
0 0.257359312881 1.28786796564
3 0.257359312881 1.28786796564
0 0.0452272785248 1.5
3 0.0452272785248 1.5
0 -0.166904755831 1.71213203436
3 -0.166904755831 1.71213203436
0 -0.379036790187 1.92426406871
3 -0.379036790187 1.92426406871
0 -0.591168824543 2.13639610307
3 -0.591168824543 2.13639610307
0.15 2.06048160491 -0.939518395094
0.15 -0.939518395094 2.06048160491
0.45 2.06048160491 -0.939518395094
0.45 -0.939518395094 2.06048160491
0.75 2.06048160491 -0.939518395094
0.75 -0.939518395094 2.06048160491
1.05 2.06048160491 -0.939518395094
1.05 -0.939518395094 2.06048160491
1.35 2.06048160491 -0.939518395094
1.35 -0.939518395094 2.06048160491
1.65 2.06048160491 -0.939518395094
1.65 -0.939518395094 2.06048160491
1.95 2.06048160491 -0.939518395094
1.95 -0.939518395094 2.06048160491
2.25 2.06048160491 -0.939518395094
2.25 -0.939518395094 2.06048160491
2.55 2.06048160491 -0.939518395094
2.55 -0.939518395094 2.06048160491
2.85 2.06048160491 -0.939518395094
2.85 -0.939518395094 2.06048160491
0 1.74228355337 -1.04558441227
3 1.74228355337 -1.04558441227
0 1.53015151902 -0.833452377916
3 1.53015151902 -0.833452377916
0 1.31801948466 -0.62132034356
3 1.31801948466 -0.62132034356
0 1.1058874503 -0.409188309204
3 1.1058874503 -0.409188309204
0 0.893755415949 -0.197056274848
3 0.893755415949 -0.197056274848
0 0.681623381593 0.0150757595083
3 0.681623381593 0.0150757595083
0 0.469491347237 0.227207793864
3 0.469491347237 0.227207793864
0 0.257359312881 0.43933982822
3 0.257359312881 0.43933982822
0 0.0452272785248 0.651471862576
3 0.0452272785248 0.651471862576
0 -0.166904755831 0.863603896932
3 -0.166904755831 0.863603896932
0 -0.379036790187 1.07573593129
3 -0.379036790187 1.07573593129
0 -0.591168824543 1.28786796564
3 -0.591168824543 1.28786796564
0 -0.803300858899 1.5
3 -0.803300858899 1.5
0 -1.01543289326 1.71213203436
3 -1.01543289326 1.71213203436
0.15 1.63621753619 -1.36378246381
0.15 -1.36378246381 1.63621753619
0.45 1.63621753619 -1.36378246381
0.45 -1.36378246381 1.63621753619
0.75 1.63621753619 -1.36378246381
0.75 -1.36378246381 1.63621753619
1.05 1.63621753619 -1.36378246381
1.05 -1.36378246381 1.63621753619
1.35 1.63621753619 -1.36378246381
1.35 -1.36378246381 1.63621753619
1.65 1.63621753619 -1.36378246381
1.65 -1.36378246381 1.63621753619
1.95 1.63621753619 -1.36378246381
1.95 -1.36378246381 1.63621753619
2.25 1.63621753619 -1.36378246381
2.25 -1.36378246381 1.63621753619
2.55 1.63621753619 -1.36378246381
2.55 -1.36378246381 1.63621753619
2.85 1.63621753619 -1.36378246381
2.85 -1.36378246381 1.63621753619
LINES 492 1476
2 0 1
2 1 2
2 2 3
2 3 0
2 4 5
2 5 6
2 6 7
2 7 4
2 0 4
2 1 5
2 2 6
2 3 7
2 8 9
2 9 10
2 10 11
2 11 8
2 12 13
2 13 14
2 14 15
2 15 12
2 8 12
2 9 13
2 10 14
2 11 15
2 16 17
2 17 18
2 18 19
2 19 16
2 20 21
2 21 22
2 22 23
2 23 20
2 16 20
2 17 21
2 18 22
2 19 23
2 24 25
2 25 26
2 26 27
2 27 24
2 28 29
2 29 30
2 30 31
2 31 28
2 24 28
2 25 29
2 26 30
2 27 31
2 32 33
2 33 34
2 34 35
2 35 32
2 36 37
2 37 38
2 38 39
2 39 36
2 32 36
2 33 37
2 34 38
2 35 39
2 40 41
2 41 42
2 42 43
2 43 40
2 44 45
2 45 46
2 46 47
2 47 44
2 40 44
2 41 45
2 42 46
2 43 47
2 48 49
2 49 50
2 50 51
2 51 48
2 52 53
2 53 54
2 54 55
2 55 52
2 48 52
2 49 53
2 50 54
2 51 55
2 56 57
2 57 58
2 58 59
2 59 56
2 60 61
2 61 62
2 62 63
2 63 60
2 56 60
2 57 61
2 58 62
2 59 63
2 64 65
2 65 66
2 66 67
2 67 64
2 68 69
2 69 70
2 70 71
2 71 68
2 64 68
2 65 69
2 66 70
2 67 71
2 72 73
2 73 74
2 74 75
2 75 72
2 76 77
2 77 78
2 78 79
2 79 76
2 72 76
2 73 77
2 74 78
2 75 79
2 80 81
2 81 82
2 82 83
2 83 80
2 84 85
2 85 86
2 86 87
2 87 84
2 80 84
2 81 85
2 82 86
2 83 87
2 88 89
2 89 90
2 90 91
2 91 88
2 92 93
2 93 94
2 94 95
2 95 92
2 88 92
2 89 93
2 90 94
2 91 95
2 96 97
2 97 98
2 98 99
2 99 96
2 100 101
2 101 102
2 102 103
2 103 100
2 96 100
2 97 101
2 98 102
2 99 103
2 104 105
2 105 106
2 106 107
2 107 104
2 108 109
2 109 110
2 110 111
2 111 108
2 104 108
2 105 109
2 106 110
2 107 111
2 112 113
2 113 114
2 114 115
2 115 112
2 116 117
2 117 118
2 118 119
2 119 116
2 112 116
2 113 117
2 114 118
2 115 119
2 120 121
2 121 122
2 122 123
2 123 120
2 124 125
2 125 126
2 126 127
2 127 124
2 120 124
2 121 125
2 122 126
2 123 127
2 128 129
2 129 130
2 130 131
2 131 128
2 132 133
2 133 134
2 134 135
2 135 132
2 128 132
2 129 133
2 130 134
2 131 135
2 136 137
2 137 138
2 138 139
2 139 136
2 140 141
2 141 142
2 142 143
2 143 140
2 136 140
2 137 141
2 138 142
2 139 143
2 144 145
2 145 146
2 146 147
2 147 144
2 148 149
2 149 150
2 150 151
2 151 148
2 144 148
2 145 149
2 146 150
2 147 151
2 152 153
2 153 154
2 154 155
2 155 152
2 156 157
2 157 158
2 158 159
2 159 156
2 152 156
2 153 157
2 154 158
2 155 159
2 160 161
2 161 162
2 162 163
2 163 160
2 164 165
2 165 166
2 166 167
2 167 164
2 160 164
2 161 165
2 162 166
2 163 167
2 168 169
2 169 170
2 170 171
2 171 168
2 172 173
2 173 174
2 174 175
2 175 172
2 168 172
2 169 173
2 170 174
2 171 175
2 176 177
2 177 178
2 178 179
2 179 176
2 180 181
2 181 182
2 182 183
2 183 180
2 176 180
2 177 181
2 178 182
2 179 183
2 184 185
2 185 186
2 186 187
2 187 184
2 188 189
2 189 190
2 190 191
2 191 188
2 184 188
2 185 189
2 186 190
2 187 191
2 192 193
2 193 194
2 194 195
2 195 192
2 196 197
2 197 198
2 198 199
2 199 196
2 192 196
2 193 197
2 194 198
2 195 199
2 200 201
2 201 202
2 202 203
2 203 200
2 204 205
2 205 206
2 206 207
2 207 204
2 200 204
2 201 205
2 202 206
2 203 207
2 208 209
2 209 210
2 210 211
2 211 208
2 212 213
2 213 214
2 214 215
2 215 212
2 208 212
2 209 213
2 210 214
2 211 215
2 216 217
2 218 219
2 220 221
2 222 223
2 224 225
2 226 227
2 228 229
2 230 231
2 232 233
2 234 235
2 236 237
2 238 239
2 240 241
2 242 243
2 244 245
2 246 247
2 248 249
2 250 251
2 252 253
2 254 255
2 256 257
2 258 259
2 260 261
2 262 263
2 264 265
2 266 267
2 268 269
2 270 271
2 272 273
2 274 275
2 276 277
2 278 279
2 280 281
2 282 283
2 284 285
2 286 287
2 288 289
2 290 291
2 292 293
2 294 295
2 296 297
2 298 299
2 300 301
2 302 303
2 304 305
2 306 307
2 308 309
2 310 311
2 312 313
2 314 315
2 316 317
2 318 319
2 320 321
2 322 323
2 324 325
2 326 327
2 328 329
2 330 331
2 332 333
2 334 335
2 336 337
2 338 339
2 340 341
2 342 343
2 344 345
2 346 347
2 348 349
2 350 351
2 352 353
2 354 355
2 356 357
2 358 359
2 360 361
2 362 363
2 364 365
2 366 367
2 368 369
2 370 371
2 372 373
2 374 375
2 376 377
2 378 379
2 380 381
2 382 383
2 384 385
2 386 387
2 388 389
2 390 391
2 392 393
2 394 395
2 396 397
2 398 399
2 400 401
2 402 403
2 404 405
2 406 407
2 408 409
2 410 411
2 412 413
2 414 415
2 416 417
2 418 419
2 420 421
2 422 423
2 424 425
2 426 427
2 428 429
2 430 431
2 432 433
2 434 435
2 436 437
2 438 439
2 440 441
2 442 443
2 444 445
2 446 447
2 448 449
2 450 451
2 452 453
2 454 455
2 456 457
2 458 459
2 460 461
2 462 463
2 464 465
2 466 467
2 468 469
2 470 471
2 472 473
2 474 475
2 476 477
2 478 479
2 480 481
2 482 483
2 484 485
2 486 487
2 488 489
2 490 491
2 492 493
2 494 495
2 496 497
2 498 499
2 500 501
2 502 503
2 504 505
2 506 507
2 508 509
2 510 511
2 512 513
2 514 515
2 516 517
2 518 519
2 520 521
2 522 523
2 524 525
2 526 527
2 528 529
2 530 531
2 532 533
2 534 535
2 536 537
2 538 539
2 540 541
2 542 543
2 544 545
2 546 547
2 548 549
2 550 551
CELL_DATA 492
SCALARS host_volume_fraction float 1
LOOKUP_TABLE default
0.778584581223
0.778584581223
0.778584581223
0.778584581223
0.778584581223
0.778584581223
0.778584581223
0.778584581223
0.778584581223
0.778584581223
0.778584581223
0.778584581223
0.896741105694
0.896741105694
0.896741105694
0.896741105694
0.896741105694
0.896741105694
0.896741105694
0.896741105694
0.896741105694
0.896741105694
0.896741105694
0.896741105694
0.778584581223
0.778584581223
0.778584581223
0.778584581223
0.778584581223
0.778584581223
0.778584581223
0.778584581223
0.778584581223
0.778584581223
0.778584581223
0.778584581223
0.805711414276
0.805711414276
0.805711414276
0.805711414276
0.805711414276
0.805711414276
0.805711414276
0.805711414276
0.805711414276
0.805711414276
0.805711414276
0.805711414276
0.932910216431
0.932910216431
0.932910216431
0.932910216431
0.932910216431
0.932910216431
0.932910216431
0.932910216431
0.932910216431
0.932910216431
0.932910216431
0.932910216431
0.805711414276
0.805711414276
0.805711414276
0.805711414276
0.805711414276
0.805711414276
0.805711414276
0.805711414276
0.805711414276
0.805711414276
0.805711414276
0.805711414276
0.698749366016
0.698749366016
0.698749366016
0.698749366016
0.698749366016
0.698749366016
0.698749366016
0.698749366016
0.698749366016
0.698749366016
0.698749366016
0.698749366016
0.813856096963
0.813856096963
0.813856096963
0.813856096963
0.813856096963
0.813856096963
0.813856096963
0.813856096963
0.813856096963
0.813856096963
0.813856096963
0.813856096963
0.698749366016
0.698749366016
0.698749366016
0.698749366016
0.698749366016
0.698749366016
0.698749366016
0.698749366016
0.698749366016
0.698749366016
0.698749366016
0.698749366016
0.805711414276
0.805711414276
0.805711414276
0.805711414276
0.805711414276
0.805711414276
0.805711414276
0.805711414276
0.805711414276
0.805711414276
0.805711414276
0.805711414276
0.932910216431
0.932910216431
0.932910216431
0.932910216431
0.932910216431
0.932910216431
0.932910216431
0.932910216431
0.932910216431
0.932910216431
0.932910216431
0.932910216431
0.805711414276
0.805711414276
0.805711414276
0.805711414276
0.805711414276
0.805711414276
0.805711414276
0.805711414276
0.805711414276
0.805711414276
0.805711414276
0.805711414276
0.769435200757
0.769435200757
0.769435200757
0.769435200757
0.769435200757
0.769435200757
0.769435200757
0.769435200757
0.769435200757
0.769435200757
0.769435200757
0.769435200757
0.884541931739
0.884541931739
0.884541931739
0.884541931739
0.884541931739
0.884541931739
0.884541931739
0.884541931739
0.884541931739
0.884541931739
0.884541931739
0.884541931739
0.769435200757
0.769435200757
0.769435200757
0.769435200757
0.769435200757
0.769435200757
0.769435200757
0.769435200757
0.769435200757
0.769435200757
0.769435200757
0.769435200757
0.698749366016
0.698749366016
0.698749366016
0.698749366016
0.698749366016
0.698749366016
0.698749366016
0.698749366016
0.698749366016
0.698749366016
0.698749366016
0.698749366016
0.813856096963
0.813856096963
0.813856096963
0.813856096963
0.813856096963
0.813856096963
0.813856096963
0.813856096963
0.813856096963
0.813856096963
0.813856096963
0.813856096963
0.698749366016
0.698749366016
0.698749366016
0.698749366016
0.698749366016
0.698749366016
0.698749366016
0.698749366016
0.698749366016
0.698749366016
0.698749366016
0.698749366016
0.769435200757
0.769435200757
0.769435200757
0.769435200757
0.769435200757
0.769435200757
0.769435200757
0.769435200757
0.769435200757
0.769435200757
0.769435200757
0.769435200757
0.884541931739
0.884541931739
0.884541931739
0.884541931739
0.884541931739
0.884541931739
0.884541931739
0.884541931739
0.884541931739
0.884541931739
0.884541931739
0.884541931739
0.769435200757
0.769435200757
0.769435200757
0.769435200757
0.769435200757
0.769435200757
0.769435200757
0.769435200757
0.769435200757
0.769435200757
0.769435200757
0.769435200757
0.840121035498
0.840121035498
0.840121035498
0.840121035498
0.840121035498
0.840121035498
0.840121035498
0.840121035498
0.840121035498
0.840121035498
0.840121035498
0.840121035498
0.955227766516
0.955227766516
0.955227766516
0.955227766516
0.955227766516
0.955227766516
0.955227766516
0.955227766516
0.955227766516
0.955227766516
0.955227766516
0.955227766516
0.840121035498
0.840121035498
0.840121035498
0.840121035498
0.840121035498
0.840121035498
0.840121035498
0.840121035498
0.840121035498
0.840121035498
0.840121035498
0.840121035498
0.698749366016
0.698749366016
0.698749366016
0.698749366016
0.698749366016
0.698749366016
0.698749366016
0.698749366016
0.698749366016
0.698749366016
0.698749366016
0.698749366016
0.813856096963
0.813856096963
0.813856096963
0.813856096963
0.813856096963
0.813856096963
0.813856096963
0.813856096963
0.813856096963
0.813856096963
0.813856096963
0.813856096963
0.698749366016
0.698749366016
0.698749366016
0.698749366016
0.698749366016
0.698749366016
0.698749366016
0.698749366016
0.698749366016
0.698749366016
0.698749366016
0.698749366016
-1
-1
-1
-1
-1
-1
-1
-1
-1
-1
-1
-1
-1
-1
-1
-1
-1
-1
-1
-1
-1
-1
-1
-1
-1
-1
-1
-1
-1
-1
-1
-1
-1
-1
-1
-1
-1
-1
-1
-1
-1
-1
-1
-1
-1
-1
-1
-1
-1
-1
-1
-1
-1
-1
-1
-1
-1
-1
-1
-1
-1
-1
-1
-1
-1
-1
-1
-1
-1
-1
-1
-1
-1
-1
-1
-1
-1
-1
-1
-1
-1
-1
-1
-1
-1
-1
-1
-1
-1
-1
-1
-1
-1
-1
-1
-1
-1
-1
-1
-1
-1
-1
-1
-1
-1
-1
-1
-1
-1
-1
-1
-1
-1
-1
-1
-1
-1
-1
-1
-1
-1
-1
-1
-1
-1
-1
-1
-1
-1
-1
-1
-1
-1
-1
-1
-1
-1
-1
-1
-1
-1
-1
-1
-1
-1
-1
-1
-1
-1
-1
-1
-1
-1
-1
-1
-1
-1
-1
-1
-1
-1
-1
-1
-1
-1
-1
-1
-1
