# vtk DataFile Version 3.0
embmesh fibers
ASCII
DATASET POLYDATA
POINTS 408 float
-0.359756 2.90127 1.74118
3.29767 2.90183 2.49594
-0.359756 2.70127 1.74132
3.29767 2.70183 2.49609
-0.359756 2.50127 1.74147
3.29767 2.50183 2.49624
-0.359756 2.30127 1.74162
3.29767 2.30183 2.49638
-0.359756 2.10127 1.74176
3.29767 2.10183 2.49653
-0.359756 1.90127 1.74191
3.29767 1.90183 2.49667
-0.359756 1.70127 1.74206
3.29767 1.70183 2.49682
-0.359756 1.50127 1.7422
3.29767 1.50183 2.49697
-0.359756 1.30127 1.74235
3.29767 1.30183 2.49711
-0.359756 1.10127 1.74249
3.29767 1.10183 2.49726
-0.359756 0.901274 1.74264
3.29767 0.901826 2.49741
-0.359756 0.701274 1.74279
3.29767 0.701826 2.49755
-0.359756 0.501274 1.74293
3.29767 0.501826 2.4977
-0.359756 0.301274 1.74308
3.29767 0.301826 2.49784
-0.359756 0.101274 1.74323
3.29767 0.101826 2.49799
-0.221399 3.00114 1.56544
-0.221399 -0.000316166 1.56764
-0.0255258 3.00117 1.60586
-0.0255258 -0.000286608 1.60806
0.170347 3.0012 1.64629
0.170347 -0.00025705 1.64848
0.36622 3.00123 1.68671
0.36622 -0.000227492 1.6889
0.562092 3.00126 1.72713
0.562092 -0.000197933 1.72932
0.757965 3.00129 1.76755
0.757965 -0.000168375 1.76974
0.953838 3.00132 1.80797
0.953838 -0.000138817 1.81017
1.14971 3.00135 1.84839
1.14971 -0.000109259 1.85059
1.34558 3.00138 1.88881
1.34558 -7.97008e-05 1.89101
1.54146 3.00141 1.92923
1.54146 -5.01426e-05 1.93143
1.73733 3.00144 1.96966
1.73733 -2.05844e-05 1.97185
1.9332 3.00147 2.01008
1.9332 8.97374e-06 2.01227
2.12907 3.0015 2.0505
2.12907 3.85319e-05 2.05269
2.32495 3.00153 2.09092
2.32495 6.80901e-05 2.09311
2.52082 3.00156 2.13134
2.52082 9.76483e-05 2.13354
2.71669 3.00159 2.17176
2.71669 0.000127206 2.17396
2.91256 3.00162 2.21218
2.91256 0.000156765 2.21438
3.10844 3.00165 2.2526
3.10844 0.000186323 2.2548
3.30431 3.00168 2.29303
3.30431 0.000215881 2.29522
-0.278914 2.90099 1.34943
3.37851 2.90154 2.1042
-0.278914 2.70099 1.34958
3.37851 2.70154 2.10434
-0.278914 2.50099 1.34972
3.37851 2.50154 2.10449
-0.278914 2.30099 1.34987
3.37851 2.30154 2.10464
-0.278914 2.10099 1.35002
3.37851 2.10154 2.10478
-0.278914 1.90099 1.35016
3.37851 1.90154 2.10493
-0.278914 1.70099 1.35031
3.37851 1.70154 2.10508
-0.278914 1.50099 1.35046
3.37851 1.50154 2.10522
-0.278914 1.30099 1.3506
3.37851 1.30154 2.10537
-0.278914 1.10099 1.35075
3.37851 1.10154 2.10551
-0.278914 0.900987 1.35089
3.37851 0.901539 2.10566
-0.278914 0.700987 1.35104
3.37851 0.701539 2.10581
-0.278914 0.500987 1.35119
3.37851 0.501539 2.10595
-0.278914 0.300987 1.35133
3.37851 0.301539 2.1061
-0.278914 0.100987 1.35148
3.37851 0.101539 2.10625
-0.140556 3.00086 1.1737
-0.140556 -0.000602631 1.17589
0.0553168 3.00089 1.21412
0.0553168 -0.000573073 1.21631
0.251189 3.00092 1.25454
0.251189 -0.000543515 1.25673
0.447062 3.00095 1.29496
0.447062 -0.000513956 1.29716
0.642935 3.00098 1.33538
0.642935 -0.000484398 1.33758
0.838808 3.00101 1.3758
0.838808 -0.00045484 1.378
1.03468 3.00104 1.41623
1.03468 -0.000425282 1.41842
1.23055 3.00107 1.45665
1.23055 -0.000395724 1.45884
1.42643 3.00109 1.49707
1.42643 -0.000366165 1.49926
1.6223 3.00112 1.53749
1.6223 -0.000336607 1.53968
1.81817 3.00115 1.57791
1.81817 -0.000307049 1.58011
2.01404 3.00118 1.61833
2.01404 -0.000277491 1.62053
2.20992 3.00121 1.65875
2.20992 -0.000247933 1.66095
2.40579 3.00124 1.69917
2.40579 -0.000218375 1.70137
2.60166 3.00127 1.7396
2.60166 -0.000188816 1.74179
2.79753 3.0013 1.78002
2.79753 -0.000159258 1.78221
2.99341 3.00133 1.82044
2.99341 -0.0001297 1.82263
3.18928 3.00136 1.86086
3.18928 -0.000100142 1.86305
3.38515 3.00139 1.90128
3.38515 -7.05838e-05 1.90348
-0.198071 2.9007 0.957687
3.45935 2.90125 1.71245
-0.198071 2.7007 0.957833
3.45935 2.70125 1.7126
-0.198071 2.5007 0.95798
3.45935 2.50125 1.71274
-0.198071 2.3007 0.958126
3.45935 2.30125 1.71289
-0.198071 2.1007 0.958272
3.45935 2.10125 1.71304
-0.198071 1.9007 0.958418
3.45935 1.90125 1.71318
-0.198071 1.7007 0.958565
3.45935 1.70125 1.71333
-0.198071 1.5007 0.958711
3.45935 1.50125 1.71348
-0.198071 1.3007 0.958857
3.45935 1.30125 1.71362
-0.198071 1.1007 0.959003
3.45935 1.10125 1.71377
-0.198071 0.900701 0.95915
3.45935 0.901253 1.71391
-0.198071 0.700701 0.959296
3.45935 0.701253 1.71406
-0.198071 0.500701 0.959442
3.45935 0.501253 1.71421
-0.198071 0.300701 0.959588
3.45935 0.301253 1.71435
-0.198071 0.100701 0.959735
3.45935 0.101253 1.7145
-0.0597133 3.00057 0.781952
-0.0597133 -0.000889096 0.784147
0.136159 3.0006 0.822373
0.136159 -0.000859537 0.824568
0.332032 3.00063 0.862795
0.332032 -0.000829979 0.864989
0.527905 3.00066 0.903216
0.527905 -0.000800421 0.905411
0.723778 3.00069 0.943637
0.723778 -0.000770863 0.945832
0.91965 3.00072 0.984058
0.91965 -0.000741305 0.986253
1.11552 3.00075 1.02448
1.11552 -0.000711747 1.02667
1.3114 3.00078 1.0649
1.3114 -0.000682188 1.0671
1.50727 3.00081 1.10532
1.50727 -0.00065263 1.10752
1.70314 3.00084 1.14574
1.70314 -0.000623072 1.14794
1.89901 3.00087 1.18616
1.89901 -0.000593514 1.18836
2.09489 3.0009 1.22659
2.09489 -0.000563956 1.22878
2.29076 3.00093 1.26701
2.29076 -0.000534398 1.2692
2.48663 3.00096 1.30743
2.48663 -0.000504839 1.30962
2.6825 3.00099 1.34785
2.6825 -0.000475281 1.35005
2.87838 3.00102 1.38827
2.87838 -0.000445723 1.39047
3.07425 3.00104 1.42869
3.07425 -0.000416165 1.43089
3.27012 3.00107 1.46911
3.27012 -0.000386607 1.47131
3.466 3.0011 1.50954
3.466 -0.000357048 1.51173
-0.117228 2.90041 0.565942
3.5402 2.90097 1.32071
-0.117228 2.70041 0.566088
3.5402 2.70097 1.32085
-0.117228 2.50041 0.566234
3.5402 2.50097 1.321
-0.117228 2.30041 0.566381
3.5402 2.30097 1.32115
-0.117228 2.10041 0.566527
3.5402 2.10097 1.32129
-0.117228 1.90041 0.566673
3.5402 1.90097 1.32144
-0.117228 1.70041 0.566819
3.5402 1.70097 1.32158
-0.117228 1.50041 0.566966
3.5402 1.50097 1.32173
-0.117228 1.30041 0.567112
3.5402 1.30097 1.32188
-0.117228 1.10041 0.567258
3.5402 1.10097 1.32202
-0.117228 0.900414 0.567404
3.5402 0.900966 1.32217
-0.117228 0.700414 0.567551
3.5402 0.700966 1.32232
-0.117228 0.500414 0.567697
3.5402 0.500966 1.32246
-0.117228 0.300415 0.567843
3.5402 0.300966 1.32261
-0.117228 0.100415 0.567989
3.5402 0.100966 1.32275
0.0211293 3.00029 0.390207
0.0211293 -0.00117556 0.392402
0.217002 3.00031 0.430628
0.217002 -0.001146 0.432823
0.412875 3.00034 0.471049
0.412875 -0.00111644 0.473244
0.608747 3.00037 0.511471
0.608747 -0.00108689 0.513665
0.80462 3.0004 0.551892
0.80462 -0.00105733 0.554087
1.00049 3.00043 0.592313
1.00049 -0.00102777 0.594508
1.19637 3.00046 0.632734
1.19637 -0.000998211 0.634929
1.39224 3.00049 0.673156
1.39224 -0.000968653 0.675351
1.58811 3.00052 0.713577
1.58811 -0.000939095 0.715772
1.78398 3.00055 0.753998
1.78398 -0.000909537 0.756193
1.97986 3.00058 0.79442
1.97986 -0.000879979 0.796615
2.17573 3.00061 0.834841
2.17573 -0.00085042 0.837036
2.3716 3.00064 0.875262
2.3716 -0.000820862 0.877457
2.56747 3.00067 0.915684
2.56747 -0.000791304 0.917878
2.76335 3.0007 0.956105
2.76335 -0.000761746 0.9583
2.95922 3.00073 0.996526
2.95922 -0.000732188 0.998721
3.15509 3.00076 1.03695
3.15509 -0.00070263 1.03914
3.35097 3.00079 1.07737
3.35097 -0.000673071 1.07956
3.54684 3.00082 1.11779
3.54684 -0.000643513 1.11998
-0.0363857 2.90013 0.174197
3.62104 2.90068 0.928962
-0.0363857 2.70013 0.174343
3.62104 2.70068 0.929108
-0.0363857 2.50013 0.174489
3.62104 2.50068 0.929254
-0.0363857 2.30013 0.174635
3.62104 2.30068 0.9294
-0.0363857 2.10013 0.174782
3.62104 2.10068 0.929547
-0.0363857 1.90013 0.174928
3.62104 1.90068 0.929693
-0.0363857 1.70013 0.175074
3.62104 1.70068 0.929839
-0.0363857 1.50013 0.17522
3.62104 1.50068 0.929985
-0.0363857 1.30013 0.175367
3.62104 1.30068 0.930132
-0.0363857 1.10013 0.175513
3.62104 1.10068 0.930278
-0.0363857 0.900128 0.175659
3.62104 0.90068 0.930424
-0.0363857 0.700128 0.175805
3.62104 0.70068 0.93057
-0.0363857 0.500128 0.175952
3.62104 0.50068 0.930717
-0.0363857 0.300128 0.176098
3.62104 0.30068 0.930863
-0.0363857 0.100128 0.176244
3.62104 0.10068 0.931009
0.101972 3 -0.00153862
0.101972 -0.00146202 0.000656206
0.297845 3.00003 0.0388827
0.297845 -0.00143247 0.0410775
0.493717 3.00006 0.079304
0.493717 -0.00140291 0.0814988
0.68959 3.00009 0.119725
0.68959 -0.00137335 0.12192
0.885463 3.00012 0.160147
0.885463 -0.00134379 0.162341
1.08134 3.00015 0.200568
1.08134 -0.00131423 0.202763
1.27721 3.00018 0.240989
1.27721 -0.00128468 0.243184
1.47308 3.00021 0.28141
1.47308 -0.00125512 0.283605
1.66895 3.00024 0.321832
1.66895 -0.00122556 0.324027
1.86483 3.00026 0.362253
1.86483 -0.001196 0.364448
2.0607 3.00029 0.402674
2.0607 -0.00116644 0.404869
2.25657 3.00032 0.443096
2.25657 -0.00113689 0.44529
2.45244 3.00035 0.483517
2.45244 -0.00110733 0.485712
2.64832 3.00038 0.523938
2.64832 -0.00107777 0.526133
2.84419 3.00041 0.56436
2.84419 -0.00104821 0.566554
3.04006 3.00044 0.604781
3.04006 -0.00101865 0.606976
3.23594 3.00047 0.645202
3.23594 -0.000989094 0.647397
3.43181 3.0005 0.685623
3.43181 -0.000959536 0.687818
3.62768 3.00053 0.726045
3.62768 -0.000929978 0.72824
0.0444569 2.89984 -0.217549
3.70188 2.90039 0.537216
0.0444569 2.69984 -0.217403
3.70188 2.70039 0.537363
0.0444569 2.49984 -0.217256
3.70188 2.50039 0.537509
0.0444569 2.29984 -0.21711
3.70188 2.30039 0.537655
0.0444569 2.09984 -0.216964
3.70188 2.10039 0.537801
0.0444569 1.89984 -0.216818
3.70188 1.90039 0.537948
0.0444569 1.69984 -0.216671
3.70188 1.70039 0.538094
0.0444569 1.49984 -0.216525
3.70188 1.50039 0.53824
0.0444569 1.29984 -0.216379
3.70188 1.30039 0.538386
0.0444569 1.09984 -0.216233
3.70188 1.10039 0.538533
0.0444569 0.899841 -0.216086
3.70188 0.900393 0.538679
0.0444569 0.699841 -0.21594
3.70188 0.700393 0.538825
0.0444569 0.499842 -0.215794
3.70188 0.500393 0.538971
0.0444569 0.299842 -0.215648
3.70188 0.300394 0.539118
0.0444569 0.0998416 -0.215501
3.70188 0.100394 0.539264
0.182815 2.99971 -0.393284
0.182815 -0.00174849 -0.391089
0.378687 2.99974 -0.352863
0.378687 -0.00171893 -0.350668
0.57456 2.99977 -0.312441
0.57456 -0.00168937 -0.310247
0.770433 2.9998 -0.27202
0.770433 -0.00165982 -0.269825
0.966305 2.99983 -0.231599
0.966305 -0.00163026 -0.229404
1.16218 2.99986 -0.191177
1.16218 -0.0016007 -0.188983
1.35805 2.99989 -0.150756
1.35805 -0.00157114 -0.148561
1.55392 2.99992 -0.110335
1.55392 -0.00154158 -0.10814
1.7498 2.99995 -0.0699135
1.7498 -0.00151202 -0.0677187
1.94567 2.99998 -0.0294922
1.94567 -0.00148247 -0.0272974
2.14154 3.00001 0.0109291
2.14154 -0.00145291 0.0131239
2.33741 3.00004 0.0513504
2.33741 -0.00142335 0.0535452
2.53329 3.00007 0.0917717
2.53329 -0.00139379 0.0939665
2.72916 3.0001 0.132193
2.72916 -0.00136423 0.134388
2.92503 3.00013 0.172614
2.92503 -0.00133468 0.174809
3.12091 3.00016 0.213036
3.12091 -0.00130512 0.21523
3.31678 3.00019 0.253457
3.31678 -0.00127556 0.255652
3.51265 3.00021 0.293878
3.51265 -0.001246 0.296073
3.70852 3.00024 0.334299
3.70852 -0.00121644 0.336494
LINES 204 612
2 0 1
2 2 3
2 4 5
2 6 7
2 8 9
2 10 11
2 12 13
2 14 15
2 16 17
2 18 19
2 20 21
2 22 23
2 24 25
2 26 27
2 28 29
2 30 31
2 32 33
2 34 35
2 36 37
2 38 39
2 40 41
2 42 43
2 44 45
2 46 47
2 48 49
2 50 51
2 52 53
2 54 55
2 56 57
2 58 59
2 60 61
2 62 63
2 64 65
2 66 67
2 68 69
2 70 71
2 72 73
2 74 75
2 76 77
2 78 79
2 80 81
2 82 83
2 84 85
2 86 87
2 88 89
2 90 91
2 92 93
2 94 95
2 96 97
2 98 99
2 100 101
2 102 103
2 104 105
2 106 107
2 108 109
2 110 111
2 112 113
2 114 115
2 116 117
2 118 119
2 120 121
2 122 123
2 124 125
2 126 127
2 128 129
2 130 131
2 132 133
2 134 135
2 136 137
2 138 139
2 140 141
2 142 143
2 144 145
2 146 147
2 148 149
2 150 151
2 152 153
2 154 155
2 156 157
2 158 159
2 160 161
2 162 163
2 164 165
2 166 167
2 168 169
2 170 171
2 172 173
2 174 175
2 176 177
2 178 179
2 180 181
2 182 183
2 184 185
2 186 187
2 188 189
2 190 191
2 192 193
2 194 195
2 196 197
2 198 199
2 200 201
2 202 203
2 204 205
2 206 207
2 208 209
2 210 211
2 212 213
2 214 215
2 216 217
2 218 219
2 220 221
2 222 223
2 224 225
2 226 227
2 228 229
2 230 231
2 232 233
2 234 235
2 236 237
2 238 239
2 240 241
2 242 243
2 244 245
2 246 247
2 248 249
2 250 251
2 252 253
2 254 255
2 256 257
2 258 259
2 260 261
2 262 263
2 264 265
2 266 267
2 268 269
2 270 271
2 272 273
2 274 275
2 276 277
2 278 279
2 280 281
2 282 283
2 284 285
2 286 287
2 288 289
2 290 291
2 292 293
2 294 295
2 296 297
2 298 299
2 300 301
2 302 303
2 304 305
2 306 307
2 308 309
2 310 311
2 312 313
2 314 315
2 316 317
2 318 319
2 320 321
2 322 323
2 324 325
2 326 327
2 328 329
2 330 331
2 332 333
2 334 335
2 336 337
2 338 339
2 340 341
2 342 343
2 344 345
2 346 347
2 348 349
2 350 351
2 352 353
2 354 355
2 356 357
2 358 359
2 360 361
2 362 363
2 364 365
2 366 367
2 368 369
2 370 371
2 372 373
2 374 375
2 376 377
2 378 379
2 380 381
2 382 383
2 384 385
2 386 387
2 388 389
2 390 391
2 392 393
2 394 395
2 396 397
2 398 399
2 400 401
2 402 403
2 404 405
2 406 407
