# vtk DataFile Version 3.0
embmesh host/fiber visualization
ASCII
DATASET POLYDATA
POINTS 552 float
0 0 0
1 0 0
1 1 0
0 1 0
0.2 0 1
1.2 0 1
1.26488373768 1.14299696835 1.09924684849
0.2 1 1
1 0 0
2 0 0
2 1 0
1 1 0
1.2 0 1
2.2 0 1
2.12797043647 0.928059862568 1.13447924034
1.26488373768 1.14299696835 1.09924684849
2 0 0
3 0 0
3 1 0
2 1 0
2.2 0 1
3.2 0 1
3.2 1 1
2.12797043647 0.928059862568 1.13447924034
0 1 0
1 1 0
1 2 0
0 2 0
0.2 1 1
1.26488373768 1.14299696835 1.09924684849
1.04328450851 2.11564223062 1.10694499435
0.2 2 1
1 1 0
2 1 0
2 2 0
1 2 0
1.26488373768 1.14299696835 1.09924684849
2.12797043647 0.928059862568 1.13447924034
2.17250322709 1.92909167365 0.920233220356
1.04328450851 2.11564223062 1.10694499435
2 1 0
3 1 0
3 2 0
2 2 0
2.12797043647 0.928059862568 1.13447924034
3.2 1 1
3.2 2 1
2.17250322709 1.92909167365 0.920233220356
0 2 0
1 2 0
1 3 0
0 3 0
0.2 2 1
1.04328450851 2.11564223062 1.10694499435
1.2 3 1
0.2 3 1
1 2 0
2 2 0
2 3 0
1 3 0
1.04328450851 2.11564223062 1.10694499435
2.17250322709 1.92909167365 0.920233220356
2.2 3 1
1.2 3 1
2 2 0
3 2 0
3 3 0
2 3 0
2.17250322709 1.92909167365 0.920233220356
3.2 2 1
3.2 3 1
2.2 3 1
0.2 0 1
1.2 0 1
1.26488373768 1.14299696835 1.09924684849
0.2 1 1
0.4 0 2
1.4 0 2
1.4 1 2
0.4 1 2
1.2 0 1
2.2 0 1
2.12797043647 0.928059862568 1.13447924034
1.26488373768 1.14299696835 1.09924684849
1.4 0 2
2.4 0 2
2.4 1 2
1.4 1 2
2.2 0 1
3.2 0 1
3.2 1 1
2.12797043647 0.928059862568 1.13447924034
2.4 0 2
3.4 0 2
3.4 1 2
2.4 1 2
0.2 1 1
1.26488373768 1.14299696835 1.09924684849
1.04328450851 2.11564223062 1.10694499435
0.2 2 1
0.4 1 2
1.4 1 2
1.4 2 2
0.4 2 2
1.26488373768 1.14299696835 1.09924684849
2.12797043647 0.928059862568 1.13447924034
2.17250322709 1.92909167365 0.920233220356
1.04328450851 2.11564223062 1.10694499435
1.4 1 2
2.4 1 2
2.4 2 2
1.4 2 2
2.12797043647 0.928059862568 1.13447924034
3.2 1 1
3.2 2 1
2.17250322709 1.92909167365 0.920233220356
2.4 1 2
3.4 1 2
3.4 2 2
2.4 2 2
0.2 2 1
1.04328450851 2.11564223062 1.10694499435
1.2 3 1
0.2 3 1
0.4 2 2
1.4 2 2
1.4 3 2
0.4 3 2
1.04328450851 2.11564223062 1.10694499435
2.17250322709 1.92909167365 0.920233220356
2.2 3 1
1.2 3 1
1.4 2 2
2.4 2 2
2.4 3 2
1.4 3 2
2.17250322709 1.92909167365 0.920233220356
3.2 2 1
3.2 3 1
2.2 3 1
2.4 2 2
3.4 2 2
3.4 3 2
2.4 3 2
-0.359756208713 2.90127321371 1.74117775674
3.29766948419 2.90182513756 2.49594292299
-0.359756208713 2.70127326718 1.74132400719
3.29766948419 2.70182519104 2.49608917344
-0.359756208713 2.50127332066 1.74147025763
3.29766948419 2.50182524451 2.49623542388
-0.359756208713 2.30127337413 1.74161650808
3.29766948419 2.30182529798 2.49638167433
-0.359756208713 2.1012734276 1.74176275852
3.29766948419 2.10182535146 2.49652792477
-0.359756208713 1.90127348107 1.74190900896
3.29766948419 1.90182540493 2.49667417522
-0.359756208713 1.70127353455 1.74205525941
3.29766948419 1.7018254584 2.49682042566
-0.359756208713 1.50127358802 1.74220150985
3.29766948419 1.50182551187 2.49696667611
-0.359756208713 1.30127364149 1.7423477603
3.29766948419 1.30182556535 2.49711292655
-0.359756208713 1.10127369497 1.74249401074
3.29766948419 1.10182561882 2.49725917699
-0.359756208713 0.90127374844 1.74264026119
3.29766948419 0.901825672293 2.49740542744
-0.359756208713 0.701273801913 1.74278651163
3.29766948419 0.701825725766 2.49755167788
-0.359756208713 0.501273855386 1.74293276208
3.29766948419 0.501825779239 2.49769792833
-0.359756208713 0.301273908859 1.74307901252
3.29766948419 0.301825832712 2.49784417877
-0.359756208713 0.101273962332 1.74322526297
3.29766948419 0.101825886185 2.49799042922
-0.221398545065 3.00114473371 1.56544262536
-0.221398545065 -0.000316166159899 1.5676374509
-0.0255258371019 3.00117429188 1.60586392421
-0.0255258371019 -0.00028660798733 1.60805874976
0.170346870861 3.00120385005 1.64628522307
0.170346870861 -0.000257049814762 1.64848004862
0.366219578824 3.00123340822 1.68670652193
0.366219578824 -0.000227491642193 1.68890134748
0.562092286788 3.0012629664 1.72712782079
0.562092286788 -0.000197933469624 1.72932264634
0.757964994751 3.00129252457 1.76754911965
0.757964994751 -0.000168375297056 1.7697439452
0.953837702714 3.00132208274 1.80797041851
0.953837702714 -0.000138817124487 1.81016524406
1.14971041068 3.00135164091 1.84839171737
1.14971041068 -0.000109258951918 1.85058654292
1.34558311864 3.00138119909 1.88881301623
1.34558311864 -7.97007793496e-05 1.89100784178
1.5414558266 3.00141075726 1.92923431509
1.5414558266 -5.01426067809e-05 1.93142914063
1.73732853457 3.00144031543 1.96965561395
1.73732853457 -2.05844342123e-05 1.97185043949
1.93320124253 3.0014698736 2.01007691281
1.93320124253 8.9737383564e-06 2.01227173835
2.12907395049 3.00149943178 2.05049821167
2.12907395049 3.85319109251e-05 2.05269303721
2.32494665846 3.00152898995 2.09091951053
2.32494665846 6.80900834937e-05 2.09311433607
2.52081936642 3.00155854812 2.13134080939
2.52081936642 9.76482560624e-05 2.13353563493
2.71669207438 3.0015881063 2.17176210825
2.71669207438 0.000127206428631 2.17395693379
2.91256478235 3.00161766447 2.21218340711
2.91256478235 0.0001567646012 2.21437823265
3.10843749031 3.00164722264 2.25260470597
3.10843749031 0.000186322773768 2.25479953151
3.30431019827 3.00167678081 2.29302600483
3.30431019827 0.000215880946337 2.29522083037
-0.27891358938 2.900986749 1.34943244555
3.37851210353 2.90153867286 2.1041976118
-0.27891358938 2.70098680248 1.349578696
3.37851210353 2.70153872633 2.10434386225
-0.27891358938 2.50098685595 1.34972494644
3.37851210353 2.5015387798 2.10449011269
-0.27891358938 2.30098690942 1.34987119689
3.37851210353 2.30153883328 2.10463636314
-0.27891358938 2.1009869629 1.35001744733
3.37851210353 2.10153888675 2.10478261358
-0.27891358938 1.90098701637 1.35016369778
3.37851210353 1.90153894022 2.10492886403
-0.27891358938 1.70098706984 1.35030994822
3.37851210353 1.7015389937 2.10507511447
-0.27891358938 1.50098712331 1.35045619867
3.37851210353 1.50153904717 2.10522136492
-0.27891358938 1.30098717679 1.35060244911
3.37851210353 1.30153910064 2.10536761536
-0.27891358938 1.10098723026 1.35074869956
3.37851210353 1.10153915411 2.10551386581
-0.27891358938 0.900987283733 1.35089495
3.37851210353 0.901539207587 2.10566011625
-0.27891358938 0.700987337206 1.35104120045
3.37851210353 0.70153926106 2.1058063667
-0.27891358938 0.500987390679 1.35118745089
3.37851210353 0.501539314533 2.10595261714
-0.27891358938 0.300987444152 1.35133370133
3.37851210353 0.301539368006 2.10609886759
-0.27891358938 0.100987497625 1.35147995178
3.37851210353 0.101539421479 2.10624511803
-0.140555925731 3.000858269 1.17369731417
-0.140555925731 -0.000602630866322 1.17589213971
0.0553167822318 3.00088782717 1.21411861303
0.0553167822318 -0.000573072693753 1.21631343857
0.251189490195 3.00091738535 1.25453991189
0.251189490195 -0.000543514521185 1.25673473743
0.447062198158 3.00094694352 1.29496121075
0.447062198158 -0.000513956348616 1.29715603629
0.642934906121 3.00097650169 1.33538250961
0.642934906121 -0.000484398176047 1.33757733515
0.838807614084 3.00100605986 1.37580380847
0.838807614084 -0.000454840003479 1.37799863401
1.03468032205 3.00103561804 1.41622510733
1.03468032205 -0.00042528183091 1.41841993287
1.23055303001 3.00106517621 1.45664640619
1.23055303001 -0.000395723658341 1.45884123173
1.42642573797 3.00109473438 1.49706770504
1.42642573797 -0.000366165485773 1.49926253059
1.62229844594 3.00112429255 1.5374890039
1.62229844594 -0.000336607313204 1.53968382945
1.8181711539 3.00115385073 1.57791030276
1.8181711539 -0.000307049140635 1.58010512831
2.01404386186 3.0011834089 1.61833160162
2.01404386186 -0.000277490968067 1.62052642717
2.20991656983 3.00121296707 1.65875290048
2.20991656983 -0.000247932795498 1.66094772603
2.40578927779 3.00124252524 1.69917419934
2.40578927779 -0.000218374622929 1.70136902489
2.60166198575 3.00127208342 1.7395954982
2.60166198575 -0.000188816450361 1.74179032375
2.79753469372 3.00130164159 1.78001679706
2.79753469372 -0.000159258277792 1.78221162261
2.99340740168 3.00133119976 1.82043809592
2.99340740168 -0.000129700105223 1.82263292146
3.18928010964 3.00136075793 1.86085939478
3.18928010964 -0.000100141932655 1.86305422032
3.38515281761 3.00139031611 1.90128069364
3.38515281761 -7.05837600856e-05 1.90347551918
-0.198070970046 2.9007002843 0.957687134367
3.45935472286 2.90125220815 1.71245230062
-0.198070970046 2.70070033777 0.957833384811
3.45935472286 2.70125226162 1.71259855106
-0.198070970046 2.50070039124 0.957979635256
3.45935472286 2.5012523151 1.71274480151
-0.198070970046 2.30070044472 0.958125885701
3.45935472286 2.30125236857 1.71289105195
-0.198070970046 2.10070049819 0.958272136145
3.45935472286 2.10125242204 1.7130373024
-0.198070970046 1.90070055166 0.95841838659
3.45935472286 1.90125247552 1.71318355284
-0.198070970046 1.70070060514 0.958564637035
3.45935472286 1.70125252899 1.71332980329
-0.198070970046 1.50070065861 0.95871088748
3.45935472286 1.50125258246 1.71347605373
-0.198070970046 1.30070071208 0.958857137924
3.45935472286 1.30125263593 1.71362230418
-0.198070970046 1.10070076555 0.959003388369
3.45935472286 1.10125268941 1.71376855462
-0.198070970046 0.900700819027 0.959149638814
3.45935472286 0.901252742881 1.71391480506
-0.198070970046 0.7007008725 0.959295889258
3.45935472286 0.701252796354 1.71406105551
-0.198070970046 0.500700925973 0.959442139703
3.45935472286 0.501252849827 1.71420730595
-0.198070970046 0.300700979446 0.959588390148
3.45935472286 0.3012529033 1.7143535564
-0.198070970046 0.100701032919 0.959734640592
3.45935472286 0.101252956773 1.71449980684
-0.0597133063976 3.00057180429 0.78195200298
-0.0597133063976 -0.000889095572745 0.784146828524
0.136159401566 3.00060136247 0.82237330184
0.136159401566 -0.000859537400176 0.824568127384
0.332032109529 3.00063092064 0.8627946007
0.332032109529 -0.000829979227607 0.864989426243
0.527904817492 3.00066047881 0.903215899559
0.527904817492 -0.000800421055039 0.905410725103
0.723777525455 3.00069003698 0.943637198419
0.723777525455 -0.00077086288247 0.945832023962
0.919650233418 3.00071959516 0.984058497279
0.919650233418 -0.000741304709901 0.986253322822
1.11552294138 3.00074915333 1.02447979614
1.11552294138 -0.000711746537333 1.02667462168
1.31139564934 3.0007787115 1.064901095
1.31139564934 -0.000682188364764 1.06709592054
1.50726835731 3.00080826967 1.10532239386
1.50726835731 -0.000652630192195 1.1075172194
1.70314106527 3.00083782785 1.14574369272
1.70314106527 -0.000623072019627 1.14793851826
1.89901377323 3.00086738602 1.18616499158
1.89901377323 -0.000593513847058 1.18835981712
2.0948864812 3.00089694419 1.22658629044
2.0948864812 -0.000563955674489 1.22878111598
2.29075918916 3.00092650236 1.2670075893
2.29075918916 -0.000534397501921 1.26920241484
2.48663189712 3.00095606054 1.30742888816
2.48663189712 -0.000504839329352 1.3096237137
2.68250460509 3.00098561871 1.34785018701
2.68250460509 -0.000475281156783 1.35004501256
2.87837731305 3.00101517688 1.38827148587
2.87837731305 -0.000445722984215 1.39046631142
3.07425002101 3.00104473505 1.42869278473
3.07425002101 -0.000416164811646 1.43088761028
3.27012272898 3.00107429323 1.46911408359
3.27012272898 -0.000386606639077 1.47130890914
3.46599543694 3.0011038514 1.50953538245
3.46599543694 -0.000357048466508 1.511730208
-0.117228350712 2.90041381959 0.565941823179
3.5401973422 2.90096574344 1.32070698943
-0.117228350712 2.70041387306 0.566088073624
3.5401973422 2.70096579692 1.32085323988
-0.117228350712 2.50041392654 0.566234324069
3.5401973422 2.50096585039 1.32099949032
-0.117228350712 2.30041398001 0.566380574513
3.5401973422 2.30096590386 1.32114574076
-0.117228350712 2.10041403348 0.566526824958
3.5401973422 2.10096595734 1.32129199121
-0.117228350712 1.90041408696 0.566673075403
3.5401973422 1.90096601081 1.32143824165
-0.117228350712 1.70041414043 0.566819325848
3.5401973422 1.70096606428 1.3215844921
-0.117228350712 1.5004141939 0.566965576292
3.5401973422 1.50096611776 1.32173074254
-0.117228350712 1.30041424737 0.567111826737
3.5401973422 1.30096617123 1.32187699299
-0.117228350712 1.10041430085 0.567258077182
3.5401973422 1.1009662247 1.32202324343
-0.117228350712 0.900414354321 0.567404327626
3.5401973422 0.900966278174 1.32216949388
-0.117228350712 0.700414407794 0.567550578071
3.5401973422 0.700966331647 1.32231574432
-0.117228350712 0.500414461267 0.567696828516
3.5401973422 0.50096638512 1.32246199477
-0.117228350712 0.30041451474 0.56784307896
3.5401973422 0.300966438593 1.32260824521
-0.117228350712 0.100414568213 0.567989329405
3.5401973422 0.100966492066 1.32275449566
0.0211293129361 3.00028533959 0.390206691793
0.0211293129361 -0.00117556027917 0.392401517337
0.217002020899 3.00031489776 0.430627990653
0.217002020899 -0.0011460021066 0.432822816196
0.412874728862 3.00034445593 0.471049289512
0.412874728862 -0.00111644393403 0.473244115056
0.608747436826 3.0003740141 0.511470588372
0.608747436826 -0.00108688576146 0.513665413915
0.804620144789 3.00040357228 0.551891887232
0.804620144789 -0.00105732758889 0.554086712775
1.00049285275 3.00043313045 0.592313186091
1.00049285275 -0.00102776941632 0.594508011635
1.19636556071 3.00046268862 0.632734484951
1.19636556071 -0.000998211243755 0.634929310494
1.39223826868 3.0004922468 0.67315578381
1.39223826868 -0.000968653071187 0.675350609354
1.58811097664 3.00052180497 0.71357708267
1.58811097664 -0.000939094898618 0.715771908213
1.7839836846 3.00055136314 0.75399838153
1.7839836846 -0.000909536726049 0.756193207073
1.97985639257 3.00058092131 0.794419680389
1.97985639257 -0.000879978553481 0.796614505933
2.17572910053 3.00061047949 0.834840979249
2.17572910053 -0.000850420380912 0.837035804792
2.37160180849 3.00064003766 0.875262278108
2.37160180849 -0.000820862208343 0.877457103652
2.56747451646 3.00066959583 0.915683576968
2.56747451646 -0.000791304035775 0.917878402511
2.76334722442 3.000699154 0.956104875828
2.76334722442 -0.000761745863206 0.958299701371
2.95921993238 3.00072871218 0.996526174687
2.95921993238 -0.000732187690637 0.998721000231
3.15509264035 3.00075827035 1.03694747355
3.15509264035 -0.000702629518069 1.03914229909
3.35096534831 3.00078782852 1.07736877241
3.35096534831 -0.0006730713455 1.07956359795
3.54683805627 3.00081738669 1.11779007127
3.54683805627 -0.000643513172931 1.11998489681
-0.0363857313787 2.90012735488 0.174196511992
3.62103996153 2.90067927874 0.928961678243
-0.0363857313787 2.70012740836 0.174342762437
3.62103996153 2.70067933221 0.929107928688
-0.0363857313787 2.50012746183 0.174489012881
3.62103996153 2.50067938568 0.929254179132
-0.0363857313787 2.3001275153 0.174635263326
3.62103996153 2.30067943916 0.929400429577
-0.0363857313787 2.10012756878 0.174781513771
3.62103996153 2.10067949263 0.929546680022
-0.0363857313787 1.90012762225 0.174927764216
3.62103996153 1.9006795461 0.929692930467
-0.0363857313787 1.70012767572 0.17507401466
3.62103996153 1.70067959958 0.929839180911
-0.0363857313787 1.5001277292 0.175220265105
3.62103996153 1.50067965305 0.929985431356
-0.0363857313787 1.30012778267 0.17536651555
3.62103996153 1.30067970652 0.930131681801
-0.0363857313787 1.10012783614 0.175512765994
3.62103996153 1.10067975999 0.930277932245
-0.0363857313787 0.900127889614 0.175659016439
3.62103996153 0.900679813468 0.93042418269
-0.0363857313787 0.700127943087 0.175805266884
3.62103996153 0.700679866941 0.930570433135
-0.0363857313787 0.50012799656 0.175951517328
3.62103996153 0.500679920414 0.930716683579
-0.0363857313787 0.300128050033 0.176097767773
3.62103996153 0.300679973887 0.930862934024
-0.0363857313787 0.100128103506 0.176244018218
3.62103996153 0.10068002736 0.931009184469
0.10197193227 2.99999887488 -0.00153861939413
0.10197193227 -0.00146202498559 0.000656206149317
0.297844640233 3.00002843305 0.0388826794655
0.297844640233 -0.00143246681302 0.0410775050089
0.493717348196 3.00005799123 0.0793039783251
0.493717348196 -0.00140290864045 0.0814988038685
0.689590056159 3.0000875494 0.119725277185
0.689590056159 -0.00137335046788 0.121920102728
0.885462764122 3.00011710757 0.160146576044
0.885462764122 -0.00134379229532 0.162341401588
1.08133547209 3.00014666574 0.200567874904
1.08133547209 -0.00131423412275 0.202762700447
1.27720818005 3.00017622392 0.240989173764
1.27720818005 -0.00128467595018 0.243183999307
1.47308088801 3.00020578209 0.281410472623
1.47308088801 -0.00125511777761 0.283605298167
1.66895359597 3.00023534026 0.321831771483
1.66895359597 -0.00122555960504 0.324026597026
1.86482630394 3.00026489843 0.362253070342
1.86482630394 -0.00119600143247 0.364447895886
2.0606990119 3.00029445661 0.402674369202
2.0606990119 -0.0011664432599 0.404869194745
2.25657171986 3.00032401478 0.443095668062
2.25657171986 -0.00113688508734 0.445290493605
2.45244442783 3.00035357295 0.483516966921
2.45244442783 -0.00110732691477 0.485711792465
2.64831713579 3.00038313112 0.523938265781
2.64831713579 -0.0010777687422 0.526133091324
2.84418984375 3.0004126893 0.56435956464
2.84418984375 -0.00104821056963 0.566554390184
3.04006255172 3.00044224747 0.6047808635
3.04006255172 -0.00101865239706 0.606975689043
3.23593525968 3.00047180564 0.64520216236
3.23593525968 -0.000989094224492 0.647396987903
3.43180796764 3.00050136381 0.685623461219
3.43180796764 -0.000959536051923 0.687818286763
3.62768067561 3.00053092199 0.726044760079
3.62768067561 -0.000929977879354 0.728239585622
0.044456887955 2.89984089018 -0.217548799195
3.70188258086 2.90039281403 0.537216367056
0.044456887955 2.69984094365 -0.217402548751
3.70188258086 2.7003928675 0.5373626175
0.044456887955 2.49984099712 -0.217256298306
3.70188258086 2.50039292098 0.537508867945
0.044456887955 2.2998410506 -0.217110047861
3.70188258086 2.30039297445 0.53765511839
0.044456887955 2.09984110407 -0.216963797416
3.70188258086 2.10039302792 0.537801368835
0.044456887955 1.89984115754 -0.216817546972
3.70188258086 1.9003930814 0.537947619279
0.044456887955 1.69984121102 -0.216671296527
3.70188258086 1.70039313487 0.538093869724
0.044456887955 1.49984126449 -0.216525046082
3.70188258086 1.50039318834 0.538240120169
0.044456887955 1.29984131796 -0.216378795638
3.70188258086 1.30039324182 0.538386370613
0.044456887955 1.09984137143 -0.216232545193
3.70188258086 1.10039329529 0.538532621058
0.044456887955 0.899841424908 -0.216086294748
3.70188258086 0.900393348761 0.538678871503
0.044456887955 0.699841478381 -0.215940044304
3.70188258086 0.700393402234 0.538825121947
0.044456887955 0.499841531854 -0.215793793859
3.70188258086 0.500393455707 0.538971372392
0.044456887955 0.299841585327 -0.215647543414
3.70188258086 0.30039350918 0.539117622837
0.044456887955 0.0998416387997 -0.21550129297
3.70188258086 0.100393562653 0.539263873281
0.182814551603 2.99971241017 -0.393283930581
0.182814551603 -0.00174848969201 -0.391089105038
0.378687259567 2.99974196835 -0.352862631722
0.378687259567 -0.00171893151944 -0.350667806178
0.57455996753 2.99977152652 -0.312441332862
0.57455996753 -0.00168937334688 -0.310246507319
0.770432675493 2.99980108469 -0.272020034003
0.770432675493 -0.00165981517431 -0.269825208459
0.966305383456 2.99983064286 -0.231598735143
0.966305383456 -0.00163025700174 -0.2294039096
1.16217809142 2.99986020104 -0.191177436283
1.16217809142 -0.00160069882917 -0.18898261074
1.35805079938 2.99988975921 -0.150756137424
1.35805079938 -0.0015711406566 -0.14856131188
1.55392350735 2.99991931738 -0.110334838564
1.55392350735 -0.00154158248403 -0.108140013021
1.74979621531 2.99994887555 -0.0699135397046
1.74979621531 -0.00151202431146 -0.0677187141611
1.94566892327 2.99997843373 -0.029492240845
1.94566892327 -0.0014824661389 -0.0272974153015
2.14154163123 3.0000079919 0.0109290580146
2.14154163123 -0.00145290796633 0.0131238835581
2.3374143392 3.00003755007 0.0513503568742
2.3374143392 -0.00142334979376 0.0535451824177
2.53328704716 3.00006710825 0.0917716557338
2.53328704716 -0.00139379162119 0.0939664812773
2.72915975512 3.00009666642 0.132192954593
2.72915975512 -0.00136423344862 0.134387780137
2.92503246309 3.00012622459 0.172614253453
2.92503246309 -0.00133467527605 0.174809078996
3.12090517105 3.00015578276 0.213035552313
3.12090517105 -0.00130511710348 0.215230377856
3.31677787901 3.00018534094 0.253456851172
3.31677787901 -0.00127555893091 0.255651676716
3.51265058698 3.00021489911 0.293878150032
3.51265058698 -0.00124600075835 0.296072975575
3.70852329494 3.00024445728 0.334299448891
3.70852329494 -0.00121644258578 0.336494274435
LINES 420 1260
2 0 1
2 1 2
2 2 3
2 3 0
2 4 5
2 5 6
2 6 7
2 7 4
2 0 4
2 1 5
2 2 6
2 3 7
2 8 9
2 9 10
2 10 11
2 11 8
2 12 13
2 13 14
2 14 15
2 15 12
2 8 12
2 9 13
2 10 14
2 11 15
2 16 17
2 17 18
2 18 19
2 19 16
2 20 21
2 21 22
2 22 23
2 23 20
2 16 20
2 17 21
2 18 22
2 19 23
2 24 25
2 25 26
2 26 27
2 27 24
2 28 29
2 29 30
2 30 31
2 31 28
2 24 28
2 25 29
2 26 30
2 27 31
2 32 33
2 33 34
2 34 35
2 35 32
2 36 37
2 37 38
2 38 39
2 39 36
2 32 36
2 33 37
2 34 38
2 35 39
2 40 41
2 41 42
2 42 43
2 43 40
2 44 45
2 45 46
2 46 47
2 47 44
2 40 44
2 41 45
2 42 46
2 43 47
2 48 49
2 49 50
2 50 51
2 51 48
2 52 53
2 53 54
2 54 55
2 55 52
2 48 52
2 49 53
2 50 54
2 51 55
2 56 57
2 57 58
2 58 59
2 59 56
2 60 61
2 61 62
2 62 63
2 63 60
2 56 60
2 57 61
2 58 62
2 59 63
2 64 65
2 65 66
2 66 67
2 67 64
2 68 69
2 69 70
2 70 71
2 71 68
2 64 68
2 65 69
2 66 70
2 67 71
2 72 73
2 73 74
2 74 75
2 75 72
2 76 77
2 77 78
2 78 79
2 79 76
2 72 76
2 73 77
2 74 78
2 75 79
2 80 81
2 81 82
2 82 83
2 83 80
2 84 85
2 85 86
2 86 87
2 87 84
2 80 84
2 81 85
2 82 86
2 83 87
2 88 89
2 89 90
2 90 91
2 91 88
2 92 93
2 93 94
2 94 95
2 95 92
2 88 92
2 89 93
2 90 94
2 91 95
2 96 97
2 97 98
2 98 99
2 99 96
2 100 101
2 101 102
2 102 103
2 103 100
2 96 100
2 97 101
2 98 102
2 99 103
2 104 105
2 105 106
2 106 107
2 107 104
2 108 109
2 109 110
2 110 111
2 111 108
2 104 108
2 105 109
2 106 110
2 107 111
2 112 113
2 113 114
2 114 115
2 115 112
2 116 117
2 117 118
2 118 119
2 119 116
2 112 116
2 113 117
2 114 118
2 115 119
2 120 121
2 121 122
2 122 123
2 123 120
2 124 125
2 125 126
2 126 127
2 127 124
2 120 124
2 121 125
2 122 126
2 123 127
2 128 129
2 129 130
2 130 131
2 131 128
2 132 133
2 133 134
2 134 135
2 135 132
2 128 132
2 129 133
2 130 134
2 131 135
2 136 137
2 137 138
2 138 139
2 139 136
2 140 141
2 141 142
2 142 143
2 143 140
2 136 140
2 137 141
2 138 142
2 139 143
2 144 145
2 146 147
2 148 149
2 150 151
2 152 153
2 154 155
2 156 157
2 158 159
2 160 161
2 162 163
2 164 165
2 166 167
2 168 169
2 170 171
2 172 173
2 174 175
2 176 177
2 178 179
2 180 181
2 182 183
2 184 185
2 186 187
2 188 189
2 190 191
2 192 193
2 194 195
2 196 197
2 198 199
2 200 201
2 202 203
2 204 205
2 206 207
2 208 209
2 210 211
2 212 213
2 214 215
2 216 217
2 218 219
2 220 221
2 222 223
2 224 225
2 226 227
2 228 229
2 230 231
2 232 233
2 234 235
2 236 237
2 238 239
2 240 241
2 242 243
2 244 245
2 246 247
2 248 249
2 250 251
2 252 253
2 254 255
2 256 257
2 258 259
2 260 261
2 262 263
2 264 265
2 266 267
2 268 269
2 270 271
2 272 273
2 274 275
2 276 277
2 278 279
2 280 281
2 282 283
2 284 285
2 286 287
2 288 289
2 290 291
2 292 293
2 294 295
2 296 297
2 298 299
2 300 301
2 302 303
2 304 305
2 306 307
2 308 309
2 310 311
2 312 313
2 314 315
2 316 317
2 318 319
2 320 321
2 322 323
2 324 325
2 326 327
2 328 329
2 330 331
2 332 333
2 334 335
2 336 337
2 338 339
2 340 341
2 342 343
2 344 345
2 346 347
2 348 349
2 350 351
2 352 353
2 354 355
2 356 357
2 358 359
2 360 361
2 362 363
2 364 365
2 366 367
2 368 369
2 370 371
2 372 373
2 374 375
2 376 377
2 378 379
2 380 381
2 382 383
2 384 385
2 386 387
2 388 389
2 390 391
2 392 393
2 394 395
2 396 397
2 398 399
2 400 401
2 402 403
2 404 405
2 406 407
2 408 409
2 410 411
2 412 413
2 414 415
2 416 417
2 418 419
2 420 421
2 422 423
2 424 425
2 426 427
2 428 429
2 430 431
2 432 433
2 434 435
2 436 437
2 438 439
2 440 441
2 442 443
2 444 445
2 446 447
2 448 449
2 450 451
2 452 453
2 454 455
2 456 457
2 458 459
2 460 461
2 462 463
2 464 465
2 466 467
2 468 469
2 470 471
2 472 473
2 474 475
2 476 477
2 478 479
2 480 481
2 482 483
2 484 485
2 486 487
2 488 489
2 490 491
2 492 493
2 494 495
2 496 497
2 498 499
2 500 501
2 502 503
2 504 505
2 506 507
2 508 509
2 510 511
2 512 513
2 514 515
2 516 517
2 518 519
2 520 521
2 522 523
2 524 525
2 526 527
2 528 529
2 530 531
2 532 533
2 534 535
2 536 537
2 538 539
2 540 541
2 542 543
2 544 545
2 546 547
2 548 549
2 550 551
CELL_DATA 420
SCALARS host_volume_fraction float 1
LOOKUP_TABLE default
0.761128321876
0.761128321876
0.761128321876
0.761128321876
0.761128321876
0.761128321876
0.761128321876
0.761128321876
0.761128321876
0.761128321876
0.761128321876
0.761128321876
0.785978584244
0.785978584244
0.785978584244
0.785978584244
0.785978584244
0.785978584244
0.785978584244
0.785978584244
0.785978584244
0.785978584244
0.785978584244
0.785978584244
0.807081066264
0.807081066264
0.807081066264
0.807081066264
0.807081066264
0.807081066264
0.807081066264
0.807081066264
0.807081066264
0.807081066264
0.807081066264
0.807081066264
0.738982023788
0.738982023788
0.738982023788
0.738982023788
0.738982023788
0.738982023788
0.738982023788
0.738982023788
0.738982023788
0.738982023788
0.738982023788
0.738982023788
0.783188991932
0.783188991932
0.783188991932
0.783188991932
0.783188991932
0.783188991932
0.783188991932
0.783188991932
0.783188991932
0.783188991932
0.783188991932
0.783188991932
0.798357478754
0.798357478754
0.798357478754
0.798357478754
0.798357478754
0.798357478754
0.798357478754
0.798357478754
0.798357478754
0.798357478754
0.798357478754
0.798357478754
0.755169870077
0.755169870077
0.755169870077
0.755169870077
0.755169870077
0.755169870077
0.755169870077
0.755169870077
0.755169870077
0.755169870077
0.755169870077
0.755169870077
0.784259121867
0.784259121867
0.784259121867
0.784259121867
0.784259121867
0.784259121867
0.784259121867
0.784259121867
0.784259121867
0.784259121867
0.784259121867
0.784259121867
0.789095488596
0.789095488596
0.789095488596
0.789095488596
0.789095488596
0.789095488596
0.789095488596
0.789095488596
0.789095488596
0.789095488596
0.789095488596
0.789095488596
0.774321494
0.774321494
0.774321494
0.774321494
0.774321494
0.774321494
0.774321494
0.774321494
0.774321494
0.774321494
0.774321494
0.774321494
0.762953595585
0.762953595585
0.762953595585
0.762953595585
0.762953595585
0.762953595585
0.762953595585
0.762953595585
0.762953595585
0.762953595585
0.762953595585
0.762953595585
0.797253924987
0.797253924987
0.797253924987
0.797253924987
0.797253924987
0.797253924987
0.797253924987
0.797253924987
0.797253924987
0.797253924987
0.797253924987
0.797253924987
0.83632154177
0.83632154177
0.83632154177
0.83632154177
0.83632154177
0.83632154177
0.83632154177
0.83632154177
0.83632154177
0.83632154177
0.83632154177
0.83632154177
0.757059205926
0.757059205926
0.757059205926
0.757059205926
0.757059205926
0.757059205926
0.757059205926
0.757059205926
0.757059205926
0.757059205926
0.757059205926
0.757059205926
0.791617837488
0.791617837488
0.791617837488
0.791617837488
0.791617837488
0.791617837488
0.791617837488
0.791617837488
0.791617837488
0.791617837488
0.791617837488
0.791617837488
0.84497499713
0.84497499713
0.84497499713
0.84497499713
0.84497499713
0.84497499713
0.84497499713
0.84497499713
0.84497499713
0.84497499713
0.84497499713
0.84497499713
0.762971245027
0.762971245027
0.762971245027
0.762971245027
0.762971245027
0.762971245027
0.762971245027
0.762971245027
0.762971245027
0.762971245027
0.762971245027
0.762971245027
0.791931926354
0.791931926354
0.791931926354
0.791931926354
0.791931926354
0.791931926354
0.791931926354
0.791931926354
0.791931926354
0.791931926354
0.791931926354
0.791931926354
-1
-1
-1
-1
-1
-1
-1
-1
-1
-1
-1
-1
-1
-1
-1
-1
-1
-1
-1
-1
-1
-1
-1
-1
-1
-1
-1
-1
-1
-1
-1
-1
-1
-1
-1
-1
-1
-1
-1
-1
-1
-1
-1
-1
-1
-1
-1
-1
-1
-1
-1
-1
-1
-1
-1
-1
-1
-1
-1
-1
-1
-1
-1
-1
-1
-1
-1
-1
-1
-1
-1
-1
-1
-1
-1
-1
-1
-1
-1
-1
-1
-1
-1
-1
-1
-1
-1
-1
-1
-1
-1
-1
-1
-1
-1
-1
-1
-1
-1
-1
-1
-1
-1
-1
-1
-1
-1
-1
-1
-1
-1
-1
-1
-1
-1
-1
-1
-1
-1
-1
-1
-1
-1
-1
-1
-1
-1
-1
-1
-1
-1
-1
-1
-1
-1
-1
-1
-1
-1
-1
-1
-1
-1
-1
-1
-1
-1
-1
-1
-1
-1
-1
-1
-1
-1
-1
-1
-1
-1
-1
-1
-1
-1
-1
-1
-1
-1
-1
-1
-1
-1
-1
-1
-1
-1
-1
-1
-1
-1
-1
-1
-1
-1
-1
-1
-1
-1
-1
-1
-1
-1
-1
-1
-1
-1
-1
-1
-1
-1
-1
-1
-1
-1
-1
