# vtk DataFile Version 3.0
embmesh fibers
ASCII
DATASET POLYDATA
POINTS 84 float
0 0.075 0.075
1 0.075 0.075
0 0.225 0.075
1 0.225 0.075
0 0.375 0.075
1 0.375 0.075
0 0.525 0.075
1 0.525 0.075
0 0.675 0.075
1 0.675 0.075
0 0.825 0.075
1 0.825 0.075
0 0.975 0.075
1 0.975 0.075
0.075 0 0.225
0.075 1 0.225
0.225 0 0.225
0.225 1 0.225
0.375 0 0.225
0.375 1 0.225
0.525 0 0.225
0.525 1 0.225
0.675 0 0.225
0.675 1 0.225
0.825 0 0.225
0.825 1 0.225
0.975 0 0.225
0.975 1 0.225
0 0.075 0.375
1 0.075 0.375
0 0.225 0.375
1 0.225 0.375
0 0.375 0.375
1 0.375 0.375
0 0.525 0.375
1 0.525 0.375
0 0.675 0.375
1 0.675 0.375
0 0.825 0.375
1 0.825 0.375
0 0.975 0.375
1 0.975 0.375
0.075 0 0.525
0.075 1 0.525
0.225 0 0.525
0.225 1 0.525
0.375 0 0.525
0.375 1 0.525
0.525 0 0.525
0.525 1 0.525
0.675 0 0.525
0.675 1 0.525
0.825 0 0.525
0.825 1 0.525
0.975 0 0.525
0.975 1 0.525
0 0.075 0.675
1 0.075 0.675
0 0.225 0.675
1 0.225 0.675
0 0.375 0.675
1 0.375 0.675
0 0.525 0.675
1 0.525 0.675
0 0.675 0.675
1 0.675 0.675
0 0.825 0.675
1 0.825 0.675
0 0.975 0.675
1 0.975 0.675
0.075 0 0.825
0.075 1 0.825
0.225 0 0.825
0.225 1 0.825
0.375 0 0.825
0.375 1 0.825
0.525 0 0.825
0.525 1 0.825
0.675 0 0.825
0.675 1 0.825
0.825 0 0.825
0.825 1 0.825
0.975 0 0.825
0.975 1 0.825
LINES 42 126
2 0 1
2 2 3
2 4 5
2 6 7
2 8 9
2 10 11
2 12 13
2 14 15
2 16 17
2 18 19
2 20 21
2 22 23
2 24 25
2 26 27
2 28 29
2 30 31
2 32 33
2 34 35
2 36 37
2 38 39
2 40 41
2 42 43
2 44 45
2 46 47
2 48 49
2 50 51
2 52 53
2 54 55
2 56 57
2 58 59
2 60 61
2 62 63
2 64 65
2 66 67
2 68 69
2 70 71
2 72 73
2 74 75
2 76 77
2 78 79
2 80 81
2 82 83
