# vtk DataFile Version 3.0
embmesh host/fiber visualization
ASCII
DATASET POLYDATA
POINTS 320 float
0 0 0
0.5 0 0
0.5 0.5 0
0 0.5 0
0 0 0.5
0.5 0 0.5
0.5 0.5 0.5
0 0.5 0.5
0.5 0 0
1 0 0
1 0.5 0
0.5 0.5 0
0.5 0 0.5
1 0 0.5
1 0.5 0.5
0.5 0.5 0.5
1 0 0
1.5 0 0
1.5 0.5 0
1 0.5 0
1 0 0.5
1.5 0 0.5
1.5 0.5 0.5
1 0.5 0.5
1.5 0 0
2 0 0
2 0.5 0
1.5 0.5 0
1.5 0 0.5
2 0 0.5
2 0.5 0.5
1.5 0.5 0.5
0 0.5 0
0.5 0.5 0
0.5 1 0
0 1 0
0 0.5 0.5
0.5 0.5 0.5
0.5 1 0.5
0 1 0.5
0.5 0.5 0
1 0.5 0
1 1 0
0.5 1 0
0.5 0.5 0.5
1 0.5 0.5
1 1 0.5
0.5 1 0.5
1 0.5 0
1.5 0.5 0
1.5 1 0
1 1 0
1 0.5 0.5
1.5 0.5 0.5
1.5 1 0.5
1 1 0.5
1.5 0.5 0
2 0.5 0
2 1 0
1.5 1 0
1.5 0.5 0.5
2 0.5 0.5
2 1 0.5
1.5 1 0.5
0 1 0
0.5 1 0
0.5 1.5 0
0 1.5 0
0 1 0.5
0.5 1 0.5
0.5 1.5 0.5
0 1.5 0.5
0.5 1 0
1 1 0
1 1.5 0
0.5 1.5 0
0.5 1 0.5
1 1 0.5
1 1.5 0.5
0.5 1.5 0.5
1 1 0
1.5 1 0
1.5 1.5 0
1 1.5 0
1 1 0.5
1.5 1 0.5
1.5 1.5 0.5
1 1.5 0.5
1.5 1 0
2 1 0
2 1.5 0
1.5 1.5 0
1.5 1 0.5
2 1 0.5
2 1.5 0.5
1.5 1.5 0.5
0 1.5 0
0.5 1.5 0
0.5 2 0
0 2 0
0 1.5 0.5
0.5 1.5 0.5
0.5 2 0.5
0 2 0.5
0.5 1.5 0
1 1.5 0
1 2 0
0.5 2 0
0.5 1.5 0.5
1 1.5 0.5
1 2 0.5
0.5 2 0.5
1 1.5 0
1.5 1.5 0
1.5 2 0
1 2 0
1 1.5 0.5
1.5 1.5 0.5
1.5 2 0.5
1 2 0.5
1.5 1.5 0
2 1.5 0
2 2 0
1.5 2 0
1.5 1.5 0.5
2 1.5 0.5
2 2 0.5
1.5 2 0.5
0 0 0.5
0.5 0 0.5
0.5 0.5 0.5
0 0.5 0.5
0 0 1
0.5 0 1
0.5 0.5 1
0 0.5 1
0.5 0 0.5
1 0 0.5
1 0.5 0.5
0.5 0.5 0.5
0.5 0 1
1 0 1
1 0.5 1
0.5 0.5 1
1 0 0.5
1.5 0 0.5
1.5 0.5 0.5
1 0.5 0.5
1 0 1
1.5 0 1
1.5 0.5 1
1 0.5 1
1.5 0 0.5
2 0 0.5
2 0.5 0.5
1.5 0.5 0.5
1.5 0 1
2 0 1
2 0.5 1
1.5 0.5 1
0 0.5 0.5
0.5 0.5 0.5
0.5 1 0.5
0 1 0.5
0 0.5 1
0.5 0.5 1
0.5 1 1
0 1 1
0.5 0.5 0.5
1 0.5 0.5
1 1 0.5
0.5 1 0.5
0.5 0.5 1
1 0.5 1
1 1 1
0.5 1 1
1 0.5 0.5
1.5 0.5 0.5
1.5 1 0.5
1 1 0.5
1 0.5 1
1.5 0.5 1
1.5 1 1
1 1 1
1.5 0.5 0.5
2 0.5 0.5
2 1 0.5
1.5 1 0.5
1.5 0.5 1
2 0.5 1
2 1 1
1.5 1 1
0 1 0.5
0.5 1 0.5
0.5 1.5 0.5
0 1.5 0.5
0 1 1
0.5 1 1
0.5 1.5 1
0 1.5 1
0.5 1 0.5
1 1 0.5
1 1.5 0.5
0.5 1.5 0.5
0.5 1 1
1 1 1
1 1.5 1
0.5 1.5 1
1 1 0.5
1.5 1 0.5
1.5 1.5 0.5
1 1.5 0.5
1 1 1
1.5 1 1
1.5 1.5 1
1 1.5 1
1.5 1 0.5
2 1 0.5
2 1.5 0.5
1.5 1.5 0.5
1.5 1 1
2 1 1
2 1.5 1
1.5 1.5 1
0 1.5 0.5
0.5 1.5 0.5
0.5 2 0.5
0 2 0.5
0 1.5 1
0.5 1.5 1
0.5 2 1
0 2 1
0.5 1.5 0.5
1 1.5 0.5
1 2 0.5
0.5 2 0.5
0.5 1.5 1
1 1.5 1
1 2 1
0.5 2 1
1 1.5 0.5
1.5 1.5 0.5
1.5 2 0.5
1 2 0.5
1 1.5 1
1.5 1.5 1
1.5 2 1
1 2 1
1.5 1.5 0.5
2 1.5 0.5
2 2 0.5
1.5 2 0.5
1.5 1.5 1
2 1.5 1
2 2 1
1.5 2 1
0 0.125 0.125
2 0.125 0.125
0 0.375 0.125
2 0.375 0.125
0 0.625 0.125
2 0.625 0.125
0 0.875 0.125
2 0.875 0.125
0 1.125 0.125
2 1.125 0.125
0 1.375 0.125
2 1.375 0.125
0 1.625 0.125
2 1.625 0.125
0 1.875 0.125
2 1.875 0.125
0.125 0 0.375
0.125 2 0.375
0.375 0 0.375
0.375 2 0.375
0.625 0 0.375
0.625 2 0.375
0.875 0 0.375
0.875 2 0.375
1.125 0 0.375
1.125 2 0.375
1.375 0 0.375
1.375 2 0.375
1.625 0 0.375
1.625 2 0.375
1.875 0 0.375
1.875 2 0.375
0 0.125 0.625
2 0.125 0.625
0 0.375 0.625
2 0.375 0.625
0 0.625 0.625
2 0.625 0.625
0 0.875 0.625
2 0.875 0.625
0 1.125 0.625
2 1.125 0.625
0 1.375 0.625
2 1.375 0.625
0 1.625 0.625
2 1.625 0.625
0 1.875 0.625
2 1.875 0.625
0.125 0 0.875
0.125 2 0.875
0.375 0 0.875
0.375 2 0.875
0.625 0 0.875
0.625 2 0.875
0.875 0 0.875
0.875 2 0.875
1.125 0 0.875
1.125 2 0.875
1.375 0 0.875
1.375 2 0.875
1.625 0 0.875
1.625 2 0.875
1.875 0 0.875
1.875 2 0.875
LINES 416 1248
2 0 1
2 1 2
2 2 3
2 3 0
2 4 5
2 5 6
2 6 7
2 7 4
2 0 4
2 1 5
2 2 6
2 3 7
2 8 9
2 9 10
2 10 11
2 11 8
2 12 13
2 13 14
2 14 15
2 15 12
2 8 12
2 9 13
2 10 14
2 11 15
2 16 17
2 17 18
2 18 19
2 19 16
2 20 21
2 21 22
2 22 23
2 23 20
2 16 20
2 17 21
2 18 22
2 19 23
2 24 25
2 25 26
2 26 27
2 27 24
2 28 29
2 29 30
2 30 31
2 31 28
2 24 28
2 25 29
2 26 30
2 27 31
2 32 33
2 33 34
2 34 35
2 35 32
2 36 37
2 37 38
2 38 39
2 39 36
2 32 36
2 33 37
2 34 38
2 35 39
2 40 41
2 41 42
2 42 43
2 43 40
2 44 45
2 45 46
2 46 47
2 47 44
2 40 44
2 41 45
2 42 46
2 43 47
2 48 49
2 49 50
2 50 51
2 51 48
2 52 53
2 53 54
2 54 55
2 55 52
2 48 52
2 49 53
2 50 54
2 51 55
2 56 57
2 57 58
2 58 59
2 59 56
2 60 61
2 61 62
2 62 63
2 63 60
2 56 60
2 57 61
2 58 62
2 59 63
2 64 65
2 65 66
2 66 67
2 67 64
2 68 69
2 69 70
2 70 71
2 71 68
2 64 68
2 65 69
2 66 70
2 67 71
2 72 73
2 73 74
2 74 75
2 75 72
2 76 77
2 77 78
2 78 79
2 79 76
2 72 76
2 73 77
2 74 78
2 75 79
2 80 81
2 81 82
2 82 83
2 83 80
2 84 85
2 85 86
2 86 87
2 87 84
2 80 84
2 81 85
2 82 86
2 83 87
2 88 89
2 89 90
2 90 91
2 91 88
2 92 93
2 93 94
2 94 95
2 95 92
2 88 92
2 89 93
2 90 94
2 91 95
2 96 97
2 97 98
2 98 99
2 99 96
2 100 101
2 101 102
2 102 103
2 103 100
2 96 100
2 97 101
2 98 102
2 99 103
2 104 105
2 105 106
2 106 107
2 107 104
2 108 109
2 109 110
2 110 111
2 111 108
2 104 108
2 105 109
2 106 110
2 107 111
2 112 113
2 113 114
2 114 115
2 115 112
2 116 117
2 117 118
2 118 119
2 119 116
2 112 116
2 113 117
2 114 118
2 115 119
2 120 121
2 121 122
2 122 123
2 123 120
2 124 125
2 125 126
2 126 127
2 127 124
2 120 124
2 121 125
2 122 126
2 123 127
2 128 129
2 129 130
2 130 131
2 131 128
2 132 133
2 133 134
2 134 135
2 135 132
2 128 132
2 129 133
2 130 134
2 131 135
2 136 137
2 137 138
2 138 139
2 139 136
2 140 141
2 141 142
2 142 143
2 143 140
2 136 140
2 137 141
2 138 142
2 139 143
2 144 145
2 145 146
2 146 147
2 147 144
2 148 149
2 149 150
2 150 151
2 151 148
2 144 148
2 145 149
2 146 150
2 147 151
2 152 153
2 153 154
2 154 155
2 155 152
2 156 157
2 157 158
2 158 159
2 159 156
2 152 156
2 153 157
2 154 158
2 155 159
2 160 161
2 161 162
2 162 163
2 163 160
2 164 165
2 165 166
2 166 167
2 167 164
2 160 164
2 161 165
2 162 166
2 163 167
2 168 169
2 169 170
2 170 171
2 171 168
2 172 173
2 173 174
2 174 175
2 175 172
2 168 172
2 169 173
2 170 174
2 171 175
2 176 177
2 177 178
2 178 179
2 179 176
2 180 181
2 181 182
2 182 183
2 183 180
2 176 180
2 177 181
2 178 182
2 179 183
2 184 185
2 185 186
2 186 187
2 187 184
2 188 189
2 189 190
2 190 191
2 191 188
2 184 188
2 185 189
2 186 190
2 187 191
2 192 193
2 193 194
2 194 195
2 195 192
2 196 197
2 197 198
2 198 199
2 199 196
2 192 196
2 193 197
2 194 198
2 195 199
2 200 201
2 201 202
2 202 203
2 203 200
2 204 205
2 205 206
2 206 207
2 207 204
2 200 204
2 201 205
2 202 206
2 203 207
2 208 209
2 209 210
2 210 211
2 211 208
2 212 213
2 213 214
2 214 215
2 215 212
2 208 212
2 209 213
2 210 214
2 211 215
2 216 217
2 217 218
2 218 219
2 219 216
2 220 221
2 221 222
2 222 223
2 223 220
2 216 220
2 217 221
2 218 222
2 219 223
2 224 225
2 225 226
2 226 227
2 227 224
2 228 229
2 229 230
2 230 231
2 231 228
2 224 228
2 225 229
2 226 230
2 227 231
2 232 233
2 233 234
2 234 235
2 235 232
2 236 237
2 237 238
2 238 239
2 239 236
2 232 236
2 233 237
2 234 238
2 235 239
2 240 241
2 241 242
2 242 243
2 243 240
2 244 245
2 245 246
2 246 247
2 247 244
2 240 244
2 241 245
2 242 246
2 243 247
2 248 249
2 249 250
2 250 251
2 251 248
2 252 253
2 253 254
2 254 255
2 255 252
2 248 252
2 249 253
2 250 254
2 251 255
2 256 257
2 258 259
2 260 261
2 262 263
2 264 265
2 266 267
2 268 269
2 270 271
2 272 273
2 274 275
2 276 277
2 278 279
2 280 281
2 282 283
2 284 285
2 286 287
2 288 289
2 290 291
2 292 293
2 294 295
2 296 297
2 298 299
2 300 301
2 302 303
2 304 305
2 306 307
2 308 309
2 310 311
2 312 313
2 314 315
2 316 317
2 318 319
CELL_DATA 416
SCALARS host_volume_fraction float 1
LOOKUP_TABLE default
0.785398163397
0.785398163397
0.785398163397
0.785398163397
0.785398163397
0.785398163397
0.785398163397
0.785398163397
0.785398163397
0.785398163397
0.785398163397
0.785398163397
0.785398163397
0.785398163397
0.785398163397
0.785398163397
0.785398163397
0.785398163397
0.785398163397
0.785398163397
0.785398163397
0.785398163397
0.785398163397
0.785398163397
0.785398163397
0.785398163397
0.785398163397
0.785398163397
0.785398163397
0.785398163397
0.785398163397
0.785398163397
0.785398163397
0.785398163397
0.785398163397
0.785398163397
0.785398163397
0.785398163397
0.785398163397
0.785398163397
0.785398163397
0.785398163397
0.785398163397
0.785398163397
0.785398163397
0.785398163397
0.785398163397
0.785398163397
0.785398163397
0.785398163397
0.785398163397
0.785398163397
0.785398163397
0.785398163397
0.785398163397
0.785398163397
0.785398163397
0.785398163397
0.785398163397
0.785398163397
0.785398163397
0.785398163397
0.785398163397
0.785398163397
0.785398163397
0.785398163397
0.785398163397
0.785398163397
0.785398163397
0.785398163397
0.785398163397
0.785398163397
0.785398163397
0.785398163397
0.785398163397
0.785398163397
0.785398163397
0.785398163397
0.785398163397
0.785398163397
0.785398163397
0.785398163397
0.785398163397
0.785398163397
0.785398163397
0.785398163397
0.785398163397
0.785398163397
0.785398163397
0.785398163397
0.785398163397
0.785398163397
0.785398163397
0.785398163397
0.785398163397
0.785398163397
0.785398163397
0.785398163397
0.785398163397
0.785398163397
0.785398163397
0.785398163397
0.785398163397
0.785398163397
0.785398163397
0.785398163397
0.785398163397
0.785398163397
0.785398163397
0.785398163397
0.785398163397
0.785398163397
0.785398163397
0.785398163397
0.785398163397
0.785398163397
0.785398163397
0.785398163397
0.785398163397
0.785398163397
0.785398163397
0.785398163397
0.785398163397
0.785398163397
0.785398163397
0.785398163397
0.785398163397
0.785398163397
0.785398163397
0.785398163397
0.785398163397
0.785398163397
0.785398163397
0.785398163397
0.785398163397
0.785398163397
0.785398163397
0.785398163397
0.785398163397
0.785398163397
0.785398163397
0.785398163397
0.785398163397
0.785398163397
0.785398163397
0.785398163397
0.785398163397
0.785398163397
0.785398163397
0.785398163397
0.785398163397
0.785398163397
0.785398163397
0.785398163397
0.785398163397
0.785398163397
0.785398163397
0.785398163397
0.785398163397
0.785398163397
0.785398163397
0.785398163397
0.785398163397
0.785398163397
0.785398163397
0.785398163397
0.785398163397
0.785398163397
0.785398163397
0.785398163397
0.785398163397
0.785398163397
0.785398163397
0.785398163397
0.785398163397
0.785398163397
0.785398163397
0.785398163397
0.785398163397
0.785398163397
0.785398163397
0.785398163397
0.785398163397
0.785398163397
0.785398163397
0.785398163397
0.785398163397
0.785398163397
0.785398163397
0.785398163397
0.785398163397
0.785398163397
0.785398163397
0.785398163397
0.785398163397
0.785398163397
0.785398163397
0.785398163397
0.785398163397
0.785398163397
0.785398163397
0.785398163397
0.785398163397
0.785398163397
0.785398163397
0.785398163397
0.785398163397
0.785398163397
0.785398163397
0.785398163397
0.785398163397
0.785398163397
0.785398163397
0.785398163397
0.785398163397
0.785398163397
0.785398163397
0.785398163397
0.785398163397
0.785398163397
0.785398163397
0.785398163397
0.785398163397
0.785398163397
0.785398163397
0.785398163397
0.785398163397
0.785398163397
0.785398163397
0.785398163397
0.785398163397
0.785398163397
0.785398163397
0.785398163397
0.785398163397
0.785398163397
0.785398163397
0.785398163397
0.785398163397
0.785398163397
0.785398163397
0.785398163397
0.785398163397
0.785398163397
0.785398163397
0.785398163397
0.785398163397
0.785398163397
0.785398163397
0.785398163397
0.785398163397
0.785398163397
0.785398163397
0.785398163397
0.785398163397
0.785398163397
0.785398163397
0.785398163397
0.785398163397
0.785398163397
0.785398163397
0.785398163397
0.785398163397
0.785398163397
0.785398163397
0.785398163397
0.785398163397
0.785398163397
0.785398163397
0.785398163397
0.785398163397
0.785398163397
0.785398163397
0.785398163397
0.785398163397
0.785398163397
0.785398163397
0.785398163397
0.785398163397
0.785398163397
0.785398163397
0.785398163397
0.785398163397
0.785398163397
0.785398163397
0.785398163397
0.785398163397
0.785398163397
0.785398163397
0.785398163397
0.785398163397
0.785398163397
0.785398163397
0.785398163397
0.785398163397
0.785398163397
0.785398163397
0.785398163397
0.785398163397
0.785398163397
0.785398163397
0.785398163397
0.785398163397
0.785398163397
0.785398163397
0.785398163397
0.785398163397
0.785398163397
0.785398163397
0.785398163397
0.785398163397
0.785398163397
0.785398163397
0.785398163397
0.785398163397
0.785398163397
0.785398163397
0.785398163397
0.785398163397
0.785398163397
0.785398163397
0.785398163397
0.785398163397
0.785398163397
0.785398163397
0.785398163397
0.785398163397
0.785398163397
0.785398163397
0.785398163397
0.785398163397
0.785398163397
0.785398163397
0.785398163397
0.785398163397
0.785398163397
0.785398163397
0.785398163397
0.785398163397
0.785398163397
0.785398163397
0.785398163397
0.785398163397
0.785398163397
0.785398163397
0.785398163397
0.785398163397
0.785398163397
0.785398163397
0.785398163397
0.785398163397
0.785398163397
0.785398163397
0.785398163397
0.785398163397
0.785398163397
0.785398163397
0.785398163397
0.785398163397
0.785398163397
0.785398163397
0.785398163397
0.785398163397
0.785398163397
0.785398163397
0.785398163397
0.785398163397
0.785398163397
0.785398163397
0.785398163397
0.785398163397
0.785398163397
0.785398163397
0.785398163397
0.785398163397
0.785398163397
0.785398163397
0.785398163397
0.785398163397
0.785398163397
0.785398163397
0.785398163397
0.785398163397
0.785398163397
-1
-1
-1
-1
-1
-1
-1
-1
-1
-1
-1
-1
-1
-1
-1
-1
-1
-1
-1
-1
-1
-1
-1
-1
-1
-1
-1
-1
-1
-1
-1
-1
