# vtk DataFile Version 3.0
embmesh fibers
ASCII
DATASET POLYDATA
POINTS 356 float
0 13.5858 5
100 13.5858 5
0 12.1716 6.41421
100 12.1716 6.41421
0 10.7574 7.82843
100 10.7574 7.82843
0 9.34315 9.24264
100 9.34315 9.24264
0 7.92893 10.6569
100 7.92893 10.6569
0 6.51472 12.0711
100 6.51472 12.0711
0 5.10051 13.4853
100 5.10051 13.4853
1 12.8787 2.87868
1 2.87868 12.8787
3 12.8787 2.87868
3 2.87868 12.8787
5 12.8787 2.87868
5 2.87868 12.8787
7 12.8787 2.87868
7 2.87868 12.8787
9 12.8787 2.87868
9 2.87868 12.8787
11 12.8787 2.87868
11 2.87868 12.8787
13 12.8787 2.87868
13 2.87868 12.8787
15 12.8787 2.87868
15 2.87868 12.8787
17 12.8787 2.87868
17 2.87868 12.8787
19 12.8787 2.87868
19 2.87868 12.8787
21 12.8787 2.87868
21 2.87868 12.8787
23 12.8787 2.87868
23 2.87868 12.8787
25 12.8787 2.87868
25 2.87868 12.8787
27 12.8787 2.87868
27 2.87868 12.8787
29 12.8787 2.87868
29 2.87868 12.8787
31 12.8787 2.87868
31 2.87868 12.8787
33 12.8787 2.87868
33 2.87868 12.8787
35 12.8787 2.87868
35 2.87868 12.8787
37 12.8787 2.87868
37 2.87868 12.8787
39 12.8787 2.87868
39 2.87868 12.8787
41 12.8787 2.87868
41 2.87868 12.8787
43 12.8787 2.87868
43 2.87868 12.8787
45 12.8787 2.87868
45 2.87868 12.8787
47 12.8787 2.87868
47 2.87868 12.8787
49 12.8787 2.87868
49 2.87868 12.8787
51 12.8787 2.87868
51 2.87868 12.8787
53 12.8787 2.87868
53 2.87868 12.8787
55 12.8787 2.87868
55 2.87868 12.8787
57 12.8787 2.87868
57 2.87868 12.8787
59 12.8787 2.87868
59 2.87868 12.8787
61 12.8787 2.87868
61 2.87868 12.8787
63 12.8787 2.87868
63 2.87868 12.8787
65 12.8787 2.87868
65 2.87868 12.8787
67 12.8787 2.87868
67 2.87868 12.8787
69 12.8787 2.87868
69 2.87868 12.8787
71 12.8787 2.87868
71 2.87868 12.8787
73 12.8787 2.87868
73 2.87868 12.8787
75 12.8787 2.87868
75 2.87868 12.8787
77 12.8787 2.87868
77 2.87868 12.8787
79 12.8787 2.87868
79 2.87868 12.8787
81 12.8787 2.87868
81 2.87868 12.8787
83 12.8787 2.87868
83 2.87868 12.8787
85 12.8787 2.87868
85 2.87868 12.8787
87 12.8787 2.87868
87 2.87868 12.8787
89 12.8787 2.87868
89 2.87868 12.8787
91 12.8787 2.87868
91 2.87868 12.8787
93 12.8787 2.87868
93 2.87868 12.8787
95 12.8787 2.87868
95 2.87868 12.8787
97 12.8787 2.87868
97 2.87868 12.8787
99 12.8787 2.87868
99 2.87868 12.8787
0 10.7574 2.17157
100 10.7574 2.17157
0 9.34315 3.58579
100 9.34315 3.58579
0 7.92893 5
100 7.92893 5
0 6.51472 6.41421
100 6.51472 6.41421
0 5.10051 7.82843
100 5.10051 7.82843
0 3.68629 9.24264
100 3.68629 9.24264
0 2.27208 10.6569
100 2.27208 10.6569
1 10.0503 0.0502525
1 0.0502525 10.0503
3 10.0503 0.0502525
3 0.0502525 10.0503
5 10.0503 0.0502525
5 0.0502525 10.0503
7 10.0503 0.0502525
7 0.0502525 10.0503
9 10.0503 0.0502525
9 0.0502525 10.0503
11 10.0503 0.0502525
11 0.0502525 10.0503
13 10.0503 0.0502525
13 0.0502525 10.0503
15 10.0503 0.0502525
15 0.0502525 10.0503
17 10.0503 0.0502525
17 0.0502525 10.0503
19 10.0503 0.0502525
19 0.0502525 10.0503
21 10.0503 0.0502525
21 0.0502525 10.0503
23 10.0503 0.0502525
23 0.0502525 10.0503
25 10.0503 0.0502525
25 0.0502525 10.0503
27 10.0503 0.0502525
27 0.0502525 10.0503
29 10.0503 0.0502525
29 0.0502525 10.0503
31 10.0503 0.0502525
31 0.0502525 10.0503
33 10.0503 0.0502525
33 0.0502525 10.0503
35 10.0503 0.0502525
35 0.0502525 10.0503
37 10.0503 0.0502525
37 0.0502525 10.0503
39 10.0503 0.0502525
39 0.0502525 10.0503
41 10.0503 0.0502525
41 0.0502525 10.0503
43 10.0503 0.0502525
43 0.0502525 10.0503
45 10.0503 0.0502525
45 0.0502525 10.0503
47 10.0503 0.0502525
47 0.0502525 10.0503
49 10.0503 0.0502525
49 0.0502525 10.0503
51 10.0503 0.0502525
51 0.0502525 10.0503
53 10.0503 0.0502525
53 0.0502525 10.0503
55 10.0503 0.0502525
55 0.0502525 10.0503
57 10.0503 0.0502525
57 0.0502525 10.0503
59 10.0503 0.0502525
59 0.0502525 10.0503
61 10.0503 0.0502525
61 0.0502525 10.0503
63 10.0503 0.0502525
63 0.0502525 10.0503
65 10.0503 0.0502525
65 0.0502525 10.0503
67 10.0503 0.0502525
67 0.0502525 10.0503
69 10.0503 0.0502525
69 0.0502525 10.0503
71 10.0503 0.0502525
71 0.0502525 10.0503
73 10.0503 0.0502525
73 0.0502525 10.0503
75 10.0503 0.0502525
75 0.0502525 10.0503
77 10.0503 0.0502525
77 0.0502525 10.0503
79 10.0503 0.0502525
79 0.0502525 10.0503
81 10.0503 0.0502525
81 0.0502525 10.0503
83 10.0503 0.0502525
83 0.0502525 10.0503
85 10.0503 0.0502525
85 0.0502525 10.0503
87 10.0503 0.0502525
87 0.0502525 10.0503
89 10.0503 0.0502525
89 0.0502525 10.0503
91 10.0503 0.0502525
91 0.0502525 10.0503
93 10.0503 0.0502525
93 0.0502525 10.0503
95 10.0503 0.0502525
95 0.0502525 10.0503
97 10.0503 0.0502525
97 0.0502525 10.0503
99 10.0503 0.0502525
99 0.0502525 10.0503
0 7.92893 -0.656854
100 7.92893 -0.656854
0 6.51472 0.757359
100 6.51472 0.757359
0 5.10051 2.17157
100 5.10051 2.17157
0 3.68629 3.58579
100 3.68629 3.58579
0 2.27208 5
100 2.27208 5
0 0.857864 6.41421
100 0.857864 6.41421
0 -0.556349 7.82843
100 -0.556349 7.82843
1 7.22183 -2.77817
1 -2.77817 7.22183
3 7.22183 -2.77817
3 -2.77817 7.22183
5 7.22183 -2.77817
5 -2.77817 7.22183
7 7.22183 -2.77817
7 -2.77817 7.22183
9 7.22183 -2.77817
9 -2.77817 7.22183
11 7.22183 -2.77817
11 -2.77817 7.22183
13 7.22183 -2.77817
13 -2.77817 7.22183
15 7.22183 -2.77817
15 -2.77817 7.22183
17 7.22183 -2.77817
17 -2.77817 7.22183
19 7.22183 -2.77817
19 -2.77817 7.22183
21 7.22183 -2.77817
21 -2.77817 7.22183
23 7.22183 -2.77817
23 -2.77817 7.22183
25 7.22183 -2.77817
25 -2.77817 7.22183
27 7.22183 -2.77817
27 -2.77817 7.22183
29 7.22183 -2.77817
29 -2.77817 7.22183
31 7.22183 -2.77817
31 -2.77817 7.22183
33 7.22183 -2.77817
33 -2.77817 7.22183
35 7.22183 -2.77817
35 -2.77817 7.22183
37 7.22183 -2.77817
37 -2.77817 7.22183
39 7.22183 -2.77817
39 -2.77817 7.22183
41 7.22183 -2.77817
41 -2.77817 7.22183
43 7.22183 -2.77817
43 -2.77817 7.22183
45 7.22183 -2.77817
45 -2.77817 7.22183
47 7.22183 -2.77817
47 -2.77817 7.22183
49 7.22183 -2.77817
49 -2.77817 7.22183
51 7.22183 -2.77817
51 -2.77817 7.22183
53 7.22183 -2.77817
53 -2.77817 7.22183
55 7.22183 -2.77817
55 -2.77817 7.22183
57 7.22183 -2.77817
57 -2.77817 7.22183
59 7.22183 -2.77817
59 -2.77817 7.22183
61 7.22183 -2.77817
61 -2.77817 7.22183
63 7.22183 -2.77817
63 -2.77817 7.22183
65 7.22183 -2.77817
65 -2.77817 7.22183
67 7.22183 -2.77817
67 -2.77817 7.22183
69 7.22183 -2.77817
69 -2.77817 7.22183
71 7.22183 -2.77817
71 -2.77817 7.22183
73 7.22183 -2.77817
73 -2.77817 7.22183
75 7.22183 -2.77817
75 -2.77817 7.22183
77 7.22183 -2.77817
77 -2.77817 7.22183
79 7.22183 -2.77817
79 -2.77817 7.22183
81 7.22183 -2.77817
81 -2.77817 7.22183
83 7.22183 -2.77817
83 -2.77817 7.22183
85 7.22183 -2.77817
85 -2.77817 7.22183
87 7.22183 -2.77817
87 -2.77817 7.22183
89 7.22183 -2.77817
89 -2.77817 7.22183
91 7.22183 -2.77817
91 -2.77817 7.22183
93 7.22183 -2.77817
93 -2.77817 7.22183
95 7.22183 -2.77817
95 -2.77817 7.22183
97 7.22183 -2.77817
97 -2.77817 7.22183
99 7.22183 -2.77817
99 -2.77817 7.22183
0 5.10051 -3.48528
100 5.10051 -3.48528
0 3.68629 -2.07107
100 3.68629 -2.07107
0 2.27208 -0.656854
100 2.27208 -0.656854
0 0.857864 0.757359
100 0.857864 0.757359
0 -0.556349 2.17157
100 -0.556349 2.17157
0 -1.97056 3.58579
100 -1.97056 3.58579
0 -3.38478 5
100 -3.38478 5
LINES 178 534
2 0 1
2 2 3
2 4 5
2 6 7
2 8 9
2 10 11
2 12 13
2 14 15
2 16 17
2 18 19
2 20 21
2 22 23
2 24 25
2 26 27
2 28 29
2 30 31
2 32 33
2 34 35
2 36 37
2 38 39
2 40 41
2 42 43
2 44 45
2 46 47
2 48 49
2 50 51
2 52 53
2 54 55
2 56 57
2 58 59
2 60 61
2 62 63
2 64 65
2 66 67
2 68 69
2 70 71
2 72 73
2 74 75
2 76 77
2 78 79
2 80 81
2 82 83
2 84 85
2 86 87
2 88 89
2 90 91
2 92 93
2 94 95
2 96 97
2 98 99
2 100 101
2 102 103
2 104 105
2 106 107
2 108 109
2 110 111
2 112 113
2 114 115
2 116 117
2 118 119
2 120 121
2 122 123
2 124 125
2 126 127
2 128 129
2 130 131
2 132 133
2 134 135
2 136 137
2 138 139
2 140 141
2 142 143
2 144 145
2 146 147
2 148 149
2 150 151
2 152 153
2 154 155
2 156 157
2 158 159
2 160 161
2 162 163
2 164 165
2 166 167
2 168 169
2 170 171
2 172 173
2 174 175
2 176 177
2 178 179
2 180 181
2 182 183
2 184 185
2 186 187
2 188 189
2 190 191
2 192 193
2 194 195
2 196 197
2 198 199
2 200 201
2 202 203
2 204 205
2 206 207
2 208 209
2 210 211
2 212 213
2 214 215
2 216 217
2 218 219
2 220 221
2 222 223
2 224 225
2 226 227
2 228 229
2 230 231
2 232 233
2 234 235
2 236 237
2 238 239
2 240 241
2 242 243
2 244 245
2 246 247
2 248 249
2 250 251
2 252 253
2 254 255
2 256 257
2 258 259
2 260 261
2 262 263
2 264 265
2 266 267
2 268 269
2 270 271
2 272 273
2 274 275
2 276 277
2 278 279
2 280 281
2 282 283
2 284 285
2 286 287
2 288 289
2 290 291
2 292 293
2 294 295
2 296 297
2 298 299
2 300 301
2 302 303
2 304 305
2 306 307
2 308 309
2 310 311
2 312 313
2 314 315
2 316 317
2 318 319
2 320 321
2 322 323
2 324 325
2 326 327
2 328 329
2 330 331
2 332 333
2 334 335
2 336 337
2 338 339
2 340 341
2 342 343
2 344 345
2 346 347
2 348 349
2 350 351
2 352 353
2 354 355
