# vtk DataFile Version 3.0
embmesh fibers
ASCII
DATASET POLYDATA
POINTS 144 float
0 0.125 0.125
3 0.125 0.125
0 0.375 0.125
3 0.375 0.125
0 0.625 0.125
3 0.625 0.125
0 0.875 0.125
3 0.875 0.125
0 1.125 0.125
3 1.125 0.125
0 1.375 0.125
3 1.375 0.125
0 1.625 0.125
3 1.625 0.125
0 1.875 0.125
3 1.875 0.125
0 2.125 0.125
3 2.125 0.125
0 2.375 0.125
3 2.375 0.125
0 2.625 0.125
3 2.625 0.125
0 2.875 0.125
3 2.875 0.125
0.125 0 0.375
0.125 3 0.375
0.375 0 0.375
0.375 3 0.375
0.625 0 0.375
0.625 3 0.375
0.875 0 0.375
0.875 3 0.375
1.125 0 0.375
1.125 3 0.375
1.375 0 0.375
1.375 3 0.375
1.625 0 0.375
1.625 3 0.375
1.875 0 0.375
1.875 3 0.375
2.125 0 0.375
2.125 3 0.375
2.375 0 0.375
2.375 3 0.375
2.625 0 0.375
2.625 3 0.375
2.875 0 0.375
2.875 3 0.375
0 0.125 0.625
3 0.125 0.625
0 0.375 0.625
3 0.375 0.625
0 0.625 0.625
3 0.625 0.625
0 0.875 0.625
3 0.875 0.625
0 1.125 0.625
3 1.125 0.625
0 1.375 0.625
3 1.375 0.625
0 1.625 0.625
3 1.625 0.625
0 1.875 0.625
3 1.875 0.625
0 2.125 0.625
3 2.125 0.625
0 2.375 0.625
3 2.375 0.625
0 2.625 0.625
3 2.625 0.625
0 2.875 0.625
3 2.875 0.625
0.125 0 0.875
0.125 3 0.875
0.375 0 0.875
0.375 3 0.875
0.625 0 0.875
0.625 3 0.875
0.875 0 0.875
0.875 3 0.875
1.125 0 0.875
1.125 3 0.875
1.375 0 0.875
1.375 3 0.875
1.625 0 0.875
1.625 3 0.875
1.875 0 0.875
1.875 3 0.875
2.125 0 0.875
2.125 3 0.875
2.375 0 0.875
2.375 3 0.875
2.625 0 0.875
2.625 3 0.875
2.875 0 0.875
2.875 3 0.875
0 0.125 1.125
3 0.125 1.125
0 0.375 1.125
3 0.375 1.125
0 0.625 1.125
3 0.625 1.125
0 0.875 1.125
3 0.875 1.125
0 1.125 1.125
3 1.125 1.125
0 1.375 1.125
3 1.375 1.125
0 1.625 1.125
3 1.625 1.125
0 1.875 1.125
3 1.875 1.125
0 2.125 1.125
3 2.125 1.125
0 2.375 1.125
3 2.375 1.125
0 2.625 1.125
3 2.625 1.125
0 2.875 1.125
3 2.875 1.125
0.125 0 1.375
0.125 3 1.375
0.375 0 1.375
0.375 3 1.375
0.625 0 1.375
0.625 3 1.375
0.875 0 1.375
0.875 3 1.375
1.125 0 1.375
1.125 3 1.375
1.375 0 1.375
1.375 3 1.375
1.625 0 1.375
1.625 3 1.375
1.875 0 1.375
1.875 3 1.375
2.125 0 1.375
2.125 3 1.375
2.375 0 1.375
2.375 3 1.375
2.625 0 1.375
2.625 3 1.375
2.875 0 1.375
2.875 3 1.375
LINES 72 216
2 0 1
2 2 3
2 4 5
2 6 7
2 8 9
2 10 11
2 12 13
2 14 15
2 16 17
2 18 19
2 20 21
2 22 23
2 24 25
2 26 27
2 28 29
2 30 31
2 32 33
2 34 35
2 36 37
2 38 39
2 40 41
2 42 43
2 44 45
2 46 47
2 48 49
2 50 51
2 52 53
2 54 55
2 56 57
2 58 59
2 60 61
2 62 63
2 64 65
2 66 67
2 68 69
2 70 71
2 72 73
2 74 75
2 76 77
2 78 79
2 80 81
2 82 83
2 84 85
2 86 87
2 88 89
2 90 91
2 92 93
2 94 95
2 96 97
2 98 99
2 100 101
2 102 103
2 104 105
2 106 107
2 108 109
2 110 111
2 112 113
2 114 115
2 116 117
2 118 119
2 120 121
2 122 123
2 124 125
2 126 127
2 128 129
2 130 131
2 132 133
2 134 135
2 136 137
2 138 139
2 140 141
2 142 143
