# vtk DataFile Version 3.0
embmesh fibers
ASCII
DATASET POLYDATA
POINTS 276 float
0 0.263246 -0.473509
2 0.263246 -0.473509
0 0.452982 -0.410263
2 0.452982 -0.410263
0 0.642719 -0.347018
2 0.642719 -0.347018
0 0.832456 -0.283772
2 0.832456 -0.283772
0 1.02219 -0.220527
2 1.02219 -0.220527
0 1.21193 -0.157281
2 1.21193 -0.157281
0 1.40167 -0.0940356
2 1.40167 -0.0940356
0 1.5914 -0.03079
2 1.5914 -0.03079
0 1.78114 0.0324555
2 1.78114 0.0324555
0 1.97088 0.0957011
2 1.97088 0.0957011
0 2.16061 0.158947
2 2.16061 0.158947
0 2.35035 0.222192
2 2.35035 0.222192
0 2.54009 0.285438
2 2.54009 0.285438
0.1 0.105132 -0.315395
0.1 2.50513 0.484605
0.3 0.105132 -0.315395
0.3 2.50513 0.484605
0.5 0.105132 -0.315395
0.5 2.50513 0.484605
0.7 0.105132 -0.315395
0.7 2.50513 0.484605
0.9 0.105132 -0.315395
0.9 2.50513 0.484605
1.1 0.105132 -0.315395
1.1 2.50513 0.484605
1.3 0.105132 -0.315395
1.3 2.50513 0.484605
1.5 0.105132 -0.315395
1.5 2.50513 0.484605
1.7 0.105132 -0.315395
1.7 2.50513 0.484605
1.9 0.105132 -0.315395
1.9 2.50513 0.484605
0 0.136754 -0.0940356
2 0.136754 -0.0940356
0 0.326491 -0.03079
2 0.326491 -0.03079
0 0.516228 0.0324555
2 0.516228 0.0324555
0 0.705964 0.0957011
2 0.705964 0.0957011
0 0.895701 0.158947
2 0.895701 0.158947
0 1.08544 0.222192
2 1.08544 0.222192
0 1.27517 0.285438
2 1.27517 0.285438
0 1.46491 0.348683
2 1.46491 0.348683
0 1.65465 0.411929
2 1.65465 0.411929
0 1.84438 0.475174
2 1.84438 0.475174
0 2.03412 0.53842
2 2.03412 0.53842
0 2.22386 0.601666
2 2.22386 0.601666
0 2.41359 0.664911
2 2.41359 0.664911
0.1 -0.0213594 0.0640783
0.1 2.37864 0.864078
0.3 -0.0213594 0.0640783
0.3 2.37864 0.864078
0.5 -0.0213594 0.0640783
0.5 2.37864 0.864078
0.7 -0.0213594 0.0640783
0.7 2.37864 0.864078
0.9 -0.0213594 0.0640783
0.9 2.37864 0.864078
1.1 -0.0213594 0.0640783
1.1 2.37864 0.864078
1.3 -0.0213594 0.0640783
1.3 2.37864 0.864078
1.5 -0.0213594 0.0640783
1.5 2.37864 0.864078
1.7 -0.0213594 0.0640783
1.7 2.37864 0.864078
1.9 -0.0213594 0.0640783
1.9 2.37864 0.864078
0 0.0102633 0.285438
2 0.0102633 0.285438
0 0.2 0.348683
2 0.2 0.348683
0 0.389737 0.411929
2 0.389737 0.411929
0 0.579473 0.475174
2 0.579473 0.475174
0 0.76921 0.53842
2 0.76921 0.53842
0 0.958947 0.601666
2 0.958947 0.601666
0 1.14868 0.664911
2 1.14868 0.664911
0 1.33842 0.728157
2 1.33842 0.728157
0 1.52816 0.791402
2 1.52816 0.791402
0 1.71789 0.854648
2 1.71789 0.854648
0 1.90763 0.917893
2 1.90763 0.917893
0 2.09737 0.981139
2 2.09737 0.981139
0 2.2871 1.04438
2 2.2871 1.04438
0.1 -0.147851 0.443552
0.1 2.25215 1.24355
0.3 -0.147851 0.443552
0.3 2.25215 1.24355
0.5 -0.147851 0.443552
0.5 2.25215 1.24355
0.7 -0.147851 0.443552
0.7 2.25215 1.24355
0.9 -0.147851 0.443552
0.9 2.25215 1.24355
1.1 -0.147851 0.443552
1.1 2.25215 1.24355
1.3 -0.147851 0.443552
1.3 2.25215 1.24355
1.5 -0.147851 0.443552
1.5 2.25215 1.24355
1.7 -0.147851 0.443552
1.7 2.25215 1.24355
1.9 -0.147851 0.443552
1.9 2.25215 1.24355
0 -0.116228 0.664911
2 -0.116228 0.664911
0 0.0735089 0.728157
2 0.0735089 0.728157
0 0.263246 0.791402
2 0.263246 0.791402
0 0.452982 0.854648
2 0.452982 0.854648
0 0.642719 0.917893
2 0.642719 0.917893
0 0.832456 0.981139
2 0.832456 0.981139
0 1.02219 1.04438
2 1.02219 1.04438
0 1.21193 1.10763
2 1.21193 1.10763
0 1.40167 1.17088
2 1.40167 1.17088
0 1.5914 1.23412
2 1.5914 1.23412
0 1.78114 1.29737
2 1.78114 1.29737
0 1.97088 1.36061
2 1.97088 1.36061
0 2.16061 1.42386
2 2.16061 1.42386
0.1 -0.274342 0.823025
0.1 2.12566 1.62302
0.3 -0.274342 0.823025
0.3 2.12566 1.62302
0.5 -0.274342 0.823025
0.5 2.12566 1.62302
0.7 -0.274342 0.823025
0.7 2.12566 1.62302
0.9 -0.274342 0.823025
0.9 2.12566 1.62302
1.1 -0.274342 0.823025
1.1 2.12566 1.62302
1.3 -0.274342 0.823025
1.3 2.12566 1.62302
1.5 -0.274342 0.823025
1.5 2.12566 1.62302
1.7 -0.274342 0.823025
1.7 2.12566 1.62302
1.9 -0.274342 0.823025
1.9 2.12566 1.62302
0 -0.242719 1.04438
2 -0.242719 1.04438
0 -0.0529822 1.10763
2 -0.0529822 1.10763
0 0.136754 1.17088
2 0.136754 1.17088
0 0.326491 1.23412
2 0.326491 1.23412
0 0.516228 1.29737
2 0.516228 1.29737
0 0.705964 1.36061
2 0.705964 1.36061
0 0.895701 1.42386
2 0.895701 1.42386
0 1.08544 1.4871
2 1.08544 1.4871
0 1.27517 1.55035
2 1.27517 1.55035
0 1.46491 1.61359
2 1.46491 1.61359
0 1.65465 1.67684
2 1.65465 1.67684
0 1.84438 1.74009
2 1.84438 1.74009
0 2.03412 1.80333
2 2.03412 1.80333
0.1 -0.400833 1.2025
0.1 1.99917 2.0025
0.3 -0.400833 1.2025
0.3 1.99917 2.0025
0.5 -0.400833 1.2025
0.5 1.99917 2.0025
0.7 -0.400833 1.2025
0.7 1.99917 2.0025
0.9 -0.400833 1.2025
0.9 1.99917 2.0025
1.1 -0.400833 1.2025
1.1 1.99917 2.0025
1.3 -0.400833 1.2025
1.3 1.99917 2.0025
1.5 -0.400833 1.2025
1.5 1.99917 2.0025
1.7 -0.400833 1.2025
1.7 1.99917 2.0025
1.9 -0.400833 1.2025
1.9 1.99917 2.0025
0 -0.36921 1.42386
2 -0.36921 1.42386
0 -0.179473 1.4871
2 -0.179473 1.4871
0 0.0102633 1.55035
2 0.0102633 1.55035
0 0.2 1.61359
2 0.2 1.61359
0 0.389737 1.67684
2 0.389737 1.67684
0 0.579473 1.74009
2 0.579473 1.74009
0 0.76921 1.80333
2 0.76921 1.80333
0 0.958947 1.86658
2 0.958947 1.86658
0 1.14868 1.92982
2 1.14868 1.92982
0 1.33842 1.99307
2 1.33842 1.99307
0 1.52816 2.05631
2 1.52816 2.05631
0 1.71789 2.11956
2 1.71789 2.11956
0 1.90763 2.1828
2 1.90763 2.1828
0.1 -0.527324 1.58197
0.1 1.87268 2.38197
0.3 -0.527324 1.58197
0.3 1.87268 2.38197
0.5 -0.527324 1.58197
0.5 1.87268 2.38197
0.7 -0.527324 1.58197
0.7 1.87268 2.38197
0.9 -0.527324 1.58197
0.9 1.87268 2.38197
1.1 -0.527324 1.58197
1.1 1.87268 2.38197
1.3 -0.527324 1.58197
1.3 1.87268 2.38197
1.5 -0.527324 1.58197
1.5 1.87268 2.38197
1.7 -0.527324 1.58197
1.7 1.87268 2.38197
1.9 -0.527324 1.58197
1.9 1.87268 2.38197
LINES 138 414
2 0 1
2 2 3
2 4 5
2 6 7
2 8 9
2 10 11
2 12 13
2 14 15
2 16 17
2 18 19
2 20 21
2 22 23
2 24 25
2 26 27
2 28 29
2 30 31
2 32 33
2 34 35
2 36 37
2 38 39
2 40 41
2 42 43
2 44 45
2 46 47
2 48 49
2 50 51
2 52 53
2 54 55
2 56 57
2 58 59
2 60 61
2 62 63
2 64 65
2 66 67
2 68 69
2 70 71
2 72 73
2 74 75
2 76 77
2 78 79
2 80 81
2 82 83
2 84 85
2 86 87
2 88 89
2 90 91
2 92 93
2 94 95
2 96 97
2 98 99
2 100 101
2 102 103
2 104 105
2 106 107
2 108 109
2 110 111
2 112 113
2 114 115
2 116 117
2 118 119
2 120 121
2 122 123
2 124 125
2 126 127
2 128 129
2 130 131
2 132 133
2 134 135
2 136 137
2 138 139
2 140 141
2 142 143
2 144 145
2 146 147
2 148 149
2 150 151
2 152 153
2 154 155
2 156 157
2 158 159
2 160 161
2 162 163
2 164 165
2 166 167
2 168 169
2 170 171
2 172 173
2 174 175
2 176 177
2 178 179
2 180 181
2 182 183
2 184 185
2 186 187
2 188 189
2 190 191
2 192 193
2 194 195
2 196 197
2 198 199
2 200 201
2 202 203
2 204 205
2 206 207
2 208 209
2 210 211
2 212 213
2 214 215
2 216 217
2 218 219
2 220 221
2 222 223
2 224 225
2 226 227
2 228 229
2 230 231
2 232 233
2 234 235
2 236 237
2 238 239
2 240 241
2 242 243
2 244 245
2 246 247
2 248 249
2 250 251
2 252 253
2 254 255
2 256 257
2 258 259
2 260 261
2 262 263
2 264 265
2 266 267
2 268 269
2 270 271
2 272 273
2 274 275
