# vtk DataFile Version 3.0
embmesh fibers
ASCII
DATASET POLYDATA
POINTS 200 float
0 0.05 1.95
2 0.05 1.95
0 0.05 1.85
2 0.05 1.85
0 0.05 1.75
2 0.05 1.75
0 0.05 1.65
2 0.05 1.65
0 0.05 1.55
2 0.05 1.55
0 0.05 1.45
2 0.05 1.45
0 0.05 1.35
2 0.05 1.35
0 0.05 1.25
2 0.05 1.25
0 0.05 1.15
2 0.05 1.15
0 0.05 1.05
2 0.05 1.05
0 0.05 0.95
2 0.05 0.95
0 0.05 0.85
2 0.05 0.85
0 0.05 0.75
2 0.05 0.75
0 0.05 0.65
2 0.05 0.65
0 0.05 0.55
2 0.05 0.55
0 0.05 0.45
2 0.05 0.45
0 0.05 0.35
2 0.05 0.35
0 0.05 0.25
2 0.05 0.25
0 0.05 0.15
2 0.05 0.15
0 0.05 0.05
2 0.05 0.05
0.05 0.15 2
0.05 0.15 0
0.15 0.15 2
0.15 0.15 0
0.25 0.15 2
0.25 0.15 0
0.35 0.15 2
0.35 0.15 0
0.45 0.15 2
0.45 0.15 0
0.55 0.15 2
0.55 0.15 0
0.65 0.15 2
0.65 0.15 0
0.75 0.15 2
0.75 0.15 0
0.85 0.15 2
0.85 0.15 0
0.95 0.15 2
0.95 0.15 0
1.05 0.15 2
1.05 0.15 0
1.15 0.15 2
1.15 0.15 0
1.25 0.15 2
1.25 0.15 0
1.35 0.15 2
1.35 0.15 0
1.45 0.15 2
1.45 0.15 0
1.55 0.15 2
1.55 0.15 0
1.65 0.15 2
1.65 0.15 0
1.75 0.15 2
1.75 0.15 0
1.85 0.15 2
1.85 0.15 0
1.95 0.15 2
1.95 0.15 0
0 0.25 1.95
2 0.25 1.95
0 0.25 1.85
2 0.25 1.85
0 0.25 1.75
2 0.25 1.75
0 0.25 1.65
2 0.25 1.65
0 0.25 1.55
2 0.25 1.55
0 0.25 1.45
2 0.25 1.45
0 0.25 1.35
2 0.25 1.35
0 0.25 1.25
2 0.25 1.25
0 0.25 1.15
2 0.25 1.15
0 0.25 1.05
2 0.25 1.05
0 0.25 0.95
2 0.25 0.95
0 0.25 0.85
2 0.25 0.85
0 0.25 0.75
2 0.25 0.75
0 0.25 0.65
2 0.25 0.65
0 0.25 0.55
2 0.25 0.55
0 0.25 0.45
2 0.25 0.45
0 0.25 0.35
2 0.25 0.35
0 0.25 0.25
2 0.25 0.25
0 0.25 0.15
2 0.25 0.15
0 0.25 0.05
2 0.25 0.05
0.05 0.35 2
0.05 0.35 0
0.15 0.35 2
0.15 0.35 0
0.25 0.35 2
0.25 0.35 0
0.35 0.35 2
0.35 0.35 0
0.45 0.35 2
0.45 0.35 0
0.55 0.35 2
0.55 0.35 0
0.65 0.35 2
0.65 0.35 0
0.75 0.35 2
0.75 0.35 0
0.85 0.35 2
0.85 0.35 0
0.95 0.35 2
0.95 0.35 0
1.05 0.35 2
1.05 0.35 0
1.15 0.35 2
1.15 0.35 0
1.25 0.35 2
1.25 0.35 0
1.35 0.35 2
1.35 0.35 0
1.45 0.35 2
1.45 0.35 0
1.55 0.35 2
1.55 0.35 0
1.65 0.35 2
1.65 0.35 0
1.75 0.35 2
1.75 0.35 0
1.85 0.35 2
1.85 0.35 0
1.95 0.35 2
1.95 0.35 0
0 0.45 1.95
2 0.45 1.95
0 0.45 1.85
2 0.45 1.85
0 0.45 1.75
2 0.45 1.75
0 0.45 1.65
2 0.45 1.65
0 0.45 1.55
2 0.45 1.55
0 0.45 1.45
2 0.45 1.45
0 0.45 1.35
2 0.45 1.35
0 0.45 1.25
2 0.45 1.25
0 0.45 1.15
2 0.45 1.15
0 0.45 1.05
2 0.45 1.05
0 0.45 0.95
2 0.45 0.95
0 0.45 0.85
2 0.45 0.85
0 0.45 0.75
2 0.45 0.75
0 0.45 0.65
2 0.45 0.65
0 0.45 0.55
2 0.45 0.55
0 0.45 0.45
2 0.45 0.45
0 0.45 0.35
2 0.45 0.35
0 0.45 0.25
2 0.45 0.25
0 0.45 0.15
2 0.45 0.15
0 0.45 0.05
2 0.45 0.05
LINES 100 300
2 0 1
2 2 3
2 4 5
2 6 7
2 8 9
2 10 11
2 12 13
2 14 15
2 16 17
2 18 19
2 20 21
2 22 23
2 24 25
2 26 27
2 28 29
2 30 31
2 32 33
2 34 35
2 36 37
2 38 39
2 40 41
2 42 43
2 44 45
2 46 47
2 48 49
2 50 51
2 52 53
2 54 55
2 56 57
2 58 59
2 60 61
2 62 63
2 64 65
2 66 67
2 68 69
2 70 71
2 72 73
2 74 75
2 76 77
2 78 79
2 80 81
2 82 83
2 84 85
2 86 87
2 88 89
2 90 91
2 92 93
2 94 95
2 96 97
2 98 99
2 100 101
2 102 103
2 104 105
2 106 107
2 108 109
2 110 111
2 112 113
2 114 115
2 116 117
2 118 119
2 120 121
2 122 123
2 124 125
2 126 127
2 128 129
2 130 131
2 132 133
2 134 135
2 136 137
2 138 139
2 140 141
2 142 143
2 144 145
2 146 147
2 148 149
2 150 151
2 152 153
2 154 155
2 156 157
2 158 159
2 160 161
2 162 163
2 164 165
2 166 167
2 168 169
2 170 171
2 172 173
2 174 175
2 176 177
2 178 179
2 180 181
2 182 183
2 184 185
2 186 187
2 188 189
2 190 191
2 192 193
2 194 195
2 196 197
2 198 199
