# vtk DataFile Version 3.0
embmesh fibers
ASCII
DATASET POLYDATA
POINTS 64 float
0 0.125 0.125
2 0.125 0.125
0 0.375 0.125
2 0.375 0.125
0 0.625 0.125
2 0.625 0.125
0 0.875 0.125
2 0.875 0.125
0 1.125 0.125
2 1.125 0.125
0 1.375 0.125
2 1.375 0.125
0 1.625 0.125
2 1.625 0.125
0 1.875 0.125
2 1.875 0.125
0.125 -2.22045e-16 0.375
0.125 2 0.375
0.375 -2.22045e-16 0.375
0.375 2 0.375
0.625 -2.22045e-16 0.375
0.625 2 0.375
0.875 -2.22045e-16 0.375
0.875 2 0.375
1.125 -2.22045e-16 0.375
1.125 2 0.375
1.375 -2.22045e-16 0.375
1.375 2 0.375
1.625 -2.22045e-16 0.375
1.625 2 0.375
1.875 -2.22045e-16 0.375
1.875 2 0.375
0 0.125 0.625
2 0.125 0.625
0 0.375 0.625
2 0.375 0.625
0 0.625 0.625
2 0.625 0.625
0 0.875 0.625
2 0.875 0.625
0 1.125 0.625
2 1.125 0.625
0 1.375 0.625
2 1.375 0.625
0 1.625 0.625
2 1.625 0.625
0 1.875 0.625
2 1.875 0.625
0.125 0 0.875
0.125 2 0.875
0.375 0 0.875
0.375 2 0.875
0.625 0 0.875
0.625 2 0.875
0.875 0 0.875
0.875 2 0.875
1.125 0 0.875
1.125 2 0.875
1.375 0 0.875
1.375 2 0.875
1.625 0 0.875
1.625 2 0.875
1.875 0 0.875
1.875 2 0.875
LINES 32 96
2 0 1
2 2 3
2 4 5
2 6 7
2 8 9
2 10 11
2 12 13
2 14 15
2 16 17
2 18 19
2 20 21
2 22 23
2 24 25
2 26 27
2 28 29
2 30 31
2 32 33
2 34 35
2 36 37
2 38 39
2 40 41
2 42 43
2 44 45
2 46 47
2 48 49
2 50 51
2 52 53
2 54 55
2 56 57
2 58 59
2 60 61
2 62 63
