# vtk DataFile Version 3.0
embmesh host/fiber visualization
ASCII
DATASET POLYDATA
POINTS 58 float
0 0 0
1 0 0
1 1 0
1 1 0
0 0 1
1 0 1
1 1 1
1 1 1
0 0.1 0.1
1 0.1 0.1
0 0.3 0.1
1 0.3 0.1
0 0.5 0.1
1 0.5 0.1
0 0.7 0.1
1 0.7 0.1
0 0.9 0.1
1 0.9 0.1
0.1 0 0.3
0.1 1 0.3
0.3 0 0.3
0.3 1 0.3
0.5 0 0.3
0.5 1 0.3
0.7 0 0.3
0.7 1 0.3
0.9 0 0.3
0.9 1 0.3
0 0.1 0.5
1 0.1 0.5
0 0.3 0.5
1 0.3 0.5
0 0.5 0.5
1 0.5 0.5
0 0.7 0.5
1 0.7 0.5
0 0.9 0.5
1 0.9 0.5
0.1 0 0.7
0.1 1 0.7
0.3 0 0.7
0.3 1 0.7
0.5 0 0.7
0.5 1 0.7
0.7 0 0.7
0.7 1 0.7
0.9 0 0.7
0.9 1 0.7
0 0.1 0.9
1 0.1 0.9
0 0.3 0.9
1 0.3 0.9
0 0.5 0.9
1 0.5 0.9
0 0.7 0.9
1 0.7 0.9
0 0.9 0.9
1 0.9 0.9
LINES 37 111
2 0 1
2 1 2
2 2 3
2 3 0
2 4 5
2 5 6
2 6 7
2 7 4
2 0 4
2 1 5
2 2 6
2 3 7
2 8 9
2 10 11
2 12 13
2 14 15
2 16 17
2 18 19
2 20 21
2 22 23
2 24 25
2 26 27
2 28 29
2 30 31
2 32 33
2 34 35
2 36 37
2 38 39
2 40 41
2 42 43
2 44 45
2 46 47
2 48 49
2 50 51
2 52 53
2 54 55
2 56 57
CELL_DATA 37
SCALARS host_volume_fraction float 1
LOOKUP_TABLE default
0.78539816379
0.78539816379
0.78539816379
0.78539816379
0.78539816379
0.78539816379
0.78539816379
0.78539816379
0.78539816379
0.78539816379
0.78539816379
0.78539816379
-1
-1
-1
-1
-1
-1
-1
-1
-1
-1
-1
-1
-1
-1
-1
-1
-1
-1
-1
-1
-1
-1
-1
-1
-1
