# vtk DataFile Version 3.0
embmesh fibers
ASCII
DATASET POLYDATA
POINTS 336 float
0 4.28787 1.5
3 4.28787 1.5
0 4.07574 1.71213
3 4.07574 1.71213
0 3.8636 1.92426
3 3.8636 1.92426
0 3.65147 2.1364
3 3.65147 2.1364
0 3.43934 2.34853
3 3.43934 2.34853
0 3.22721 2.56066
3 3.22721 2.56066
0 3.01508 2.77279
3 3.01508 2.77279
0 2.80294 2.98492
3 2.80294 2.98492
0 2.59081 3.19706
3 2.59081 3.19706
0 2.37868 3.40919
3 2.37868 3.40919
0 2.16655 3.62132
3 2.16655 3.62132
0 1.95442 3.83345
3 1.95442 3.83345
0 1.74228 4.04558
3 1.74228 4.04558
0 1.53015 4.25772
3 1.53015 4.25772
0.15 4.1818 1.1818
0.15 1.1818 4.1818
0.45 4.1818 1.1818
0.45 1.1818 4.1818
0.75 4.1818 1.1818
0.75 1.1818 4.1818
1.05 4.1818 1.1818
1.05 1.1818 4.1818
1.35 4.1818 1.1818
1.35 1.1818 4.1818
1.65 4.1818 1.1818
1.65 1.1818 4.1818
1.95 4.1818 1.1818
1.95 1.1818 4.1818
2.25 4.1818 1.1818
2.25 1.1818 4.1818
2.55 4.1818 1.1818
2.55 1.1818 4.1818
2.85 4.1818 1.1818
2.85 1.1818 4.1818
0 3.8636 1.07574
3 3.8636 1.07574
0 3.65147 1.28787
3 3.65147 1.28787
0 3.43934 1.5
3 3.43934 1.5
0 3.22721 1.71213
3 3.22721 1.71213
0 3.01508 1.92426
3 3.01508 1.92426
0 2.80294 2.1364
3 2.80294 2.1364
0 2.59081 2.34853
3 2.59081 2.34853
0 2.37868 2.56066
3 2.37868 2.56066
0 2.16655 2.77279
3 2.16655 2.77279
0 1.95442 2.98492
3 1.95442 2.98492
0 1.74228 3.19706
3 1.74228 3.19706
0 1.53015 3.40919
3 1.53015 3.40919
0 1.31802 3.62132
3 1.31802 3.62132
0 1.10589 3.83345
3 1.10589 3.83345
0.15 3.75754 0.757538
0.15 0.757538 3.75754
0.45 3.75754 0.757538
0.45 0.757538 3.75754
0.75 3.75754 0.757538
0.75 0.757538 3.75754
1.05 3.75754 0.757538
1.05 0.757538 3.75754
1.35 3.75754 0.757538
1.35 0.757538 3.75754
1.65 3.75754 0.757538
1.65 0.757538 3.75754
1.95 3.75754 0.757538
1.95 0.757538 3.75754
2.25 3.75754 0.757538
2.25 0.757538 3.75754
2.55 3.75754 0.757538
2.55 0.757538 3.75754
2.85 3.75754 0.757538
2.85 0.757538 3.75754
0 3.43934 0.651472
3 3.43934 0.651472
0 3.22721 0.863604
3 3.22721 0.863604
0 3.01508 1.07574
3 3.01508 1.07574
0 2.80294 1.28787
3 2.80294 1.28787
0 2.59081 1.5
3 2.59081 1.5
0 2.37868 1.71213
3 2.37868 1.71213
0 2.16655 1.92426
3 2.16655 1.92426
0 1.95442 2.1364
3 1.95442 2.1364
0 1.74228 2.34853
3 1.74228 2.34853
0 1.53015 2.56066
3 1.53015 2.56066
0 1.31802 2.77279
3 1.31802 2.77279
0 1.10589 2.98492
3 1.10589 2.98492
0 0.893755 3.19706
3 0.893755 3.19706
0 0.681623 3.40919
3 0.681623 3.40919
0.15 3.33327 0.333274
0.15 0.333274 3.33327
0.45 3.33327 0.333274
0.45 0.333274 3.33327
0.75 3.33327 0.333274
0.75 0.333274 3.33327
1.05 3.33327 0.333274
1.05 0.333274 3.33327
1.35 3.33327 0.333274
1.35 0.333274 3.33327
1.65 3.33327 0.333274
1.65 0.333274 3.33327
1.95 3.33327 0.333274
1.95 0.333274 3.33327
2.25 3.33327 0.333274
2.25 0.333274 3.33327
2.55 3.33327 0.333274
2.55 0.333274 3.33327
2.85 3.33327 0.333274
2.85 0.333274 3.33327
0 3.01508 0.227208
3 3.01508 0.227208
0 2.80294 0.43934
3 2.80294 0.43934
0 2.59081 0.651472
3 2.59081 0.651472
0 2.37868 0.863604
3 2.37868 0.863604
0 2.16655 1.07574
3 2.16655 1.07574
0 1.95442 1.28787
3 1.95442 1.28787
0 1.74228 1.5
3 1.74228 1.5
0 1.53015 1.71213
3 1.53015 1.71213
0 1.31802 1.92426
3 1.31802 1.92426
0 1.10589 2.1364
3 1.10589 2.1364
0 0.893755 2.34853
3 0.893755 2.34853
0 0.681623 2.56066
3 0.681623 2.56066
0 0.469491 2.77279
3 0.469491 2.77279
0 0.257359 2.98492
3 0.257359 2.98492
0.15 2.90901 -0.0909903
0.15 -0.0909903 2.90901
0.45 2.90901 -0.0909903
0.45 -0.0909903 2.90901
0.75 2.90901 -0.0909903
0.75 -0.0909903 2.90901
1.05 2.90901 -0.0909903
1.05 -0.0909903 2.90901
1.35 2.90901 -0.0909903
1.35 -0.0909903 2.90901
1.65 2.90901 -0.0909903
1.65 -0.0909903 2.90901
1.95 2.90901 -0.0909903
1.95 -0.0909903 2.90901
2.25 2.90901 -0.0909903
2.25 -0.0909903 2.90901
2.55 2.90901 -0.0909903
2.55 -0.0909903 2.90901
2.85 2.90901 -0.0909903
2.85 -0.0909903 2.90901
0 2.59081 -0.197056
3 2.59081 -0.197056
0 2.37868 0.0150758
3 2.37868 0.0150758
0 2.16655 0.227208
3 2.16655 0.227208
0 1.95442 0.43934
3 1.95442 0.43934
0 1.74228 0.651472
3 1.74228 0.651472
0 1.53015 0.863604
3 1.53015 0.863604
0 1.31802 1.07574
3 1.31802 1.07574
0 1.10589 1.28787
3 1.10589 1.28787
0 0.893755 1.5
3 0.893755 1.5
0 0.681623 1.71213
3 0.681623 1.71213
0 0.469491 1.92426
3 0.469491 1.92426
0 0.257359 2.1364
3 0.257359 2.1364
0 0.0452273 2.34853
3 0.0452273 2.34853
0 -0.166905 2.56066
3 -0.166905 2.56066
0.15 2.48475 -0.515254
0.15 -0.515254 2.48475
0.45 2.48475 -0.515254
0.45 -0.515254 2.48475
0.75 2.48475 -0.515254
0.75 -0.515254 2.48475
1.05 2.48475 -0.515254
1.05 -0.515254 2.48475
1.35 2.48475 -0.515254
1.35 -0.515254 2.48475
1.65 2.48475 -0.515254
1.65 -0.515254 2.48475
1.95 2.48475 -0.515254
1.95 -0.515254 2.48475
2.25 2.48475 -0.515254
2.25 -0.515254 2.48475
2.55 2.48475 -0.515254
2.55 -0.515254 2.48475
2.85 2.48475 -0.515254
2.85 -0.515254 2.48475
0 2.16655 -0.62132
3 2.16655 -0.62132
0 1.95442 -0.409188
3 1.95442 -0.409188
0 1.74228 -0.197056
3 1.74228 -0.197056
0 1.53015 0.0150758
3 1.53015 0.0150758
0 1.31802 0.227208
3 1.31802 0.227208
0 1.10589 0.43934
3 1.10589 0.43934
0 0.893755 0.651472
3 0.893755 0.651472
0 0.681623 0.863604
3 0.681623 0.863604
0 0.469491 1.07574
3 0.469491 1.07574
0 0.257359 1.28787
3 0.257359 1.28787
0 0.0452273 1.5
3 0.0452273 1.5
0 -0.166905 1.71213
3 -0.166905 1.71213
0 -0.379037 1.92426
3 -0.379037 1.92426
0 -0.591169 2.1364
3 -0.591169 2.1364
0.15 2.06048 -0.939518
0.15 -0.939518 2.06048
0.45 2.06048 -0.939518
0.45 -0.939518 2.06048
0.75 2.06048 -0.939518
0.75 -0.939518 2.06048
1.05 2.06048 -0.939518
1.05 -0.939518 2.06048
1.35 2.06048 -0.939518
1.35 -0.939518 2.06048
1.65 2.06048 -0.939518
1.65 -0.939518 2.06048
1.95 2.06048 -0.939518
1.95 -0.939518 2.06048
2.25 2.06048 -0.939518
2.25 -0.939518 2.06048
2.55 2.06048 -0.939518
2.55 -0.939518 2.06048
2.85 2.06048 -0.939518
2.85 -0.939518 2.06048
0 1.74228 -1.04558
3 1.74228 -1.04558
0 1.53015 -0.833452
3 1.53015 -0.833452
0 1.31802 -0.62132
3 1.31802 -0.62132
0 1.10589 -0.409188
3 1.10589 -0.409188
0 0.893755 -0.197056
3 0.893755 -0.197056
0 0.681623 0.0150758
3 0.681623 0.0150758
0 0.469491 0.227208
3 0.469491 0.227208
0 0.257359 0.43934
3 0.257359 0.43934
0 0.0452273 0.651472
3 0.0452273 0.651472
0 -0.166905 0.863604
3 -0.166905 0.863604
0 -0.379037 1.07574
3 -0.379037 1.07574
0 -0.591169 1.28787
3 -0.591169 1.28787
0 -0.803301 1.5
3 -0.803301 1.5
0 -1.01543 1.71213
3 -1.01543 1.71213
0.15 1.63622 -1.36378
0.15 -1.36378 1.63622
0.45 1.63622 -1.36378
0.45 -1.36378 1.63622
0.75 1.63622 -1.36378
0.75 -1.36378 1.63622
1.05 1.63622 -1.36378
1.05 -1.36378 1.63622
1.35 1.63622 -1.36378
1.35 -1.36378 1.63622
1.65 1.63622 -1.36378
1.65 -1.36378 1.63622
1.95 1.63622 -1.36378
1.95 -1.36378 1.63622
2.25 1.63622 -1.36378
2.25 -1.36378 1.63622
2.55 1.63622 -1.36378
2.55 -1.36378 1.63622
2.85 1.63622 -1.36378
2.85 -1.36378 1.63622
LINES 168 504
2 0 1
2 2 3
2 4 5
2 6 7
2 8 9
2 10 11
2 12 13
2 14 15
2 16 17
2 18 19
2 20 21
2 22 23
2 24 25
2 26 27
2 28 29
2 30 31
2 32 33
2 34 35
2 36 37
2 38 39
2 40 41
2 42 43
2 44 45
2 46 47
2 48 49
2 50 51
2 52 53
2 54 55
2 56 57
2 58 59
2 60 61
2 62 63
2 64 65
2 66 67
2 68 69
2 70 71
2 72 73
2 74 75
2 76 77
2 78 79
2 80 81
2 82 83
2 84 85
2 86 87
2 88 89
2 90 91
2 92 93
2 94 95
2 96 97
2 98 99
2 100 101
2 102 103
2 104 105
2 106 107
2 108 109
2 110 111
2 112 113
2 114 115
2 116 117
2 118 119
2 120 121
2 122 123
2 124 125
2 126 127
2 128 129
2 130 131
2 132 133
2 134 135
2 136 137
2 138 139
2 140 141
2 142 143
2 144 145
2 146 147
2 148 149
2 150 151
2 152 153
2 154 155
2 156 157
2 158 159
2 160 161
2 162 163
2 164 165
2 166 167
2 168 169
2 170 171
2 172 173
2 174 175
2 176 177
2 178 179
2 180 181
2 182 183
2 184 185
2 186 187
2 188 189
2 190 191
2 192 193
2 194 195
2 196 197
2 198 199
2 200 201
2 202 203
2 204 205
2 206 207
2 208 209
2 210 211
2 212 213
2 214 215
2 216 217
2 218 219
2 220 221
2 222 223
2 224 225
2 226 227
2 228 229
2 230 231
2 232 233
2 234 235
2 236 237
2 238 239
2 240 241
2 242 243
2 244 245
2 246 247
2 248 249
2 250 251
2 252 253
2 254 255
2 256 257
2 258 259
2 260 261
2 262 263
2 264 265
2 266 267
2 268 269
2 270 271
2 272 273
2 274 275
2 276 277
2 278 279
2 280 281
2 282 283
2 284 285
2 286 287
2 288 289
2 290 291
2 292 293
2 294 295
2 296 297
2 298 299
2 300 301
2 302 303
2 304 305
2 306 307
2 308 309
2 310 311
2 312 313
2 314 315
2 316 317
2 318 319
2 320 321
2 322 323
2 324 325
2 326 327
2 328 329
2 330 331
2 332 333
2 334 335
