# vtk DataFile Version 3.0
embmesh fibers
ASCII
DATASET POLYDATA
POINTS 230 float
0 1 9
100 1 9
0 1 7
100 1 7
0 1 5
100 1 5
0 1 3
100 1 3
0 1 1
100 1 1
1 3 10
1 3 0
3 3 10
3 3 0
5 3 10
5 3 0
7 3 10
7 3 0
9 3 10
9 3 0
11 3 10
11 3 0
13 3 10
13 3 0
15 3 10
15 3 0
17 3 10
17 3 0
19 3 10
19 3 0
21 3 10
21 3 0
23 3 10
23 3 0
25 3 10
25 3 0
27 3 10
27 3 0
29 3 10
29 3 0
31 3 10
31 3 0
33 3 10
33 3 0
35 3 10
35 3 0
37 3 10
37 3 0
39 3 10
39 3 0
41 3 10
41 3 0
43 3 10
43 3 0
45 3 10
45 3 0
47 3 10
47 3 0
49 3 10
49 3 0
51 3 10
51 3 0
53 3 10
53 3 0
55 3 10
55 3 0
57 3 10
57 3 0
59 3 10
59 3 0
61 3 10
61 3 0
63 3 10
63 3 0
65 3 10
65 3 0
67 3 10
67 3 0
69 3 10
69 3 0
71 3 10
71 3 0
73 3 10
73 3 0
75 3 10
75 3 0
77 3 10
77 3 0
79 3 10
79 3 0
81 3 10
81 3 0
83 3 10
83 3 0
85 3 10
85 3 0
87 3 10
87 3 0
89 3 10
89 3 0
91 3 10
91 3 0
93 3 10
93 3 0
95 3 10
95 3 0
97 3 10
97 3 0
99 3 10
99 3 0
0 5 9
100 5 9
0 5 7
100 5 7
0 5 5
100 5 5
0 5 3
100 5 3
0 5 1
100 5 1
1 7 10
1 7 0
3 7 10
3 7 0
5 7 10
5 7 0
7 7 10
7 7 0
9 7 10
9 7 0
11 7 10
11 7 0
13 7 10
13 7 0
15 7 10
15 7 0
17 7 10
17 7 0
19 7 10
19 7 0
21 7 10
21 7 0
23 7 10
23 7 0
25 7 10
25 7 0
27 7 10
27 7 0
29 7 10
29 7 0
31 7 10
31 7 0
33 7 10
33 7 0
35 7 10
35 7 0
37 7 10
37 7 0
39 7 10
39 7 0
41 7 10
41 7 0
43 7 10
43 7 0
45 7 10
45 7 0
47 7 10
47 7 0
49 7 10
49 7 0
51 7 10
51 7 0
53 7 10
53 7 0
55 7 10
55 7 0
57 7 10
57 7 0
59 7 10
59 7 0
61 7 10
61 7 0
63 7 10
63 7 0
65 7 10
65 7 0
67 7 10
67 7 0
69 7 10
69 7 0
71 7 10
71 7 0
73 7 10
73 7 0
75 7 10
75 7 0
77 7 10
77 7 0
79 7 10
79 7 0
81 7 10
81 7 0
83 7 10
83 7 0
85 7 10
85 7 0
87 7 10
87 7 0
89 7 10
89 7 0
91 7 10
91 7 0
93 7 10
93 7 0
95 7 10
95 7 0
97 7 10
97 7 0
99 7 10
99 7 0
0 9 9
100 9 9
0 9 7
100 9 7
0 9 5
100 9 5
0 9 3
100 9 3
0 9 1
100 9 1
LINES 115 345
2 0 1
2 2 3
2 4 5
2 6 7
2 8 9
2 10 11
2 12 13
2 14 15
2 16 17
2 18 19
2 20 21
2 22 23
2 24 25
2 26 27
2 28 29
2 30 31
2 32 33
2 34 35
2 36 37
2 38 39
2 40 41
2 42 43
2 44 45
2 46 47
2 48 49
2 50 51
2 52 53
2 54 55
2 56 57
2 58 59
2 60 61
2 62 63
2 64 65
2 66 67
2 68 69
2 70 71
2 72 73
2 74 75
2 76 77
2 78 79
2 80 81
2 82 83
2 84 85
2 86 87
2 88 89
2 90 91
2 92 93
2 94 95
2 96 97
2 98 99
2 100 101
2 102 103
2 104 105
2 106 107
2 108 109
2 110 111
2 112 113
2 114 115
2 116 117
2 118 119
2 120 121
2 122 123
2 124 125
2 126 127
2 128 129
2 130 131
2 132 133
2 134 135
2 136 137
2 138 139
2 140 141
2 142 143
2 144 145
2 146 147
2 148 149
2 150 151
2 152 153
2 154 155
2 156 157
2 158 159
2 160 161
2 162 163
2 164 165
2 166 167
2 168 169
2 170 171
2 172 173
2 174 175
2 176 177
2 178 179
2 180 181
2 182 183
2 184 185
2 186 187
2 188 189
2 190 191
2 192 193
2 194 195
2 196 197
2 198 199
2 200 201
2 202 203
2 204 205
2 206 207
2 208 209
2 210 211
2 212 213
2 214 215
2 216 217
2 218 219
2 220 221
2 222 223
2 224 225
2 226 227
2 228 229
