# vtk DataFile Version 3.0
embmesh host/fiber visualization
ASCII
DATASET POLYDATA
POINTS 16 float
0 0 0
1 0 0
1 1 0
0 1 0
0 0 1
1 0 1
1 1 1
0 1 1
0 0.225 0.225
1 0.225 0.225
0 0.675 0.225
1 0.675 0.225
0.225 0 0.675
0.225 1 0.675
0.675 0 0.675
0.675 1 0.675
LINES 16 48
2 0 1
2 1 2
2 2 3
2 3 0
2 4 5
2 5 6
2 6 7
2 7 4
2 0 4
2 1 5
2 2 6
2 3 7
2 8 9
2 10 11
2 12 13
2 14 15
CELL_DATA 16
SCALARS host_volume_fraction float 1
LOOKUP_TABLE default
0.636172512352
0.636172512352
0.636172512352
0.636172512352
0.636172512352
0.636172512352
0.636172512352
0.636172512352
0.636172512352
0.636172512352
0.636172512352
0.636172512352
-1
-1
-1
-1
