# vtk DataFile Version 3.0
embmesh fibers
ASCII
DATASET POLYDATA
POINTS 72 float
0 0.125 0.075
1 0.125 0.075
0 0.275 0.075
1 0.275 0.075
0 0.425 0.075
1 0.425 0.075
0 0.575 0.075
1 0.575 0.075
0 0.725 0.075
1 0.725 0.075
0 0.875 0.075
1 0.875 0.075
0.125 0 0.225
0.125 1 0.225
0.275 0 0.225
0.275 1 0.225
0.425 0 0.225
0.425 1 0.225
0.575 0 0.225
0.575 1 0.225
0.725 0 0.225
0.725 1 0.225
0.875 0 0.225
0.875 1 0.225
0 0.125 0.375
1 0.125 0.375
0 0.275 0.375
1 0.275 0.375
0 0.425 0.375
1 0.425 0.375
0 0.575 0.375
1 0.575 0.375
0 0.725 0.375
1 0.725 0.375
0 0.875 0.375
1 0.875 0.375
0.125 0 0.525
0.125 1 0.525
0.275 0 0.525
0.275 1 0.525
0.425 0 0.525
0.425 1 0.525
0.575 0 0.525
0.575 1 0.525
0.725 0 0.525
0.725 1 0.525
0.875 0 0.525
0.875 1 0.525
0 0.125 0.675
1 0.125 0.675
0 0.275 0.675
1 0.275 0.675
0 0.425 0.675
1 0.425 0.675
0 0.575 0.675
1 0.575 0.675
0 0.725 0.675
1 0.725 0.675
0 0.875 0.675
1 0.875 0.675
0.125 0 0.825
0.125 1 0.825
0.275 0 0.825
0.275 1 0.825
0.425 0 0.825
0.425 1 0.825
0.575 0 0.825
0.575 1 0.825
0.725 0 0.825
0.725 1 0.825
0.875 0 0.825
0.875 1 0.825
LINES 36 108
2 0 1
2 2 3
2 4 5
2 6 7
2 8 9
2 10 11
2 12 13
2 14 15
2 16 17
2 18 19
2 20 21
2 22 23
2 24 25
2 26 27
2 28 29
2 30 31
2 32 33
2 34 35
2 36 37
2 38 39
2 40 41
2 42 43
2 44 45
2 46 47
2 48 49
2 50 51
2 52 53
2 54 55
2 56 57
2 58 59
2 60 61
2 62 63
2 64 65
2 66 67
2 68 69
2 70 71
