# vtk DataFile Version 3.0
embmesh fibers
ASCII
DATASET POLYDATA
POINTS 32 float
-1 1.125 0.125
1.11022e-16 1.125 0.125
-1 1.375 0.125
1.11022e-16 1.375 0.125
-1 1.625 0.125
1.11022e-16 1.625 0.125
-1 1.875 0.125
1.11022e-16 1.875 0.125
-0.875 1 0.375
-0.875 2 0.375
-0.625 1 0.375
-0.625 2 0.375
-0.375 1 0.375
-0.375 2 0.375
-0.125 1 0.375
-0.125 2 0.375
-1 1.125 0.625
1.11022e-16 1.125 0.625
-1 1.375 0.625
1.11022e-16 1.375 0.625
-1 1.625 0.625
1.11022e-16 1.625 0.625
-1 1.875 0.625
1.11022e-16 1.875 0.625
-0.875 1 0.875
-0.875 2 0.875
-0.625 1 0.875
-0.625 2 0.875
-0.375 1 0.875
-0.375 2 0.875
-0.125 1 0.875
-0.125 2 0.875
LINES 16 48
2 0 1
2 2 3
2 4 5
2 6 7
2 8 9
2 10 11
2 12 13
2 14 15
2 16 17
2 18 19
2 20 21
2 22 23
2 24 25
2 26 27
2 28 29
2 30 31
