# vtk DataFile Version 3.0
embmesh host/fiber visualization
ASCII
DATASET POLYDATA
POINTS 40 float
6.12323399574e-17 1 0
1.22464679915e-16 2 0
-1 2 0
-1 1 0
6.12323399574e-17 1 1
1.22464679915e-16 2 1
-1 2 1
-1 1 1
-1 1.125 0.125
1.11022302463e-16 1.125 0.125
-1 1.375 0.125
1.11022302463e-16 1.375 0.125
-1 1.625 0.125
1.11022302463e-16 1.625 0.125
-1 1.875 0.125
1.11022302463e-16 1.875 0.125
-0.875 1 0.375
-0.875 2 0.375
-0.625 1 0.375
-0.625 2 0.375
-0.375 1 0.375
-0.375 2 0.375
-0.125 1 0.375
-0.125 2 0.375
-1 1.125 0.625
1.11022302463e-16 1.125 0.625
-1 1.375 0.625
1.11022302463e-16 1.375 0.625
-1 1.625 0.625
1.11022302463e-16 1.625 0.625
-1 1.875 0.625
1.11022302463e-16 1.875 0.625
-0.875 1 0.875
-0.875 2 0.875
-0.625 1 0.875
-0.625 2 0.875
-0.375 1 0.875
-0.375 2 0.875
-0.125 1 0.875
-0.125 2 0.875
LINES 28 84
2 0 1
2 1 2
2 2 3
2 3 0
2 4 5
2 5 6
2 6 7
2 7 4
2 0 4
2 1 5
2 2 6
2 3 7
2 8 9
2 10 11
2 12 13
2 14 15
2 16 17
2 18 19
2 20 21
2 22 23
2 24 25
2 26 27
2 28 29
2 30 31
2 32 33
2 34 35
2 36 37
2 38 39
CELL_DATA 28
SCALARS host_volume_fraction float 1
LOOKUP_TABLE default
0.785398163397
0.785398163397
0.785398163397
0.785398163397
0.785398163397
0.785398163397
0.785398163397
0.785398163397
0.785398163397
0.785398163397
0.785398163397
0.785398163397
-1
-1
-1
-1
-1
-1
-1
-1
-1
-1
-1
-1
-1
-1
-1
-1
